solid OpenSCAD_Model
  facet normal 1 -0 0
    outer loop
      vertex 78.6 6 1.6
      vertex 78.6 30 0
      vertex 78.6 30 1.6
    endloop
  endfacet
  facet normal 1 0 0
    outer loop
      vertex 78.6 30 0
      vertex 78.6 6 1.6
      vertex 78.6 6 0
    endloop
  endfacet
  facet normal 0 -1 0
    outer loop
      vertex 78.6 30 0
      vertex 80.6 30 1.6
      vertex 78.6 30 1.6
    endloop
  endfacet
  facet normal 0 -1 -0
    outer loop
      vertex 80.6 30 1.6
      vertex 78.6 30 0
      vertex 80.6 30 0
    endloop
  endfacet
  facet normal -1 0 0
    outer loop
      vertex 80.6 6 0
      vertex 80.6 30 1.6
      vertex 80.6 30 0
    endloop
  endfacet
  facet normal -1 -0 0
    outer loop
      vertex 80.6 30 1.6
      vertex 80.6 6 0
      vertex 80.6 6 1.6
    endloop
  endfacet
  facet normal 0 1 -0
    outer loop
      vertex 80.6 6 0
      vertex 78.6 6 1.6
      vertex 80.6 6 1.6
    endloop
  endfacet
  facet normal 0 1 0
    outer loop
      vertex 78.6 6 1.6
      vertex 80.6 6 0
      vertex 78.6 6 0
    endloop
  endfacet
  facet normal 1 -0 0
    outer loop
      vertex 83.6 6 1.6
      vertex 83.6 30 0
      vertex 83.6 30 1.6
    endloop
  endfacet
  facet normal 1 0 0
    outer loop
      vertex 83.6 30 0
      vertex 83.6 6 1.6
      vertex 83.6 6 0
    endloop
  endfacet
  facet normal 0 -1 0
    outer loop
      vertex 83.6 30 0
      vertex 85.6 30 1.6
      vertex 83.6 30 1.6
    endloop
  endfacet
  facet normal 0 -1 -0
    outer loop
      vertex 85.6 30 1.6
      vertex 83.6 30 0
      vertex 85.6 30 0
    endloop
  endfacet
  facet normal -1 0 0
    outer loop
      vertex 85.6 6 0
      vertex 85.6 30 1.6
      vertex 85.6 30 0
    endloop
  endfacet
  facet normal -1 -0 0
    outer loop
      vertex 85.6 30 1.6
      vertex 85.6 6 0
      vertex 85.6 6 1.6
    endloop
  endfacet
  facet normal 0 1 -0
    outer loop
      vertex 85.6 6 0
      vertex 83.6 6 1.6
      vertex 85.6 6 1.6
    endloop
  endfacet
  facet normal 0 1 0
    outer loop
      vertex 83.6 6 1.6
      vertex 85.6 6 0
      vertex 83.6 6 0
    endloop
  endfacet
  facet normal 1 -0 0
    outer loop
      vertex 88.6 6 1.6
      vertex 88.6 30 0
      vertex 88.6 30 1.6
    endloop
  endfacet
  facet normal 1 0 0
    outer loop
      vertex 88.6 30 0
      vertex 88.6 6 1.6
      vertex 88.6 6 0
    endloop
  endfacet
  facet normal 0 -1 0
    outer loop
      vertex 88.6 30 0
      vertex 90.6 30 1.6
      vertex 88.6 30 1.6
    endloop
  endfacet
  facet normal 0 -1 -0
    outer loop
      vertex 90.6 30 1.6
      vertex 88.6 30 0
      vertex 90.6 30 0
    endloop
  endfacet
  facet normal -1 0 0
    outer loop
      vertex 90.6 6 0
      vertex 90.6 30 1.6
      vertex 90.6 30 0
    endloop
  endfacet
  facet normal -1 -0 0
    outer loop
      vertex 90.6 30 1.6
      vertex 90.6 6 0
      vertex 90.6 6 1.6
    endloop
  endfacet
  facet normal 0 1 -0
    outer loop
      vertex 90.6 6 0
      vertex 88.6 6 1.6
      vertex 90.6 6 1.6
    endloop
  endfacet
  facet normal 0 1 0
    outer loop
      vertex 88.6 6 1.6
      vertex 90.6 6 0
      vertex 88.6 6 0
    endloop
  endfacet
  facet normal 1 -0 0
    outer loop
      vertex 93.6 6 1.6
      vertex 93.6 30 0
      vertex 93.6 30 1.6
    endloop
  endfacet
  facet normal 1 0 0
    outer loop
      vertex 93.6 30 0
      vertex 93.6 6 1.6
      vertex 93.6 6 0
    endloop
  endfacet
  facet normal 0 -1 0
    outer loop
      vertex 93.6 30 0
      vertex 95.6 30 1.6
      vertex 93.6 30 1.6
    endloop
  endfacet
  facet normal 0 -1 -0
    outer loop
      vertex 95.6 30 1.6
      vertex 93.6 30 0
      vertex 95.6 30 0
    endloop
  endfacet
  facet normal -1 0 0
    outer loop
      vertex 95.6 6 0
      vertex 95.6 30 1.6
      vertex 95.6 30 0
    endloop
  endfacet
  facet normal -1 -0 0
    outer loop
      vertex 95.6 30 1.6
      vertex 95.6 6 0
      vertex 95.6 6 1.6
    endloop
  endfacet
  facet normal 0 1 -0
    outer loop
      vertex 95.6 6 0
      vertex 93.6 6 1.6
      vertex 95.6 6 1.6
    endloop
  endfacet
  facet normal 0 1 0
    outer loop
      vertex 93.6 6 1.6
      vertex 95.6 6 0
      vertex 93.6 6 0
    endloop
  endfacet
  facet normal 1 -0 0
    outer loop
      vertex 98.6 6 1.6
      vertex 98.6 30 0
      vertex 98.6 30 1.6
    endloop
  endfacet
  facet normal 1 0 0
    outer loop
      vertex 98.6 30 0
      vertex 98.6 6 1.6
      vertex 98.6 6 0
    endloop
  endfacet
  facet normal 0 -1 0
    outer loop
      vertex 98.6 30 0
      vertex 100.6 30 1.6
      vertex 98.6 30 1.6
    endloop
  endfacet
  facet normal 0 -1 -0
    outer loop
      vertex 100.6 30 1.6
      vertex 98.6 30 0
      vertex 100.6 30 0
    endloop
  endfacet
  facet normal -1 0 0
    outer loop
      vertex 100.6 6 0
      vertex 100.6 30 1.6
      vertex 100.6 30 0
    endloop
  endfacet
  facet normal -1 -0 0
    outer loop
      vertex 100.6 30 1.6
      vertex 100.6 6 0
      vertex 100.6 6 1.6
    endloop
  endfacet
  facet normal 0 1 -0
    outer loop
      vertex 100.6 6 0
      vertex 98.6 6 1.6
      vertex 100.6 6 1.6
    endloop
  endfacet
  facet normal 0 1 0
    outer loop
      vertex 98.6 6 1.6
      vertex 100.6 6 0
      vertex 98.6 6 0
    endloop
  endfacet
  facet normal 1 -0 0
    outer loop
      vertex 103.6 6 1.6
      vertex 103.6 30 0
      vertex 103.6 30 1.6
    endloop
  endfacet
  facet normal 1 0 0
    outer loop
      vertex 103.6 30 0
      vertex 103.6 6 1.6
      vertex 103.6 6 0
    endloop
  endfacet
  facet normal 0 -1 0
    outer loop
      vertex 103.6 30 0
      vertex 105.6 30 1.6
      vertex 103.6 30 1.6
    endloop
  endfacet
  facet normal 0 -1 -0
    outer loop
      vertex 105.6 30 1.6
      vertex 103.6 30 0
      vertex 105.6 30 0
    endloop
  endfacet
  facet normal -1 0 0
    outer loop
      vertex 105.6 6 0
      vertex 105.6 30 1.6
      vertex 105.6 30 0
    endloop
  endfacet
  facet normal -1 -0 0
    outer loop
      vertex 105.6 30 1.6
      vertex 105.6 6 0
      vertex 105.6 6 1.6
    endloop
  endfacet
  facet normal 0 1 -0
    outer loop
      vertex 105.6 6 0
      vertex 103.6 6 1.6
      vertex 105.6 6 1.6
    endloop
  endfacet
  facet normal 0 1 0
    outer loop
      vertex 103.6 6 1.6
      vertex 105.6 6 0
      vertex 103.6 6 0
    endloop
  endfacet
  facet normal 1 -0 0
    outer loop
      vertex 108.6 6 1.6
      vertex 108.6 30 0
      vertex 108.6 30 1.6
    endloop
  endfacet
  facet normal 1 0 0
    outer loop
      vertex 108.6 30 0
      vertex 108.6 6 1.6
      vertex 108.6 6 0
    endloop
  endfacet
  facet normal 0 -1 0
    outer loop
      vertex 108.6 30 0
      vertex 110.6 30 1.6
      vertex 108.6 30 1.6
    endloop
  endfacet
  facet normal 0 -1 -0
    outer loop
      vertex 110.6 30 1.6
      vertex 108.6 30 0
      vertex 110.6 30 0
    endloop
  endfacet
  facet normal -1 0 0
    outer loop
      vertex 110.6 6 0
      vertex 110.6 30 1.6
      vertex 110.6 30 0
    endloop
  endfacet
  facet normal -1 -0 0
    outer loop
      vertex 110.6 30 1.6
      vertex 110.6 6 0
      vertex 110.6 6 1.6
    endloop
  endfacet
  facet normal 0 1 -0
    outer loop
      vertex 110.6 6 0
      vertex 108.6 6 1.6
      vertex 110.6 6 1.6
    endloop
  endfacet
  facet normal 0 1 0
    outer loop
      vertex 108.6 6 1.6
      vertex 110.6 6 0
      vertex 108.6 6 0
    endloop
  endfacet
  facet normal 1 -0 0
    outer loop
      vertex 113.6 6 1.6
      vertex 113.6 30 0
      vertex 113.6 30 1.6
    endloop
  endfacet
  facet normal 1 0 0
    outer loop
      vertex 113.6 30 0
      vertex 113.6 6 1.6
      vertex 113.6 6 0
    endloop
  endfacet
  facet normal 0 -1 0
    outer loop
      vertex 113.6 30 0
      vertex 115.6 30 1.6
      vertex 113.6 30 1.6
    endloop
  endfacet
  facet normal 0 -1 -0
    outer loop
      vertex 115.6 30 1.6
      vertex 113.6 30 0
      vertex 115.6 30 0
    endloop
  endfacet
  facet normal -1 0 0
    outer loop
      vertex 115.6 6 0
      vertex 115.6 30 1.6
      vertex 115.6 30 0
    endloop
  endfacet
  facet normal -1 -0 0
    outer loop
      vertex 115.6 30 1.6
      vertex 115.6 6 0
      vertex 115.6 6 1.6
    endloop
  endfacet
  facet normal 0 1 -0
    outer loop
      vertex 115.6 6 0
      vertex 113.6 6 1.6
      vertex 115.6 6 1.6
    endloop
  endfacet
  facet normal 0 1 0
    outer loop
      vertex 113.6 6 1.6
      vertex 115.6 6 0
      vertex 113.6 6 0
    endloop
  endfacet
  facet normal -1 0 0
    outer loop
      vertex 0 0 0
      vertex 0 36 1.6
      vertex 0 36 0
    endloop
  endfacet
  facet normal -1 -0 0
    outer loop
      vertex 0 36 1.6
      vertex 0 0 0
      vertex 0 0 1.6
    endloop
  endfacet
  facet normal 0 0 1
    outer loop
      vertex 121.6 36 1.6
      vertex 115.6 30 1.6
      vertex 121.6 0 1.6
    endloop
  endfacet
  facet normal 0 0 1
    outer loop
      vertex 121.6 36 1.6
      vertex 113.6 30 1.6
      vertex 115.6 30 1.6
    endloop
  endfacet
  facet normal 0 0 1
    outer loop
      vertex 113.6 30 1.6
      vertex 110.6 30 1.6
      vertex 113.6 6 1.6
    endloop
  endfacet
  facet normal 0 0 1
    outer loop
      vertex 121.6 36 1.6
      vertex 110.6 30 1.6
      vertex 113.6 30 1.6
    endloop
  endfacet
  facet normal 0 0 1
    outer loop
      vertex 121.6 36 1.6
      vertex 108.6 30 1.6
      vertex 110.6 30 1.6
    endloop
  endfacet
  facet normal 0 0 1
    outer loop
      vertex 108.6 30 1.6
      vertex 105.6 30 1.6
      vertex 108.6 6 1.6
    endloop
  endfacet
  facet normal 0 0 1
    outer loop
      vertex 121.6 36 1.6
      vertex 105.6 30 1.6
      vertex 108.6 30 1.6
    endloop
  endfacet
  facet normal 0 0 1
    outer loop
      vertex 121.6 36 1.6
      vertex 103.6 30 1.6
      vertex 105.6 30 1.6
    endloop
  endfacet
  facet normal 0 0 1
    outer loop
      vertex 103.6 30 1.6
      vertex 100.6 30 1.6
      vertex 103.6 6 1.6
    endloop
  endfacet
  facet normal 0 0 1
    outer loop
      vertex 121.6 36 1.6
      vertex 100.6 30 1.6
      vertex 103.6 30 1.6
    endloop
  endfacet
  facet normal 0 0 1
    outer loop
      vertex 121.6 36 1.6
      vertex 98.6 30 1.6
      vertex 100.6 30 1.6
    endloop
  endfacet
  facet normal 0 0 1
    outer loop
      vertex 98.6 30 1.6
      vertex 95.6 30 1.6
      vertex 98.6 6 1.6
    endloop
  endfacet
  facet normal 0 0 1
    outer loop
      vertex 121.6 36 1.6
      vertex 95.6 30 1.6
      vertex 98.6 30 1.6
    endloop
  endfacet
  facet normal 0 0 1
    outer loop
      vertex 121.6 36 1.6
      vertex 93.6 30 1.6
      vertex 95.6 30 1.6
    endloop
  endfacet
  facet normal 0 0 1
    outer loop
      vertex 93.6 30 1.6
      vertex 90.6 30 1.6
      vertex 93.6 6 1.6
    endloop
  endfacet
  facet normal 0 0 1
    outer loop
      vertex 121.6 36 1.6
      vertex 90.6 30 1.6
      vertex 93.6 30 1.6
    endloop
  endfacet
  facet normal 0 0 1
    outer loop
      vertex 121.6 36 1.6
      vertex 88.6 30 1.6
      vertex 90.6 30 1.6
    endloop
  endfacet
  facet normal 0 0 1
    outer loop
      vertex 88.6 30 1.6
      vertex 85.6 30 1.6
      vertex 88.6 6 1.6
    endloop
  endfacet
  facet normal 0 0 1
    outer loop
      vertex 121.6 36 1.6
      vertex 85.6 30 1.6
      vertex 88.6 30 1.6
    endloop
  endfacet
  facet normal 0 0 1
    outer loop
      vertex 121.6 36 1.6
      vertex 83.6 30 1.6
      vertex 85.6 30 1.6
    endloop
  endfacet
  facet normal 0 0 1
    outer loop
      vertex 83.6 30 1.6
      vertex 80.6 30 1.6
      vertex 83.6 6 1.6
    endloop
  endfacet
  facet normal 0 0 1
    outer loop
      vertex 121.6 36 1.6
      vertex 80.6 30 1.6
      vertex 83.6 30 1.6
    endloop
  endfacet
  facet normal 0 0 1
    outer loop
      vertex 121.6 36 1.6
      vertex 78.6 30 1.6
      vertex 80.6 30 1.6
    endloop
  endfacet
  facet normal 0 0 1
    outer loop
      vertex 78.6 30 1.6
      vertex 0 36 1.6
      vertex 78.6 6 1.6
    endloop
  endfacet
  facet normal -0 0 1
    outer loop
      vertex 0 36 1.6
      vertex 78.6 30 1.6
      vertex 121.6 36 1.6
    endloop
  endfacet
  facet normal -0 0 1
    outer loop
      vertex 115.6 6 1.6
      vertex 121.6 0 1.6
      vertex 115.6 30 1.6
    endloop
  endfacet
  facet normal -0 0 1
    outer loop
      vertex 113.6 6 1.6
      vertex 121.6 0 1.6
      vertex 115.6 6 1.6
    endloop
  endfacet
  facet normal 0 0 1
    outer loop
      vertex 110.6 6 1.6
      vertex 113.6 6 1.6
      vertex 110.6 30 1.6
    endloop
  endfacet
  facet normal -0 0 1
    outer loop
      vertex 110.6 6 1.6
      vertex 121.6 0 1.6
      vertex 113.6 6 1.6
    endloop
  endfacet
  facet normal -0 0 1
    outer loop
      vertex 108.6 6 1.6
      vertex 121.6 0 1.6
      vertex 110.6 6 1.6
    endloop
  endfacet
  facet normal 0 0 1
    outer loop
      vertex 105.6 6 1.6
      vertex 108.6 6 1.6
      vertex 105.6 30 1.6
    endloop
  endfacet
  facet normal -0 0 1
    outer loop
      vertex 105.6 6 1.6
      vertex 121.6 0 1.6
      vertex 108.6 6 1.6
    endloop
  endfacet
  facet normal -0 0 1
    outer loop
      vertex 103.6 6 1.6
      vertex 121.6 0 1.6
      vertex 105.6 6 1.6
    endloop
  endfacet
  facet normal 0 0 1
    outer loop
      vertex 100.6 6 1.6
      vertex 103.6 6 1.6
      vertex 100.6 30 1.6
    endloop
  endfacet
  facet normal -0 0 1
    outer loop
      vertex 100.6 6 1.6
      vertex 121.6 0 1.6
      vertex 103.6 6 1.6
    endloop
  endfacet
  facet normal -0 0 1
    outer loop
      vertex 98.6 6 1.6
      vertex 121.6 0 1.6
      vertex 100.6 6 1.6
    endloop
  endfacet
  facet normal 0 0 1
    outer loop
      vertex 95.6 6 1.6
      vertex 98.6 6 1.6
      vertex 95.6 30 1.6
    endloop
  endfacet
  facet normal -0 0 1
    outer loop
      vertex 95.6 6 1.6
      vertex 121.6 0 1.6
      vertex 98.6 6 1.6
    endloop
  endfacet
  facet normal -0 0 1
    outer loop
      vertex 93.6 6 1.6
      vertex 121.6 0 1.6
      vertex 95.6 6 1.6
    endloop
  endfacet
  facet normal 0 0 1
    outer loop
      vertex 90.6 6 1.6
      vertex 93.6 6 1.6
      vertex 90.6 30 1.6
    endloop
  endfacet
  facet normal -0 0 1
    outer loop
      vertex 90.6 6 1.6
      vertex 121.6 0 1.6
      vertex 93.6 6 1.6
    endloop
  endfacet
  facet normal -0 0 1
    outer loop
      vertex 88.6 6 1.6
      vertex 121.6 0 1.6
      vertex 90.6 6 1.6
    endloop
  endfacet
  facet normal 0 0 1
    outer loop
      vertex 85.6 6 1.6
      vertex 88.6 6 1.6
      vertex 85.6 30 1.6
    endloop
  endfacet
  facet normal -0 0 1
    outer loop
      vertex 85.6 6 1.6
      vertex 121.6 0 1.6
      vertex 88.6 6 1.6
    endloop
  endfacet
  facet normal -0 0 1
    outer loop
      vertex 83.6 6 1.6
      vertex 121.6 0 1.6
      vertex 85.6 6 1.6
    endloop
  endfacet
  facet normal 0 0 1
    outer loop
      vertex 80.6 6 1.6
      vertex 83.6 6 1.6
      vertex 80.6 30 1.6
    endloop
  endfacet
  facet normal -0 0 1
    outer loop
      vertex 80.6 6 1.6
      vertex 121.6 0 1.6
      vertex 83.6 6 1.6
    endloop
  endfacet
  facet normal -0 0 1
    outer loop
      vertex 78.6 6 1.6
      vertex 121.6 0 1.6
      vertex 80.6 6 1.6
    endloop
  endfacet
  facet normal 0 0 1
    outer loop
      vertex 78.6 6 1.6
      vertex 0 0 1.6
      vertex 121.6 0 1.6
    endloop
  endfacet
  facet normal 0 0 1
    outer loop
      vertex 0 0 1.6
      vertex 78.6 6 1.6
      vertex 0 36 1.6
    endloop
  endfacet
  facet normal 1 -0 0
    outer loop
      vertex 121.6 0 1.6
      vertex 121.6 36 0
      vertex 121.6 36 1.6
    endloop
  endfacet
  facet normal 1 0 0
    outer loop
      vertex 121.6 36 0
      vertex 121.6 0 1.6
      vertex 121.6 0 0
    endloop
  endfacet
  facet normal 0 0 -1
    outer loop
      vertex 121.6 0 0
      vertex 115.6 6 0
      vertex 121.6 36 0
    endloop
  endfacet
  facet normal 0 0 -1
    outer loop
      vertex 121.6 0 0
      vertex 113.6 6 0
      vertex 115.6 6 0
    endloop
  endfacet
  facet normal 0 0 -1
    outer loop
      vertex 113.6 6 0
      vertex 110.6 6 0
      vertex 113.6 30 0
    endloop
  endfacet
  facet normal 0 0 -1
    outer loop
      vertex 121.6 0 0
      vertex 110.6 6 0
      vertex 113.6 6 0
    endloop
  endfacet
  facet normal 0 0 -1
    outer loop
      vertex 121.6 0 0
      vertex 108.6 6 0
      vertex 110.6 6 0
    endloop
  endfacet
  facet normal 0 0 -1
    outer loop
      vertex 108.6 6 0
      vertex 105.6 6 0
      vertex 108.6 30 0
    endloop
  endfacet
  facet normal 0 0 -1
    outer loop
      vertex 121.6 0 0
      vertex 105.6 6 0
      vertex 108.6 6 0
    endloop
  endfacet
  facet normal 0 0 -1
    outer loop
      vertex 121.6 0 0
      vertex 103.6 6 0
      vertex 105.6 6 0
    endloop
  endfacet
  facet normal 0 0 -1
    outer loop
      vertex 103.6 6 0
      vertex 100.6 6 0
      vertex 103.6 30 0
    endloop
  endfacet
  facet normal 0 0 -1
    outer loop
      vertex 121.6 0 0
      vertex 100.6 6 0
      vertex 103.6 6 0
    endloop
  endfacet
  facet normal 0 0 -1
    outer loop
      vertex 121.6 0 0
      vertex 98.6 6 0
      vertex 100.6 6 0
    endloop
  endfacet
  facet normal 0 0 -1
    outer loop
      vertex 98.6 6 0
      vertex 95.6 6 0
      vertex 98.6 30 0
    endloop
  endfacet
  facet normal 0 0 -1
    outer loop
      vertex 121.6 0 0
      vertex 95.6 6 0
      vertex 98.6 6 0
    endloop
  endfacet
  facet normal 0 0 -1
    outer loop
      vertex 121.6 0 0
      vertex 93.6 6 0
      vertex 95.6 6 0
    endloop
  endfacet
  facet normal 0 0 -1
    outer loop
      vertex 93.6 6 0
      vertex 90.6 6 0
      vertex 93.6 30 0
    endloop
  endfacet
  facet normal 0 0 -1
    outer loop
      vertex 121.6 0 0
      vertex 90.6 6 0
      vertex 93.6 6 0
    endloop
  endfacet
  facet normal 0 0 -1
    outer loop
      vertex 121.6 0 0
      vertex 88.6 6 0
      vertex 90.6 6 0
    endloop
  endfacet
  facet normal 0 0 -1
    outer loop
      vertex 88.6 6 0
      vertex 85.6 6 0
      vertex 88.6 30 0
    endloop
  endfacet
  facet normal 0 0 -1
    outer loop
      vertex 121.6 0 0
      vertex 85.6 6 0
      vertex 88.6 6 0
    endloop
  endfacet
  facet normal 0 0 -1
    outer loop
      vertex 121.6 0 0
      vertex 83.6 6 0
      vertex 85.6 6 0
    endloop
  endfacet
  facet normal 0 0 -1
    outer loop
      vertex 83.6 6 0
      vertex 80.6 6 0
      vertex 83.6 30 0
    endloop
  endfacet
  facet normal 0 0 -1
    outer loop
      vertex 121.6 0 0
      vertex 80.6 6 0
      vertex 83.6 6 0
    endloop
  endfacet
  facet normal 0 0 -1
    outer loop
      vertex 121.6 0 0
      vertex 78.6 6 0
      vertex 80.6 6 0
    endloop
  endfacet
  facet normal -0 0 -1
    outer loop
      vertex 78.6 6 0
      vertex 0 0 0
      vertex 78.6 30 0
    endloop
  endfacet
  facet normal 0 0 -1
    outer loop
      vertex 0 0 0
      vertex 78.6 6 0
      vertex 121.6 0 0
    endloop
  endfacet
  facet normal 0 0 -1
    outer loop
      vertex 115.6 30 0
      vertex 121.6 36 0
      vertex 115.6 6 0
    endloop
  endfacet
  facet normal 0 0 -1
    outer loop
      vertex 113.6 30 0
      vertex 121.6 36 0
      vertex 115.6 30 0
    endloop
  endfacet
  facet normal 0 0 -1
    outer loop
      vertex 110.6 30 0
      vertex 113.6 30 0
      vertex 110.6 6 0
    endloop
  endfacet
  facet normal 0 0 -1
    outer loop
      vertex 110.6 30 0
      vertex 121.6 36 0
      vertex 113.6 30 0
    endloop
  endfacet
  facet normal 0 0 -1
    outer loop
      vertex 108.6 30 0
      vertex 121.6 36 0
      vertex 110.6 30 0
    endloop
  endfacet
  facet normal 0 0 -1
    outer loop
      vertex 105.6 30 0
      vertex 108.6 30 0
      vertex 105.6 6 0
    endloop
  endfacet
  facet normal 0 0 -1
    outer loop
      vertex 105.6 30 0
      vertex 121.6 36 0
      vertex 108.6 30 0
    endloop
  endfacet
  facet normal 0 0 -1
    outer loop
      vertex 103.6 30 0
      vertex 121.6 36 0
      vertex 105.6 30 0
    endloop
  endfacet
  facet normal 0 0 -1
    outer loop
      vertex 100.6 30 0
      vertex 103.6 30 0
      vertex 100.6 6 0
    endloop
  endfacet
  facet normal 0 0 -1
    outer loop
      vertex 100.6 30 0
      vertex 121.6 36 0
      vertex 103.6 30 0
    endloop
  endfacet
  facet normal 0 0 -1
    outer loop
      vertex 98.6 30 0
      vertex 121.6 36 0
      vertex 100.6 30 0
    endloop
  endfacet
  facet normal 0 0 -1
    outer loop
      vertex 95.6 30 0
      vertex 98.6 30 0
      vertex 95.6 6 0
    endloop
  endfacet
  facet normal 0 0 -1
    outer loop
      vertex 95.6 30 0
      vertex 121.6 36 0
      vertex 98.6 30 0
    endloop
  endfacet
  facet normal 0 0 -1
    outer loop
      vertex 93.6 30 0
      vertex 121.6 36 0
      vertex 95.6 30 0
    endloop
  endfacet
  facet normal 0 0 -1
    outer loop
      vertex 90.6 30 0
      vertex 93.6 30 0
      vertex 90.6 6 0
    endloop
  endfacet
  facet normal 0 0 -1
    outer loop
      vertex 90.6 30 0
      vertex 121.6 36 0
      vertex 93.6 30 0
    endloop
  endfacet
  facet normal 0 0 -1
    outer loop
      vertex 88.6 30 0
      vertex 121.6 36 0
      vertex 90.6 30 0
    endloop
  endfacet
  facet normal 0 0 -1
    outer loop
      vertex 85.6 30 0
      vertex 88.6 30 0
      vertex 85.6 6 0
    endloop
  endfacet
  facet normal 0 0 -1
    outer loop
      vertex 85.6 30 0
      vertex 121.6 36 0
      vertex 88.6 30 0
    endloop
  endfacet
  facet normal 0 0 -1
    outer loop
      vertex 83.6 30 0
      vertex 121.6 36 0
      vertex 85.6 30 0
    endloop
  endfacet
  facet normal 0 0 -1
    outer loop
      vertex 80.6 30 0
      vertex 83.6 30 0
      vertex 80.6 6 0
    endloop
  endfacet
  facet normal 0 0 -1
    outer loop
      vertex 80.6 30 0
      vertex 121.6 36 0
      vertex 83.6 30 0
    endloop
  endfacet
  facet normal 0 0 -1
    outer loop
      vertex 78.6 30 0
      vertex 121.6 36 0
      vertex 80.6 30 0
    endloop
  endfacet
  facet normal 0 0 -1
    outer loop
      vertex 78.6 30 0
      vertex 0 36 0
      vertex 121.6 36 0
    endloop
  endfacet
  facet normal 0 0 -1
    outer loop
      vertex 0 36 0
      vertex 78.6 30 0
      vertex 0 0 0
    endloop
  endfacet
  facet normal 0 -1 0
    outer loop
      vertex 0 0 0
      vertex 121.6 0 1.6
      vertex 0 0 1.6
    endloop
  endfacet
  facet normal 0 -1 -0
    outer loop
      vertex 121.6 0 1.6
      vertex 0 0 0
      vertex 121.6 0 0
    endloop
  endfacet
  facet normal 0 1 -0
    outer loop
      vertex 121.6 36 0
      vertex 0 36 1.6
      vertex 121.6 36 1.6
    endloop
  endfacet
  facet normal 0 1 0
    outer loop
      vertex 0 36 1.6
      vertex 121.6 36 0
      vertex 0 36 0
    endloop
  endfacet
  facet normal 0 -0.83205 -0.5547
    outer loop
      vertex 13.2667 2 4
      vertex 27.2667 1 5.5
      vertex 13.2667 1 5.5
    endloop
  endfacet
  facet normal 0 -0.83205 -0.5547
    outer loop
      vertex 27.2667 1 5.5
      vertex 13.2667 2 4
      vertex 27.2667 2 4
    endloop
  endfacet
  facet normal 1 -0 0
    outer loop
      vertex 27.2667 5 7
      vertex 27.2667 8 1.6
      vertex 27.2667 8 7
    endloop
  endfacet
  facet normal 1 0 0
    outer loop
      vertex 27.2667 2 4
      vertex 27.2667 5 7
      vertex 27.2667 2 7
    endloop
  endfacet
  facet normal 1 0 0
    outer loop
      vertex 27.2667 5 7
      vertex 27.2667 2 4
      vertex 27.2667 8 1.6
    endloop
  endfacet
  facet normal 1 0 0
    outer loop
      vertex 27.2667 8 1.6
      vertex 27.2667 2 4
      vertex 27.2667 2 1.6
    endloop
  endfacet
  facet normal 1 0 0
    outer loop
      vertex 27.2667 2 7
      vertex 27.2667 1 5.5
      vertex 27.2667 2 4
    endloop
  endfacet
  facet normal 0 -0.83205 0.5547
    outer loop
      vertex 13.2667 1 5.5
      vertex 27.2667 2 7
      vertex 13.2667 2 7
    endloop
  endfacet
  facet normal 0 -0.83205 0.5547
    outer loop
      vertex 27.2667 2 7
      vertex 13.2667 1 5.5
      vertex 27.2667 1 5.5
    endloop
  endfacet
  facet normal -1 0 0
    outer loop
      vertex 13.2667 8 1.6
      vertex 13.2667 5 7
      vertex 13.2667 8 7
    endloop
  endfacet
  facet normal -1 0 0
    outer loop
      vertex 13.2667 2 4
      vertex 13.2667 8 1.6
      vertex 13.2667 2 1.6
    endloop
  endfacet
  facet normal -1 0 0
    outer loop
      vertex 13.2667 8 1.6
      vertex 13.2667 2 4
      vertex 13.2667 5 7
    endloop
  endfacet
  facet normal -1 0 0
    outer loop
      vertex 13.2667 2 7
      vertex 13.2667 5 7
      vertex 13.2667 2 4
    endloop
  endfacet
  facet normal -1 0 -0
    outer loop
      vertex 13.2667 2 7
      vertex 13.2667 2 4
      vertex 13.2667 1 5.5
    endloop
  endfacet
  facet normal -0 0 1
    outer loop
      vertex 13.2667 5 7
      vertex 27.2667 2 7
      vertex 27.2667 5 7
    endloop
  endfacet
  facet normal 0 0 1
    outer loop
      vertex 27.2667 2 7
      vertex 13.2667 5 7
      vertex 13.2667 2 7
    endloop
  endfacet
  facet normal -0 0 1
    outer loop
      vertex 13.2667 8 7
      vertex 27.2667 5 7
      vertex 27.2667 8 7
    endloop
  endfacet
  facet normal 0 0 1
    outer loop
      vertex 27.2667 5 7
      vertex 13.2667 8 7
      vertex 13.2667 5 7
    endloop
  endfacet
  facet normal 0 0 -1
    outer loop
      vertex 13.2667 2 1.6
      vertex 27.2667 8 1.6
      vertex 27.2667 2 1.6
    endloop
  endfacet
  facet normal -0 0 -1
    outer loop
      vertex 27.2667 8 1.6
      vertex 13.2667 2 1.6
      vertex 13.2667 8 1.6
    endloop
  endfacet
  facet normal 0 -1 0
    outer loop
      vertex 13.2667 2 1.6
      vertex 27.2667 2 4
      vertex 13.2667 2 4
    endloop
  endfacet
  facet normal 0 -1 -0
    outer loop
      vertex 27.2667 2 4
      vertex 13.2667 2 1.6
      vertex 27.2667 2 1.6
    endloop
  endfacet
  facet normal 0 1 -0
    outer loop
      vertex 27.2667 8 1.6
      vertex 13.2667 8 7
      vertex 27.2667 8 7
    endloop
  endfacet
  facet normal 0 1 0
    outer loop
      vertex 13.2667 8 7
      vertex 27.2667 8 1.6
      vertex 13.2667 8 1.6
    endloop
  endfacet
  facet normal 0 -0.83205 -0.5547
    outer loop
      vertex 53.8 2 4
      vertex 67.8 1 5.5
      vertex 53.8 1 5.5
    endloop
  endfacet
  facet normal 0 -0.83205 -0.5547
    outer loop
      vertex 67.8 1 5.5
      vertex 53.8 2 4
      vertex 67.8 2 4
    endloop
  endfacet
  facet normal 1 -0 0
    outer loop
      vertex 67.8 5 7
      vertex 67.8 8 1.6
      vertex 67.8 8 7
    endloop
  endfacet
  facet normal 1 0 0
    outer loop
      vertex 67.8 2 4
      vertex 67.8 5 7
      vertex 67.8 2 7
    endloop
  endfacet
  facet normal 1 0 0
    outer loop
      vertex 67.8 5 7
      vertex 67.8 2 4
      vertex 67.8 8 1.6
    endloop
  endfacet
  facet normal 1 0 0
    outer loop
      vertex 67.8 8 1.6
      vertex 67.8 2 4
      vertex 67.8 2 1.6
    endloop
  endfacet
  facet normal 1 0 0
    outer loop
      vertex 67.8 2 7
      vertex 67.8 1 5.5
      vertex 67.8 2 4
    endloop
  endfacet
  facet normal 0 -0.83205 0.5547
    outer loop
      vertex 53.8 1 5.5
      vertex 67.8 2 7
      vertex 53.8 2 7
    endloop
  endfacet
  facet normal 0 -0.83205 0.5547
    outer loop
      vertex 67.8 2 7
      vertex 53.8 1 5.5
      vertex 67.8 1 5.5
    endloop
  endfacet
  facet normal -1 0 0
    outer loop
      vertex 53.8 8 1.6
      vertex 53.8 5 7
      vertex 53.8 8 7
    endloop
  endfacet
  facet normal -1 0 0
    outer loop
      vertex 53.8 2 4
      vertex 53.8 8 1.6
      vertex 53.8 2 1.6
    endloop
  endfacet
  facet normal -1 0 0
    outer loop
      vertex 53.8 8 1.6
      vertex 53.8 2 4
      vertex 53.8 5 7
    endloop
  endfacet
  facet normal -1 0 0
    outer loop
      vertex 53.8 2 7
      vertex 53.8 5 7
      vertex 53.8 2 4
    endloop
  endfacet
  facet normal -1 0 -0
    outer loop
      vertex 53.8 2 7
      vertex 53.8 2 4
      vertex 53.8 1 5.5
    endloop
  endfacet
  facet normal -0 0 1
    outer loop
      vertex 53.8 5 7
      vertex 67.8 2 7
      vertex 67.8 5 7
    endloop
  endfacet
  facet normal 0 0 1
    outer loop
      vertex 67.8 2 7
      vertex 53.8 5 7
      vertex 53.8 2 7
    endloop
  endfacet
  facet normal -0 0 1
    outer loop
      vertex 53.8 8 7
      vertex 67.8 5 7
      vertex 67.8 8 7
    endloop
  endfacet
  facet normal 0 0 1
    outer loop
      vertex 67.8 5 7
      vertex 53.8 8 7
      vertex 53.8 5 7
    endloop
  endfacet
  facet normal 0 0 -1
    outer loop
      vertex 53.8 2 1.6
      vertex 67.8 8 1.6
      vertex 67.8 2 1.6
    endloop
  endfacet
  facet normal -0 0 -1
    outer loop
      vertex 67.8 8 1.6
      vertex 53.8 2 1.6
      vertex 53.8 8 1.6
    endloop
  endfacet
  facet normal 0 -1 0
    outer loop
      vertex 53.8 2 1.6
      vertex 67.8 2 4
      vertex 53.8 2 4
    endloop
  endfacet
  facet normal 0 -1 -0
    outer loop
      vertex 67.8 2 4
      vertex 53.8 2 1.6
      vertex 67.8 2 1.6
    endloop
  endfacet
  facet normal 0 1 -0
    outer loop
      vertex 67.8 8 1.6
      vertex 53.8 8 7
      vertex 67.8 8 7
    endloop
  endfacet
  facet normal 0 1 0
    outer loop
      vertex 53.8 8 7
      vertex 67.8 8 1.6
      vertex 53.8 8 1.6
    endloop
  endfacet
  facet normal 0 -0.83205 -0.5547
    outer loop
      vertex 94.3333 2 4
      vertex 108.333 1 5.5
      vertex 94.3333 1 5.5
    endloop
  endfacet
  facet normal 0 -0.83205 -0.5547
    outer loop
      vertex 108.333 1 5.5
      vertex 94.3333 2 4
      vertex 108.333 2 4
    endloop
  endfacet
  facet normal 1 -0 0
    outer loop
      vertex 108.333 5 7
      vertex 108.333 8 1.6
      vertex 108.333 8 7
    endloop
  endfacet
  facet normal 1 0 0
    outer loop
      vertex 108.333 2 4
      vertex 108.333 5 7
      vertex 108.333 2 7
    endloop
  endfacet
  facet normal 1 0 0
    outer loop
      vertex 108.333 5 7
      vertex 108.333 2 4
      vertex 108.333 8 1.6
    endloop
  endfacet
  facet normal 1 0 0
    outer loop
      vertex 108.333 8 1.6
      vertex 108.333 2 4
      vertex 108.333 2 1.6
    endloop
  endfacet
  facet normal 1 0 0
    outer loop
      vertex 108.333 2 7
      vertex 108.333 1 5.5
      vertex 108.333 2 4
    endloop
  endfacet
  facet normal 0 -0.83205 0.5547
    outer loop
      vertex 94.3333 1 5.5
      vertex 108.333 2 7
      vertex 94.3333 2 7
    endloop
  endfacet
  facet normal 0 -0.83205 0.5547
    outer loop
      vertex 108.333 2 7
      vertex 94.3333 1 5.5
      vertex 108.333 1 5.5
    endloop
  endfacet
  facet normal -1 0 0
    outer loop
      vertex 94.3333 8 1.6
      vertex 94.3333 5 7
      vertex 94.3333 8 7
    endloop
  endfacet
  facet normal -1 0 0
    outer loop
      vertex 94.3333 2 4
      vertex 94.3333 8 1.6
      vertex 94.3333 2 1.6
    endloop
  endfacet
  facet normal -1 0 0
    outer loop
      vertex 94.3333 8 1.6
      vertex 94.3333 2 4
      vertex 94.3333 5 7
    endloop
  endfacet
  facet normal -1 0 0
    outer loop
      vertex 94.3333 2 7
      vertex 94.3333 5 7
      vertex 94.3333 2 4
    endloop
  endfacet
  facet normal -1 0 -0
    outer loop
      vertex 94.3333 2 7
      vertex 94.3333 2 4
      vertex 94.3333 1 5.5
    endloop
  endfacet
  facet normal -0 0 1
    outer loop
      vertex 94.3333 5 7
      vertex 108.333 2 7
      vertex 108.333 5 7
    endloop
  endfacet
  facet normal 0 0 1
    outer loop
      vertex 108.333 2 7
      vertex 94.3333 5 7
      vertex 94.3333 2 7
    endloop
  endfacet
  facet normal -0 0 1
    outer loop
      vertex 94.3333 8 7
      vertex 108.333 5 7
      vertex 108.333 8 7
    endloop
  endfacet
  facet normal 0 0 1
    outer loop
      vertex 108.333 5 7
      vertex 94.3333 8 7
      vertex 94.3333 5 7
    endloop
  endfacet
  facet normal 0 0 -1
    outer loop
      vertex 94.3333 2 1.6
      vertex 108.333 8 1.6
      vertex 108.333 2 1.6
    endloop
  endfacet
  facet normal -0 0 -1
    outer loop
      vertex 108.333 8 1.6
      vertex 94.3333 2 1.6
      vertex 94.3333 8 1.6
    endloop
  endfacet
  facet normal 0 -1 0
    outer loop
      vertex 94.3333 2 1.6
      vertex 108.333 2 4
      vertex 94.3333 2 4
    endloop
  endfacet
  facet normal 0 -1 -0
    outer loop
      vertex 108.333 2 4
      vertex 94.3333 2 1.6
      vertex 108.333 2 1.6
    endloop
  endfacet
  facet normal 0 1 -0
    outer loop
      vertex 108.333 8 1.6
      vertex 94.3333 8 7
      vertex 108.333 8 7
    endloop
  endfacet
  facet normal 0 1 0
    outer loop
      vertex 94.3333 8 7
      vertex 108.333 8 1.6
      vertex 94.3333 8 1.6
    endloop
  endfacet
  facet normal 0 0.83205 -0.5547
    outer loop
      vertex 27.2667 34 4
      vertex 13.2667 35 5.5
      vertex 27.2667 35 5.5
    endloop
  endfacet
  facet normal 0 0.83205 -0.5547
    outer loop
      vertex 13.2667 35 5.5
      vertex 27.2667 34 4
      vertex 13.2667 34 4
    endloop
  endfacet
  facet normal 1 0 0
    outer loop
      vertex 27.2667 34 7
      vertex 27.2667 34 4
      vertex 27.2667 35 5.5
    endloop
  endfacet
  facet normal 1 -0 0
    outer loop
      vertex 27.2667 31 7
      vertex 27.2667 34 4
      vertex 27.2667 34 7
    endloop
  endfacet
  facet normal 1 0 0
    outer loop
      vertex 27.2667 28 1.6
      vertex 27.2667 34 4
      vertex 27.2667 31 7
    endloop
  endfacet
  facet normal 1 0 0
    outer loop
      vertex 27.2667 28 1.6
      vertex 27.2667 31 7
      vertex 27.2667 28 7
    endloop
  endfacet
  facet normal 1 0 0
    outer loop
      vertex 27.2667 34 4
      vertex 27.2667 28 1.6
      vertex 27.2667 34 1.6
    endloop
  endfacet
  facet normal 0 0.83205 0.5547
    outer loop
      vertex 27.2667 35 5.5
      vertex 13.2667 34 7
      vertex 27.2667 34 7
    endloop
  endfacet
  facet normal 0 0.83205 0.5547
    outer loop
      vertex 13.2667 34 7
      vertex 27.2667 35 5.5
      vertex 13.2667 35 5.5
    endloop
  endfacet
  facet normal -1 0 0
    outer loop
      vertex 13.2667 28 1.6
      vertex 13.2667 34 4
      vertex 13.2667 34 1.6
    endloop
  endfacet
  facet normal -1 0 0
    outer loop
      vertex 13.2667 34 4
      vertex 13.2667 31 7
      vertex 13.2667 34 7
    endloop
  endfacet
  facet normal -1 -0 0
    outer loop
      vertex 13.2667 34 4
      vertex 13.2667 28 1.6
      vertex 13.2667 31 7
    endloop
  endfacet
  facet normal -1 -0 0
    outer loop
      vertex 13.2667 31 7
      vertex 13.2667 28 1.6
      vertex 13.2667 28 7
    endloop
  endfacet
  facet normal -1 -0 0
    outer loop
      vertex 13.2667 35 5.5
      vertex 13.2667 34 4
      vertex 13.2667 34 7
    endloop
  endfacet
  facet normal -0 0 1
    outer loop
      vertex 13.2667 34 7
      vertex 27.2667 31 7
      vertex 27.2667 34 7
    endloop
  endfacet
  facet normal 0 0 1
    outer loop
      vertex 27.2667 31 7
      vertex 13.2667 34 7
      vertex 13.2667 31 7
    endloop
  endfacet
  facet normal -0 0 1
    outer loop
      vertex 13.2667 31 7
      vertex 27.2667 28 7
      vertex 27.2667 31 7
    endloop
  endfacet
  facet normal 0 0 1
    outer loop
      vertex 27.2667 28 7
      vertex 13.2667 31 7
      vertex 13.2667 28 7
    endloop
  endfacet
  facet normal 0 0 -1
    outer loop
      vertex 13.2667 28 1.6
      vertex 27.2667 34 1.6
      vertex 27.2667 28 1.6
    endloop
  endfacet
  facet normal -0 0 -1
    outer loop
      vertex 27.2667 34 1.6
      vertex 13.2667 28 1.6
      vertex 13.2667 34 1.6
    endloop
  endfacet
  facet normal 0 1 -0
    outer loop
      vertex 27.2667 34 1.6
      vertex 13.2667 34 4
      vertex 27.2667 34 4
    endloop
  endfacet
  facet normal 0 1 0
    outer loop
      vertex 13.2667 34 4
      vertex 27.2667 34 1.6
      vertex 13.2667 34 1.6
    endloop
  endfacet
  facet normal 0 -1 0
    outer loop
      vertex 13.2667 28 1.6
      vertex 27.2667 28 7
      vertex 13.2667 28 7
    endloop
  endfacet
  facet normal 0 -1 -0
    outer loop
      vertex 27.2667 28 7
      vertex 13.2667 28 1.6
      vertex 27.2667 28 1.6
    endloop
  endfacet
  facet normal 0 0.83205 -0.5547
    outer loop
      vertex 67.8 34 4
      vertex 53.8 35 5.5
      vertex 67.8 35 5.5
    endloop
  endfacet
  facet normal 0 0.83205 -0.5547
    outer loop
      vertex 53.8 35 5.5
      vertex 67.8 34 4
      vertex 53.8 34 4
    endloop
  endfacet
  facet normal 1 0 0
    outer loop
      vertex 67.8 34 7
      vertex 67.8 34 4
      vertex 67.8 35 5.5
    endloop
  endfacet
  facet normal 1 -0 0
    outer loop
      vertex 67.8 31 7
      vertex 67.8 34 4
      vertex 67.8 34 7
    endloop
  endfacet
  facet normal 1 0 0
    outer loop
      vertex 67.8 28 1.6
      vertex 67.8 34 4
      vertex 67.8 31 7
    endloop
  endfacet
  facet normal 1 0 0
    outer loop
      vertex 67.8 28 1.6
      vertex 67.8 31 7
      vertex 67.8 28 7
    endloop
  endfacet
  facet normal 1 0 0
    outer loop
      vertex 67.8 34 4
      vertex 67.8 28 1.6
      vertex 67.8 34 1.6
    endloop
  endfacet
  facet normal 0 0.83205 0.5547
    outer loop
      vertex 67.8 35 5.5
      vertex 53.8 34 7
      vertex 67.8 34 7
    endloop
  endfacet
  facet normal 0 0.83205 0.5547
    outer loop
      vertex 53.8 34 7
      vertex 67.8 35 5.5
      vertex 53.8 35 5.5
    endloop
  endfacet
  facet normal -1 0 0
    outer loop
      vertex 53.8 28 1.6
      vertex 53.8 34 4
      vertex 53.8 34 1.6
    endloop
  endfacet
  facet normal -1 0 0
    outer loop
      vertex 53.8 34 4
      vertex 53.8 31 7
      vertex 53.8 34 7
    endloop
  endfacet
  facet normal -1 -0 0
    outer loop
      vertex 53.8 34 4
      vertex 53.8 28 1.6
      vertex 53.8 31 7
    endloop
  endfacet
  facet normal -1 -0 0
    outer loop
      vertex 53.8 31 7
      vertex 53.8 28 1.6
      vertex 53.8 28 7
    endloop
  endfacet
  facet normal -1 -0 0
    outer loop
      vertex 53.8 35 5.5
      vertex 53.8 34 4
      vertex 53.8 34 7
    endloop
  endfacet
  facet normal -0 0 1
    outer loop
      vertex 53.8 34 7
      vertex 67.8 31 7
      vertex 67.8 34 7
    endloop
  endfacet
  facet normal 0 0 1
    outer loop
      vertex 67.8 31 7
      vertex 53.8 34 7
      vertex 53.8 31 7
    endloop
  endfacet
  facet normal -0 0 1
    outer loop
      vertex 53.8 31 7
      vertex 67.8 28 7
      vertex 67.8 31 7
    endloop
  endfacet
  facet normal 0 0 1
    outer loop
      vertex 67.8 28 7
      vertex 53.8 31 7
      vertex 53.8 28 7
    endloop
  endfacet
  facet normal 0 0 -1
    outer loop
      vertex 53.8 28 1.6
      vertex 67.8 34 1.6
      vertex 67.8 28 1.6
    endloop
  endfacet
  facet normal -0 0 -1
    outer loop
      vertex 67.8 34 1.6
      vertex 53.8 28 1.6
      vertex 53.8 34 1.6
    endloop
  endfacet
  facet normal 0 1 -0
    outer loop
      vertex 67.8 34 1.6
      vertex 53.8 34 4
      vertex 67.8 34 4
    endloop
  endfacet
  facet normal 0 1 0
    outer loop
      vertex 53.8 34 4
      vertex 67.8 34 1.6
      vertex 53.8 34 1.6
    endloop
  endfacet
  facet normal 0 -1 0
    outer loop
      vertex 53.8 28 1.6
      vertex 67.8 28 7
      vertex 53.8 28 7
    endloop
  endfacet
  facet normal 0 -1 -0
    outer loop
      vertex 67.8 28 7
      vertex 53.8 28 1.6
      vertex 67.8 28 1.6
    endloop
  endfacet
  facet normal 0 0.83205 -0.5547
    outer loop
      vertex 108.333 34 4
      vertex 94.3333 35 5.5
      vertex 108.333 35 5.5
    endloop
  endfacet
  facet normal 0 0.83205 -0.5547
    outer loop
      vertex 94.3333 35 5.5
      vertex 108.333 34 4
      vertex 94.3333 34 4
    endloop
  endfacet
  facet normal 1 0 0
    outer loop
      vertex 108.333 34 7
      vertex 108.333 34 4
      vertex 108.333 35 5.5
    endloop
  endfacet
  facet normal 1 -0 0
    outer loop
      vertex 108.333 31 7
      vertex 108.333 34 4
      vertex 108.333 34 7
    endloop
  endfacet
  facet normal 1 0 0
    outer loop
      vertex 108.333 28 1.6
      vertex 108.333 34 4
      vertex 108.333 31 7
    endloop
  endfacet
  facet normal 1 0 0
    outer loop
      vertex 108.333 28 1.6
      vertex 108.333 31 7
      vertex 108.333 28 7
    endloop
  endfacet
  facet normal 1 0 0
    outer loop
      vertex 108.333 34 4
      vertex 108.333 28 1.6
      vertex 108.333 34 1.6
    endloop
  endfacet
  facet normal 0 0.83205 0.5547
    outer loop
      vertex 108.333 35 5.5
      vertex 94.3333 34 7
      vertex 108.333 34 7
    endloop
  endfacet
  facet normal 0 0.83205 0.5547
    outer loop
      vertex 94.3333 34 7
      vertex 108.333 35 5.5
      vertex 94.3333 35 5.5
    endloop
  endfacet
  facet normal -1 0 0
    outer loop
      vertex 94.3333 28 1.6
      vertex 94.3333 34 4
      vertex 94.3333 34 1.6
    endloop
  endfacet
  facet normal -1 0 0
    outer loop
      vertex 94.3333 34 4
      vertex 94.3333 31 7
      vertex 94.3333 34 7
    endloop
  endfacet
  facet normal -1 -0 0
    outer loop
      vertex 94.3333 34 4
      vertex 94.3333 28 1.6
      vertex 94.3333 31 7
    endloop
  endfacet
  facet normal -1 -0 0
    outer loop
      vertex 94.3333 31 7
      vertex 94.3333 28 1.6
      vertex 94.3333 28 7
    endloop
  endfacet
  facet normal -1 -0 0
    outer loop
      vertex 94.3333 35 5.5
      vertex 94.3333 34 4
      vertex 94.3333 34 7
    endloop
  endfacet
  facet normal -0 0 1
    outer loop
      vertex 94.3333 34 7
      vertex 108.333 31 7
      vertex 108.333 34 7
    endloop
  endfacet
  facet normal 0 0 1
    outer loop
      vertex 108.333 31 7
      vertex 94.3333 34 7
      vertex 94.3333 31 7
    endloop
  endfacet
  facet normal -0 0 1
    outer loop
      vertex 94.3333 31 7
      vertex 108.333 28 7
      vertex 108.333 31 7
    endloop
  endfacet
  facet normal 0 0 1
    outer loop
      vertex 108.333 28 7
      vertex 94.3333 31 7
      vertex 94.3333 28 7
    endloop
  endfacet
  facet normal 0 0 -1
    outer loop
      vertex 94.3333 28 1.6
      vertex 108.333 34 1.6
      vertex 108.333 28 1.6
    endloop
  endfacet
  facet normal -0 0 -1
    outer loop
      vertex 108.333 34 1.6
      vertex 94.3333 28 1.6
      vertex 94.3333 34 1.6
    endloop
  endfacet
  facet normal 0 1 -0
    outer loop
      vertex 108.333 34 1.6
      vertex 94.3333 34 4
      vertex 108.333 34 4
    endloop
  endfacet
  facet normal 0 1 0
    outer loop
      vertex 94.3333 34 4
      vertex 108.333 34 1.6
      vertex 94.3333 34 1.6
    endloop
  endfacet
  facet normal 0 -1 0
    outer loop
      vertex 94.3333 28 1.6
      vertex 108.333 28 7
      vertex 94.3333 28 7
    endloop
  endfacet
  facet normal 0 -1 -0
    outer loop
      vertex 108.333 28 7
      vertex 94.3333 28 1.6
      vertex 108.333 28 1.6
    endloop
  endfacet
endsolid OpenSCAD_Model
