solid OpenSCAD_Model
  facet normal 1 -0 0
    outer loop
      vertex 77.6 5.5 1.5
      vertex 77.6 29.5 0
      vertex 77.6 29.5 1.5
    endloop
  endfacet
  facet normal 1 0 0
    outer loop
      vertex 77.6 29.5 0
      vertex 77.6 5.5 1.5
      vertex 77.6 5.5 0
    endloop
  endfacet
  facet normal 0 -1 0
    outer loop
      vertex 77.6 29.5 0
      vertex 79.6 29.5 1.5
      vertex 77.6 29.5 1.5
    endloop
  endfacet
  facet normal 0 -1 -0
    outer loop
      vertex 79.6 29.5 1.5
      vertex 77.6 29.5 0
      vertex 79.6 29.5 0
    endloop
  endfacet
  facet normal -1 0 0
    outer loop
      vertex 79.6 5.5 0
      vertex 79.6 29.5 1.5
      vertex 79.6 29.5 0
    endloop
  endfacet
  facet normal -1 -0 0
    outer loop
      vertex 79.6 29.5 1.5
      vertex 79.6 5.5 0
      vertex 79.6 5.5 1.5
    endloop
  endfacet
  facet normal 0 1 -0
    outer loop
      vertex 79.6 5.5 0
      vertex 77.6 5.5 1.5
      vertex 79.6 5.5 1.5
    endloop
  endfacet
  facet normal 0 1 0
    outer loop
      vertex 77.6 5.5 1.5
      vertex 79.6 5.5 0
      vertex 77.6 5.5 0
    endloop
  endfacet
  facet normal 1 -0 0
    outer loop
      vertex 82.6 5.5 1.5
      vertex 82.6 29.5 0
      vertex 82.6 29.5 1.5
    endloop
  endfacet
  facet normal 1 0 0
    outer loop
      vertex 82.6 29.5 0
      vertex 82.6 5.5 1.5
      vertex 82.6 5.5 0
    endloop
  endfacet
  facet normal 0 -1 0
    outer loop
      vertex 82.6 29.5 0
      vertex 84.6 29.5 1.5
      vertex 82.6 29.5 1.5
    endloop
  endfacet
  facet normal 0 -1 -0
    outer loop
      vertex 84.6 29.5 1.5
      vertex 82.6 29.5 0
      vertex 84.6 29.5 0
    endloop
  endfacet
  facet normal -1 0 0
    outer loop
      vertex 84.6 5.5 0
      vertex 84.6 29.5 1.5
      vertex 84.6 29.5 0
    endloop
  endfacet
  facet normal -1 -0 0
    outer loop
      vertex 84.6 29.5 1.5
      vertex 84.6 5.5 0
      vertex 84.6 5.5 1.5
    endloop
  endfacet
  facet normal 0 1 -0
    outer loop
      vertex 84.6 5.5 0
      vertex 82.6 5.5 1.5
      vertex 84.6 5.5 1.5
    endloop
  endfacet
  facet normal 0 1 0
    outer loop
      vertex 82.6 5.5 1.5
      vertex 84.6 5.5 0
      vertex 82.6 5.5 0
    endloop
  endfacet
  facet normal 1 -0 0
    outer loop
      vertex 87.6 5.5 1.5
      vertex 87.6 29.5 0
      vertex 87.6 29.5 1.5
    endloop
  endfacet
  facet normal 1 0 0
    outer loop
      vertex 87.6 29.5 0
      vertex 87.6 5.5 1.5
      vertex 87.6 5.5 0
    endloop
  endfacet
  facet normal 0 -1 0
    outer loop
      vertex 87.6 29.5 0
      vertex 89.6 29.5 1.5
      vertex 87.6 29.5 1.5
    endloop
  endfacet
  facet normal 0 -1 -0
    outer loop
      vertex 89.6 29.5 1.5
      vertex 87.6 29.5 0
      vertex 89.6 29.5 0
    endloop
  endfacet
  facet normal -1 0 0
    outer loop
      vertex 89.6 5.5 0
      vertex 89.6 29.5 1.5
      vertex 89.6 29.5 0
    endloop
  endfacet
  facet normal -1 -0 0
    outer loop
      vertex 89.6 29.5 1.5
      vertex 89.6 5.5 0
      vertex 89.6 5.5 1.5
    endloop
  endfacet
  facet normal 0 1 -0
    outer loop
      vertex 89.6 5.5 0
      vertex 87.6 5.5 1.5
      vertex 89.6 5.5 1.5
    endloop
  endfacet
  facet normal 0 1 0
    outer loop
      vertex 87.6 5.5 1.5
      vertex 89.6 5.5 0
      vertex 87.6 5.5 0
    endloop
  endfacet
  facet normal 1 -0 0
    outer loop
      vertex 92.6 5.5 1.5
      vertex 92.6 29.5 0
      vertex 92.6 29.5 1.5
    endloop
  endfacet
  facet normal 1 0 0
    outer loop
      vertex 92.6 29.5 0
      vertex 92.6 5.5 1.5
      vertex 92.6 5.5 0
    endloop
  endfacet
  facet normal 0 -1 0
    outer loop
      vertex 92.6 29.5 0
      vertex 94.6 29.5 1.5
      vertex 92.6 29.5 1.5
    endloop
  endfacet
  facet normal 0 -1 -0
    outer loop
      vertex 94.6 29.5 1.5
      vertex 92.6 29.5 0
      vertex 94.6 29.5 0
    endloop
  endfacet
  facet normal -1 0 0
    outer loop
      vertex 94.6 5.5 0
      vertex 94.6 29.5 1.5
      vertex 94.6 29.5 0
    endloop
  endfacet
  facet normal -1 -0 0
    outer loop
      vertex 94.6 29.5 1.5
      vertex 94.6 5.5 0
      vertex 94.6 5.5 1.5
    endloop
  endfacet
  facet normal 0 1 -0
    outer loop
      vertex 94.6 5.5 0
      vertex 92.6 5.5 1.5
      vertex 94.6 5.5 1.5
    endloop
  endfacet
  facet normal 0 1 0
    outer loop
      vertex 92.6 5.5 1.5
      vertex 94.6 5.5 0
      vertex 92.6 5.5 0
    endloop
  endfacet
  facet normal 1 -0 0
    outer loop
      vertex 97.6 5.5 1.5
      vertex 97.6 29.5 0
      vertex 97.6 29.5 1.5
    endloop
  endfacet
  facet normal 1 0 0
    outer loop
      vertex 97.6 29.5 0
      vertex 97.6 5.5 1.5
      vertex 97.6 5.5 0
    endloop
  endfacet
  facet normal 0 -1 0
    outer loop
      vertex 97.6 29.5 0
      vertex 99.6 29.5 1.5
      vertex 97.6 29.5 1.5
    endloop
  endfacet
  facet normal 0 -1 -0
    outer loop
      vertex 99.6 29.5 1.5
      vertex 97.6 29.5 0
      vertex 99.6 29.5 0
    endloop
  endfacet
  facet normal -1 0 0
    outer loop
      vertex 99.6 5.5 0
      vertex 99.6 29.5 1.5
      vertex 99.6 29.5 0
    endloop
  endfacet
  facet normal -1 -0 0
    outer loop
      vertex 99.6 29.5 1.5
      vertex 99.6 5.5 0
      vertex 99.6 5.5 1.5
    endloop
  endfacet
  facet normal 0 1 -0
    outer loop
      vertex 99.6 5.5 0
      vertex 97.6 5.5 1.5
      vertex 99.6 5.5 1.5
    endloop
  endfacet
  facet normal 0 1 0
    outer loop
      vertex 97.6 5.5 1.5
      vertex 99.6 5.5 0
      vertex 97.6 5.5 0
    endloop
  endfacet
  facet normal 1 -0 0
    outer loop
      vertex 102.6 5.5 1.5
      vertex 102.6 29.5 0
      vertex 102.6 29.5 1.5
    endloop
  endfacet
  facet normal 1 0 0
    outer loop
      vertex 102.6 29.5 0
      vertex 102.6 5.5 1.5
      vertex 102.6 5.5 0
    endloop
  endfacet
  facet normal 0 -1 0
    outer loop
      vertex 102.6 29.5 0
      vertex 104.6 29.5 1.5
      vertex 102.6 29.5 1.5
    endloop
  endfacet
  facet normal 0 -1 -0
    outer loop
      vertex 104.6 29.5 1.5
      vertex 102.6 29.5 0
      vertex 104.6 29.5 0
    endloop
  endfacet
  facet normal -1 0 0
    outer loop
      vertex 104.6 5.5 0
      vertex 104.6 29.5 1.5
      vertex 104.6 29.5 0
    endloop
  endfacet
  facet normal -1 -0 0
    outer loop
      vertex 104.6 29.5 1.5
      vertex 104.6 5.5 0
      vertex 104.6 5.5 1.5
    endloop
  endfacet
  facet normal 0 1 -0
    outer loop
      vertex 104.6 5.5 0
      vertex 102.6 5.5 1.5
      vertex 104.6 5.5 1.5
    endloop
  endfacet
  facet normal 0 1 0
    outer loop
      vertex 102.6 5.5 1.5
      vertex 104.6 5.5 0
      vertex 102.6 5.5 0
    endloop
  endfacet
  facet normal 1 -0 0
    outer loop
      vertex 107.6 5.5 1.5
      vertex 107.6 29.5 0
      vertex 107.6 29.5 1.5
    endloop
  endfacet
  facet normal 1 0 0
    outer loop
      vertex 107.6 29.5 0
      vertex 107.6 5.5 1.5
      vertex 107.6 5.5 0
    endloop
  endfacet
  facet normal 0 -1 0
    outer loop
      vertex 107.6 29.5 0
      vertex 109.6 29.5 1.5
      vertex 107.6 29.5 1.5
    endloop
  endfacet
  facet normal 0 -1 -0
    outer loop
      vertex 109.6 29.5 1.5
      vertex 107.6 29.5 0
      vertex 109.6 29.5 0
    endloop
  endfacet
  facet normal -1 0 0
    outer loop
      vertex 109.6 5.5 0
      vertex 109.6 29.5 1.5
      vertex 109.6 29.5 0
    endloop
  endfacet
  facet normal -1 -0 0
    outer loop
      vertex 109.6 29.5 1.5
      vertex 109.6 5.5 0
      vertex 109.6 5.5 1.5
    endloop
  endfacet
  facet normal 0 1 -0
    outer loop
      vertex 109.6 5.5 0
      vertex 107.6 5.5 1.5
      vertex 109.6 5.5 1.5
    endloop
  endfacet
  facet normal 0 1 0
    outer loop
      vertex 107.6 5.5 1.5
      vertex 109.6 5.5 0
      vertex 107.6 5.5 0
    endloop
  endfacet
  facet normal 1 -0 0
    outer loop
      vertex 112.6 5.5 1.5
      vertex 112.6 29.5 0
      vertex 112.6 29.5 1.5
    endloop
  endfacet
  facet normal 1 0 0
    outer loop
      vertex 112.6 29.5 0
      vertex 112.6 5.5 1.5
      vertex 112.6 5.5 0
    endloop
  endfacet
  facet normal 0 -1 0
    outer loop
      vertex 112.6 29.5 0
      vertex 114.6 29.5 1.5
      vertex 112.6 29.5 1.5
    endloop
  endfacet
  facet normal 0 -1 -0
    outer loop
      vertex 114.6 29.5 1.5
      vertex 112.6 29.5 0
      vertex 114.6 29.5 0
    endloop
  endfacet
  facet normal -1 0 0
    outer loop
      vertex 114.6 5.5 0
      vertex 114.6 29.5 1.5
      vertex 114.6 29.5 0
    endloop
  endfacet
  facet normal -1 -0 0
    outer loop
      vertex 114.6 29.5 1.5
      vertex 114.6 5.5 0
      vertex 114.6 5.5 1.5
    endloop
  endfacet
  facet normal 0 1 -0
    outer loop
      vertex 114.6 5.5 0
      vertex 112.6 5.5 1.5
      vertex 114.6 5.5 1.5
    endloop
  endfacet
  facet normal 0 1 0
    outer loop
      vertex 112.6 5.5 1.5
      vertex 114.6 5.5 0
      vertex 112.6 5.5 0
    endloop
  endfacet
  facet normal -1 0 0
    outer loop
      vertex 0 0 0
      vertex 0 35 4.5
      vertex 0 35 0
    endloop
  endfacet
  facet normal -1 -0 0
    outer loop
      vertex 0 35 4.5
      vertex 0 0 0
      vertex 0 0 4.5
    endloop
  endfacet
  facet normal 0 0 1
    outer loop
      vertex 25.01 35.9 4.5
      vertex 13.51 35.9 4.5
      vertex 25.01 35 4.5
    endloop
  endfacet
  facet normal 0 0 1
    outer loop
      vertex 66.17 35.9 4.5
      vertex 54.67 35.9 4.5
      vertex 66.17 35 4.5
    endloop
  endfacet
  facet normal 0 0 1
    outer loop
      vertex 107.33 35.9 4.5
      vertex 95.83 35.9 4.5
      vertex 107.33 35 4.5
    endloop
  endfacet
  facet normal 0 0 1
    outer loop
      vertex 120.6 35 4.5
      vertex 119.1 33.5 4.5
      vertex 120.6 0 4.5
    endloop
  endfacet
  facet normal -0 0 1
    outer loop
      vertex 107.33 35 4.5
      vertex 119.1 33.5 4.5
      vertex 120.6 35 4.5
    endloop
  endfacet
  facet normal 0 0 1
    outer loop
      vertex 95.83 35 4.5
      vertex 107.33 35 4.5
      vertex 95.83 35.9 4.5
    endloop
  endfacet
  facet normal 0 0 1
    outer loop
      vertex 107.33 35 4.5
      vertex 95.83 35 4.5
      vertex 119.1 33.5 4.5
    endloop
  endfacet
  facet normal -0 0 1
    outer loop
      vertex 66.17 35 4.5
      vertex 119.1 33.5 4.5
      vertex 95.83 35 4.5
    endloop
  endfacet
  facet normal 0 0 1
    outer loop
      vertex 54.67 35 4.5
      vertex 66.17 35 4.5
      vertex 54.67 35.9 4.5
    endloop
  endfacet
  facet normal -0 0 1
    outer loop
      vertex 54.67 35 4.5
      vertex 119.1 33.5 4.5
      vertex 66.17 35 4.5
    endloop
  endfacet
  facet normal 0 0 1
    outer loop
      vertex 1.5 33.5 4.5
      vertex 54.67 35 4.5
      vertex 25.01 35 4.5
    endloop
  endfacet
  facet normal 0 0 1
    outer loop
      vertex 13.51 35 4.5
      vertex 25.01 35 4.5
      vertex 13.51 35.9 4.5
    endloop
  endfacet
  facet normal 0 0 1
    outer loop
      vertex 1.5 33.5 4.5
      vertex 25.01 35 4.5
      vertex 13.51 35 4.5
    endloop
  endfacet
  facet normal 0 0 1
    outer loop
      vertex 54.67 35 4.5
      vertex 1.5 33.5 4.5
      vertex 119.1 33.5 4.5
    endloop
  endfacet
  facet normal 0 0 1
    outer loop
      vertex 1.5 33.5 4.5
      vertex 0 35 4.5
      vertex 1.5 1.5 4.5
    endloop
  endfacet
  facet normal -0 0 1
    outer loop
      vertex 0 35 4.5
      vertex 1.5 33.5 4.5
      vertex 13.51 35 4.5
    endloop
  endfacet
  facet normal -0 0 1
    outer loop
      vertex 119.1 1.5 4.5
      vertex 120.6 0 4.5
      vertex 119.1 33.5 4.5
    endloop
  endfacet
  facet normal 0 0 1
    outer loop
      vertex 119.1 1.5 4.5
      vertex 107.33 0 4.5
      vertex 120.6 0 4.5
    endloop
  endfacet
  facet normal 0 0 1
    outer loop
      vertex 107.33 0 4.5
      vertex 95.83 0 4.5
      vertex 107.33 -0.9 4.5
    endloop
  endfacet
  facet normal 0 0 1
    outer loop
      vertex 119.1 1.5 4.5
      vertex 95.83 0 4.5
      vertex 107.33 0 4.5
    endloop
  endfacet
  facet normal 0 0 1
    outer loop
      vertex 119.1 1.5 4.5
      vertex 66.17 0 4.5
      vertex 95.83 0 4.5
    endloop
  endfacet
  facet normal 0 0 1
    outer loop
      vertex 66.17 0 4.5
      vertex 54.67 0 4.5
      vertex 66.17 -0.9 4.5
    endloop
  endfacet
  facet normal 0 0 1
    outer loop
      vertex 119.1 1.5 4.5
      vertex 54.67 0 4.5
      vertex 66.17 0 4.5
    endloop
  endfacet
  facet normal -0 0 1
    outer loop
      vertex 1.5 1.5 4.5
      vertex 54.67 0 4.5
      vertex 119.1 1.5 4.5
    endloop
  endfacet
  facet normal 0 0 1
    outer loop
      vertex 25.01 0 4.5
      vertex 13.51 0 4.5
      vertex 25.01 -0.9 4.5
    endloop
  endfacet
  facet normal 0 0 1
    outer loop
      vertex 54.67 0 4.5
      vertex 1.5 1.5 4.5
      vertex 25.01 0 4.5
    endloop
  endfacet
  facet normal 0 0 1
    outer loop
      vertex 25.01 0 4.5
      vertex 1.5 1.5 4.5
      vertex 13.51 0 4.5
    endloop
  endfacet
  facet normal 0 0 1
    outer loop
      vertex 1.5 1.5 4.5
      vertex 0 0 4.5
      vertex 13.51 0 4.5
    endloop
  endfacet
  facet normal 0 0 1
    outer loop
      vertex 0 0 4.5
      vertex 1.5 1.5 4.5
      vertex 0 35 4.5
    endloop
  endfacet
  facet normal 0 0 1
    outer loop
      vertex 107.33 -0.9 4.5
      vertex 95.83 0 4.5
      vertex 95.83 -0.9 4.5
    endloop
  endfacet
  facet normal 0 0 1
    outer loop
      vertex 66.17 -0.9 4.5
      vertex 54.67 0 4.5
      vertex 54.67 -0.9 4.5
    endloop
  endfacet
  facet normal 0 0 1
    outer loop
      vertex 25.01 -0.9 4.5
      vertex 13.51 0 4.5
      vertex 13.51 -0.9 4.5
    endloop
  endfacet
  facet normal 1 -0 0
    outer loop
      vertex 120.6 0 4.5
      vertex 120.6 35 0
      vertex 120.6 35 4.5
    endloop
  endfacet
  facet normal 1 0 0
    outer loop
      vertex 120.6 35 0
      vertex 120.6 0 4.5
      vertex 120.6 0 0
    endloop
  endfacet
  facet normal 0 0 -1
    outer loop
      vertex 0 0 0
      vertex 13.51 35 0
      vertex 13.51 0 0
    endloop
  endfacet
  facet normal -0 0 -1
    outer loop
      vertex 13.51 35 0
      vertex 0 0 0
      vertex 0 35 0
    endloop
  endfacet
  facet normal 0 0 -1
    outer loop
      vertex 13.51 0 0
      vertex 25.01 0 0
      vertex 25.01 -3 0
    endloop
  endfacet
  facet normal 0 0 -1
    outer loop
      vertex 25.01 0 0
      vertex 13.51 0 0
      vertex 25.01 35 0
    endloop
  endfacet
  facet normal 0 0 -1
    outer loop
      vertex 13.51 0 0
      vertex 25.01 -3 0
      vertex 13.51 -3 0
    endloop
  endfacet
  facet normal 0 0 -1
    outer loop
      vertex 13.51 35 0
      vertex 25.01 35 0
      vertex 13.51 0 0
    endloop
  endfacet
  facet normal 0 0 -1
    outer loop
      vertex 25.01 35 0
      vertex 13.51 35 0
      vertex 25.01 38 0
    endloop
  endfacet
  facet normal -0 0 -1
    outer loop
      vertex 25.01 38 0
      vertex 13.51 35 0
      vertex 13.51 38 0
    endloop
  endfacet
  facet normal 0 0 -1
    outer loop
      vertex 25.01 0 0
      vertex 54.67 35 0
      vertex 54.67 0 0
    endloop
  endfacet
  facet normal -0 0 -1
    outer loop
      vertex 54.67 35 0
      vertex 25.01 0 0
      vertex 25.01 35 0
    endloop
  endfacet
  facet normal 0 0 -1
    outer loop
      vertex 54.67 0 0
      vertex 66.17 0 0
      vertex 66.17 -3 0
    endloop
  endfacet
  facet normal 0 0 -1
    outer loop
      vertex 66.17 0 0
      vertex 54.67 0 0
      vertex 66.17 35 0
    endloop
  endfacet
  facet normal 0 0 -1
    outer loop
      vertex 54.67 0 0
      vertex 66.17 -3 0
      vertex 54.67 -3 0
    endloop
  endfacet
  facet normal 0 0 -1
    outer loop
      vertex 54.67 35 0
      vertex 66.17 35 0
      vertex 54.67 0 0
    endloop
  endfacet
  facet normal 0 0 -1
    outer loop
      vertex 66.17 35 0
      vertex 54.67 35 0
      vertex 66.17 38 0
    endloop
  endfacet
  facet normal -0 0 -1
    outer loop
      vertex 66.17 38 0
      vertex 54.67 35 0
      vertex 54.67 38 0
    endloop
  endfacet
  facet normal 0 0 -1
    outer loop
      vertex 94.6 29.5 0
      vertex 97.6 29.5 0
      vertex 94.6 5.5 0
    endloop
  endfacet
  facet normal 0 0 -1
    outer loop
      vertex 95.83 0 0
      vertex 92.6 5.5 0
      vertex 94.6 5.5 0
    endloop
  endfacet
  facet normal 0 0 -1
    outer loop
      vertex 92.6 5.5 0
      vertex 89.6 5.5 0
      vertex 92.6 29.5 0
    endloop
  endfacet
  facet normal 0 0 -1
    outer loop
      vertex 95.83 0 0
      vertex 89.6 5.5 0
      vertex 92.6 5.5 0
    endloop
  endfacet
  facet normal 0 0 -1
    outer loop
      vertex 95.83 0 0
      vertex 87.6 5.5 0
      vertex 89.6 5.5 0
    endloop
  endfacet
  facet normal 0 0 -1
    outer loop
      vertex 87.6 5.5 0
      vertex 84.6 5.5 0
      vertex 87.6 29.5 0
    endloop
  endfacet
  facet normal 0 0 -1
    outer loop
      vertex 95.83 0 0
      vertex 84.6 5.5 0
      vertex 87.6 5.5 0
    endloop
  endfacet
  facet normal 0 0 -1
    outer loop
      vertex 95.83 0 0
      vertex 82.6 5.5 0
      vertex 84.6 5.5 0
    endloop
  endfacet
  facet normal 0 0 -1
    outer loop
      vertex 82.6 5.5 0
      vertex 79.6 5.5 0
      vertex 82.6 29.5 0
    endloop
  endfacet
  facet normal 0 0 -1
    outer loop
      vertex 95.83 0 0
      vertex 79.6 5.5 0
      vertex 82.6 5.5 0
    endloop
  endfacet
  facet normal 0 0 -1
    outer loop
      vertex 66.17 0 0
      vertex 79.6 5.5 0
      vertex 95.83 0 0
    endloop
  endfacet
  facet normal -0 0 -1
    outer loop
      vertex 77.6 5.5 0
      vertex 66.17 0 0
      vertex 77.6 29.5 0
    endloop
  endfacet
  facet normal -0 0 -1
    outer loop
      vertex 79.6 5.5 0
      vertex 66.17 0 0
      vertex 77.6 5.5 0
    endloop
  endfacet
  facet normal 0 0 -1
    outer loop
      vertex 97.6 29.5 0
      vertex 94.6 29.5 0
      vertex 95.83 35 0
    endloop
  endfacet
  facet normal 0 0 -1
    outer loop
      vertex 92.6 29.5 0
      vertex 95.83 35 0
      vertex 94.6 29.5 0
    endloop
  endfacet
  facet normal 0 0 -1
    outer loop
      vertex 89.6 29.5 0
      vertex 92.6 29.5 0
      vertex 89.6 5.5 0
    endloop
  endfacet
  facet normal 0 0 -1
    outer loop
      vertex 89.6 29.5 0
      vertex 95.83 35 0
      vertex 92.6 29.5 0
    endloop
  endfacet
  facet normal 0 0 -1
    outer loop
      vertex 87.6 29.5 0
      vertex 95.83 35 0
      vertex 89.6 29.5 0
    endloop
  endfacet
  facet normal 0 0 -1
    outer loop
      vertex 84.6 29.5 0
      vertex 87.6 29.5 0
      vertex 84.6 5.5 0
    endloop
  endfacet
  facet normal 0 0 -1
    outer loop
      vertex 84.6 29.5 0
      vertex 95.83 35 0
      vertex 87.6 29.5 0
    endloop
  endfacet
  facet normal 0 0 -1
    outer loop
      vertex 82.6 29.5 0
      vertex 95.83 35 0
      vertex 84.6 29.5 0
    endloop
  endfacet
  facet normal 0 0 -1
    outer loop
      vertex 79.6 29.5 0
      vertex 82.6 29.5 0
      vertex 79.6 5.5 0
    endloop
  endfacet
  facet normal 0 0 -1
    outer loop
      vertex 79.6 29.5 0
      vertex 95.83 35 0
      vertex 82.6 29.5 0
    endloop
  endfacet
  facet normal 0 0 -1
    outer loop
      vertex 66.17 35 0
      vertex 79.6 29.5 0
      vertex 77.6 29.5 0
    endloop
  endfacet
  facet normal 0 0 -1
    outer loop
      vertex 79.6 29.5 0
      vertex 66.17 35 0
      vertex 95.83 35 0
    endloop
  endfacet
  facet normal 0 0 -1
    outer loop
      vertex 66.17 35 0
      vertex 77.6 29.5 0
      vertex 66.17 0 0
    endloop
  endfacet
  facet normal 0 0 -1
    outer loop
      vertex 95.83 0 0
      vertex 107.33 0 0
      vertex 107.33 -3 0
    endloop
  endfacet
  facet normal 0 0 -1
    outer loop
      vertex 107.33 0 0
      vertex 104.6 5.5 0
      vertex 107.33 35 0
    endloop
  endfacet
  facet normal 0 0 -1
    outer loop
      vertex 104.6 29.5 0
      vertex 107.33 35 0
      vertex 104.6 5.5 0
    endloop
  endfacet
  facet normal 0 0 -1
    outer loop
      vertex 107.33 0 0
      vertex 102.6 5.5 0
      vertex 104.6 5.5 0
    endloop
  endfacet
  facet normal 0 0 -1
    outer loop
      vertex 102.6 5.5 0
      vertex 99.6 5.5 0
      vertex 102.6 29.5 0
    endloop
  endfacet
  facet normal 0 0 -1
    outer loop
      vertex 107.33 0 0
      vertex 95.83 0 0
      vertex 102.6 5.5 0
    endloop
  endfacet
  facet normal -0 0 -1
    outer loop
      vertex 102.6 5.5 0
      vertex 95.83 0 0
      vertex 99.6 5.5 0
    endloop
  endfacet
  facet normal -0 0 -1
    outer loop
      vertex 99.6 5.5 0
      vertex 95.83 0 0
      vertex 97.6 5.5 0
    endloop
  endfacet
  facet normal 0 0 -1
    outer loop
      vertex 95.83 0 0
      vertex 107.33 -3 0
      vertex 95.83 -3 0
    endloop
  endfacet
  facet normal 0 0 -1
    outer loop
      vertex 102.6 29.5 0
      vertex 107.33 35 0
      vertex 104.6 29.5 0
    endloop
  endfacet
  facet normal 0 0 -1
    outer loop
      vertex 95.83 35 0
      vertex 107.33 35 0
      vertex 102.6 29.5 0
    endloop
  endfacet
  facet normal 0 0 -1
    outer loop
      vertex 99.6 29.5 0
      vertex 102.6 29.5 0
      vertex 99.6 5.5 0
    endloop
  endfacet
  facet normal 0 0 -1
    outer loop
      vertex 95.83 35 0
      vertex 102.6 29.5 0
      vertex 99.6 29.5 0
    endloop
  endfacet
  facet normal 0 0 -1
    outer loop
      vertex 95.83 35 0
      vertex 99.6 29.5 0
      vertex 97.6 29.5 0
    endloop
  endfacet
  facet normal 0 0 -1
    outer loop
      vertex 94.6 5.5 0
      vertex 97.6 5.5 0
      vertex 95.83 0 0
    endloop
  endfacet
  facet normal 0 0 -1
    outer loop
      vertex 97.6 5.5 0
      vertex 94.6 5.5 0
      vertex 97.6 29.5 0
    endloop
  endfacet
  facet normal 0 0 -1
    outer loop
      vertex 107.33 35 0
      vertex 95.83 35 0
      vertex 107.33 38 0
    endloop
  endfacet
  facet normal -0 0 -1
    outer loop
      vertex 107.33 38 0
      vertex 95.83 35 0
      vertex 95.83 38 0
    endloop
  endfacet
  facet normal 0 0 -1
    outer loop
      vertex 120.6 0 0
      vertex 114.6 5.5 0
      vertex 120.6 35 0
    endloop
  endfacet
  facet normal 0 0 -1
    outer loop
      vertex 107.33 0 0
      vertex 114.6 5.5 0
      vertex 120.6 0 0
    endloop
  endfacet
  facet normal 0 0 -1
    outer loop
      vertex 112.6 5.5 0
      vertex 109.6 5.5 0
      vertex 112.6 29.5 0
    endloop
  endfacet
  facet normal -0 0 -1
    outer loop
      vertex 114.6 5.5 0
      vertex 107.33 0 0
      vertex 112.6 5.5 0
    endloop
  endfacet
  facet normal -0 0 -1
    outer loop
      vertex 112.6 5.5 0
      vertex 107.33 0 0
      vertex 109.6 5.5 0
    endloop
  endfacet
  facet normal -0 0 -1
    outer loop
      vertex 107.6 5.5 0
      vertex 107.33 0 0
      vertex 107.6 29.5 0
    endloop
  endfacet
  facet normal -0 0 -1
    outer loop
      vertex 109.6 5.5 0
      vertex 107.33 0 0
      vertex 107.6 5.5 0
    endloop
  endfacet
  facet normal 0 0 -1
    outer loop
      vertex 114.6 29.5 0
      vertex 120.6 35 0
      vertex 114.6 5.5 0
    endloop
  endfacet
  facet normal 0 0 -1
    outer loop
      vertex 107.33 35 0
      vertex 114.6 29.5 0
      vertex 112.6 29.5 0
    endloop
  endfacet
  facet normal 0 0 -1
    outer loop
      vertex 109.6 29.5 0
      vertex 112.6 29.5 0
      vertex 109.6 5.5 0
    endloop
  endfacet
  facet normal 0 0 -1
    outer loop
      vertex 107.33 35 0
      vertex 112.6 29.5 0
      vertex 109.6 29.5 0
    endloop
  endfacet
  facet normal 0 0 -1
    outer loop
      vertex 107.33 35 0
      vertex 109.6 29.5 0
      vertex 107.6 29.5 0
    endloop
  endfacet
  facet normal 0 0 -1
    outer loop
      vertex 114.6 29.5 0
      vertex 107.33 35 0
      vertex 120.6 35 0
    endloop
  endfacet
  facet normal 0 0 -1
    outer loop
      vertex 107.33 35 0
      vertex 107.6 29.5 0
      vertex 107.33 0 0
    endloop
  endfacet
  facet normal 0 -1 0
    outer loop
      vertex 107.33 0 0
      vertex 120.6 0 4.5
      vertex 107.33 0 4.5
    endloop
  endfacet
  facet normal 0 -1 -0
    outer loop
      vertex 120.6 0 4.5
      vertex 107.33 0 0
      vertex 120.6 0 0
    endloop
  endfacet
  facet normal 0 -1 0
    outer loop
      vertex 0 0 0
      vertex 13.51 0 4.5
      vertex 0 0 4.5
    endloop
  endfacet
  facet normal 0 -1 -0
    outer loop
      vertex 13.51 0 4.5
      vertex 0 0 0
      vertex 13.51 0 0
    endloop
  endfacet
  facet normal 0 -1 0
    outer loop
      vertex 25.01 0 0
      vertex 54.67 0 4.5
      vertex 25.01 0 4.5
    endloop
  endfacet
  facet normal 0 -1 -0
    outer loop
      vertex 54.67 0 4.5
      vertex 25.01 0 0
      vertex 54.67 0 0
    endloop
  endfacet
  facet normal 0 -1 0
    outer loop
      vertex 66.17 0 0
      vertex 95.83 0 4.5
      vertex 66.17 0 4.5
    endloop
  endfacet
  facet normal 0 -1 -0
    outer loop
      vertex 95.83 0 4.5
      vertex 66.17 0 0
      vertex 95.83 0 0
    endloop
  endfacet
  facet normal 0 1 -0
    outer loop
      vertex 120.6 35 0
      vertex 107.33 35 4.5
      vertex 120.6 35 4.5
    endloop
  endfacet
  facet normal 0 1 0
    outer loop
      vertex 107.33 35 4.5
      vertex 120.6 35 0
      vertex 107.33 35 0
    endloop
  endfacet
  facet normal 0 1 -0
    outer loop
      vertex 13.51 35 0
      vertex 0 35 4.5
      vertex 13.51 35 4.5
    endloop
  endfacet
  facet normal 0 1 0
    outer loop
      vertex 0 35 4.5
      vertex 13.51 35 0
      vertex 0 35 0
    endloop
  endfacet
  facet normal 0 1 -0
    outer loop
      vertex 54.67 35 0
      vertex 25.01 35 4.5
      vertex 54.67 35 4.5
    endloop
  endfacet
  facet normal 0 1 0
    outer loop
      vertex 25.01 35 4.5
      vertex 54.67 35 0
      vertex 25.01 35 0
    endloop
  endfacet
  facet normal 0 1 -0
    outer loop
      vertex 95.83 35 0
      vertex 66.17 35 4.5
      vertex 95.83 35 4.5
    endloop
  endfacet
  facet normal 0 1 0
    outer loop
      vertex 66.17 35 4.5
      vertex 95.83 35 0
      vertex 66.17 35 0
    endloop
  endfacet
  facet normal 1 -0 0
    outer loop
      vertex 1.5 1.5 4.5
      vertex 1.5 33.5 1.5
      vertex 1.5 33.5 4.5
    endloop
  endfacet
  facet normal 1 0 0
    outer loop
      vertex 1.5 33.5 1.5
      vertex 1.5 1.5 4.5
      vertex 1.5 1.5 1.5
    endloop
  endfacet
  facet normal -1 0 0
    outer loop
      vertex 119.1 1.5 1.5
      vertex 119.1 33.5 4.5
      vertex 119.1 33.5 1.5
    endloop
  endfacet
  facet normal -1 -0 0
    outer loop
      vertex 119.1 33.5 4.5
      vertex 119.1 1.5 1.5
      vertex 119.1 1.5 4.5
    endloop
  endfacet
  facet normal 0 -1 0
    outer loop
      vertex 1.5 33.5 1.5
      vertex 119.1 33.5 4.5
      vertex 1.5 33.5 4.5
    endloop
  endfacet
  facet normal 0 -1 -0
    outer loop
      vertex 119.1 33.5 4.5
      vertex 1.5 33.5 1.5
      vertex 119.1 33.5 1.5
    endloop
  endfacet
  facet normal 0 0 1
    outer loop
      vertex 119.1 33.5 1.5
      vertex 114.6 29.5 1.5
      vertex 119.1 1.5 1.5
    endloop
  endfacet
  facet normal 0 0 1
    outer loop
      vertex 119.1 33.5 1.5
      vertex 112.6 29.5 1.5
      vertex 114.6 29.5 1.5
    endloop
  endfacet
  facet normal 0 0 1
    outer loop
      vertex 112.6 29.5 1.5
      vertex 109.6 29.5 1.5
      vertex 112.6 5.5 1.5
    endloop
  endfacet
  facet normal 0 0 1
    outer loop
      vertex 119.1 33.5 1.5
      vertex 109.6 29.5 1.5
      vertex 112.6 29.5 1.5
    endloop
  endfacet
  facet normal 0 0 1
    outer loop
      vertex 119.1 33.5 1.5
      vertex 107.6 29.5 1.5
      vertex 109.6 29.5 1.5
    endloop
  endfacet
  facet normal 0 0 1
    outer loop
      vertex 107.6 29.5 1.5
      vertex 104.6 29.5 1.5
      vertex 107.6 5.5 1.5
    endloop
  endfacet
  facet normal 0 0 1
    outer loop
      vertex 119.1 33.5 1.5
      vertex 104.6 29.5 1.5
      vertex 107.6 29.5 1.5
    endloop
  endfacet
  facet normal 0 0 1
    outer loop
      vertex 119.1 33.5 1.5
      vertex 102.6 29.5 1.5
      vertex 104.6 29.5 1.5
    endloop
  endfacet
  facet normal 0 0 1
    outer loop
      vertex 102.6 29.5 1.5
      vertex 99.6 29.5 1.5
      vertex 102.6 5.5 1.5
    endloop
  endfacet
  facet normal 0 0 1
    outer loop
      vertex 119.1 33.5 1.5
      vertex 99.6 29.5 1.5
      vertex 102.6 29.5 1.5
    endloop
  endfacet
  facet normal 0 0 1
    outer loop
      vertex 119.1 33.5 1.5
      vertex 97.6 29.5 1.5
      vertex 99.6 29.5 1.5
    endloop
  endfacet
  facet normal 0 0 1
    outer loop
      vertex 97.6 29.5 1.5
      vertex 94.6 29.5 1.5
      vertex 97.6 5.5 1.5
    endloop
  endfacet
  facet normal 0 0 1
    outer loop
      vertex 119.1 33.5 1.5
      vertex 94.6 29.5 1.5
      vertex 97.6 29.5 1.5
    endloop
  endfacet
  facet normal 0 0 1
    outer loop
      vertex 119.1 33.5 1.5
      vertex 92.6 29.5 1.5
      vertex 94.6 29.5 1.5
    endloop
  endfacet
  facet normal 0 0 1
    outer loop
      vertex 92.6 29.5 1.5
      vertex 89.6 29.5 1.5
      vertex 92.6 5.5 1.5
    endloop
  endfacet
  facet normal 0 0 1
    outer loop
      vertex 119.1 33.5 1.5
      vertex 89.6 29.5 1.5
      vertex 92.6 29.5 1.5
    endloop
  endfacet
  facet normal 0 0 1
    outer loop
      vertex 119.1 33.5 1.5
      vertex 87.6 29.5 1.5
      vertex 89.6 29.5 1.5
    endloop
  endfacet
  facet normal 0 0 1
    outer loop
      vertex 87.6 29.5 1.5
      vertex 84.6 29.5 1.5
      vertex 87.6 5.5 1.5
    endloop
  endfacet
  facet normal 0 0 1
    outer loop
      vertex 119.1 33.5 1.5
      vertex 84.6 29.5 1.5
      vertex 87.6 29.5 1.5
    endloop
  endfacet
  facet normal 0 0 1
    outer loop
      vertex 119.1 33.5 1.5
      vertex 82.6 29.5 1.5
      vertex 84.6 29.5 1.5
    endloop
  endfacet
  facet normal 0 0 1
    outer loop
      vertex 82.6 29.5 1.5
      vertex 79.6 29.5 1.5
      vertex 82.6 5.5 1.5
    endloop
  endfacet
  facet normal 0 0 1
    outer loop
      vertex 119.1 33.5 1.5
      vertex 79.6 29.5 1.5
      vertex 82.6 29.5 1.5
    endloop
  endfacet
  facet normal 0 0 1
    outer loop
      vertex 119.1 33.5 1.5
      vertex 77.6 29.5 1.5
      vertex 79.6 29.5 1.5
    endloop
  endfacet
  facet normal 0 0 1
    outer loop
      vertex 77.6 29.5 1.5
      vertex 1.5 33.5 1.5
      vertex 77.6 5.5 1.5
    endloop
  endfacet
  facet normal -0 0 1
    outer loop
      vertex 1.5 33.5 1.5
      vertex 77.6 29.5 1.5
      vertex 119.1 33.5 1.5
    endloop
  endfacet
  facet normal -0 0 1
    outer loop
      vertex 114.6 5.5 1.5
      vertex 119.1 1.5 1.5
      vertex 114.6 29.5 1.5
    endloop
  endfacet
  facet normal -0 0 1
    outer loop
      vertex 112.6 5.5 1.5
      vertex 119.1 1.5 1.5
      vertex 114.6 5.5 1.5
    endloop
  endfacet
  facet normal 0 0 1
    outer loop
      vertex 109.6 5.5 1.5
      vertex 112.6 5.5 1.5
      vertex 109.6 29.5 1.5
    endloop
  endfacet
  facet normal -0 0 1
    outer loop
      vertex 109.6 5.5 1.5
      vertex 119.1 1.5 1.5
      vertex 112.6 5.5 1.5
    endloop
  endfacet
  facet normal -0 0 1
    outer loop
      vertex 107.6 5.5 1.5
      vertex 119.1 1.5 1.5
      vertex 109.6 5.5 1.5
    endloop
  endfacet
  facet normal 0 0 1
    outer loop
      vertex 104.6 5.5 1.5
      vertex 107.6 5.5 1.5
      vertex 104.6 29.5 1.5
    endloop
  endfacet
  facet normal -0 0 1
    outer loop
      vertex 104.6 5.5 1.5
      vertex 119.1 1.5 1.5
      vertex 107.6 5.5 1.5
    endloop
  endfacet
  facet normal -0 0 1
    outer loop
      vertex 102.6 5.5 1.5
      vertex 119.1 1.5 1.5
      vertex 104.6 5.5 1.5
    endloop
  endfacet
  facet normal 0 0 1
    outer loop
      vertex 99.6 5.5 1.5
      vertex 102.6 5.5 1.5
      vertex 99.6 29.5 1.5
    endloop
  endfacet
  facet normal -0 0 1
    outer loop
      vertex 99.6 5.5 1.5
      vertex 119.1 1.5 1.5
      vertex 102.6 5.5 1.5
    endloop
  endfacet
  facet normal -0 0 1
    outer loop
      vertex 97.6 5.5 1.5
      vertex 119.1 1.5 1.5
      vertex 99.6 5.5 1.5
    endloop
  endfacet
  facet normal 0 0 1
    outer loop
      vertex 94.6 5.5 1.5
      vertex 97.6 5.5 1.5
      vertex 94.6 29.5 1.5
    endloop
  endfacet
  facet normal -0 0 1
    outer loop
      vertex 94.6 5.5 1.5
      vertex 119.1 1.5 1.5
      vertex 97.6 5.5 1.5
    endloop
  endfacet
  facet normal -0 0 1
    outer loop
      vertex 92.6 5.5 1.5
      vertex 119.1 1.5 1.5
      vertex 94.6 5.5 1.5
    endloop
  endfacet
  facet normal 0 0 1
    outer loop
      vertex 89.6 5.5 1.5
      vertex 92.6 5.5 1.5
      vertex 89.6 29.5 1.5
    endloop
  endfacet
  facet normal -0 0 1
    outer loop
      vertex 89.6 5.5 1.5
      vertex 119.1 1.5 1.5
      vertex 92.6 5.5 1.5
    endloop
  endfacet
  facet normal -0 0 1
    outer loop
      vertex 87.6 5.5 1.5
      vertex 119.1 1.5 1.5
      vertex 89.6 5.5 1.5
    endloop
  endfacet
  facet normal 0 0 1
    outer loop
      vertex 84.6 5.5 1.5
      vertex 87.6 5.5 1.5
      vertex 84.6 29.5 1.5
    endloop
  endfacet
  facet normal -0 0 1
    outer loop
      vertex 84.6 5.5 1.5
      vertex 119.1 1.5 1.5
      vertex 87.6 5.5 1.5
    endloop
  endfacet
  facet normal -0 0 1
    outer loop
      vertex 82.6 5.5 1.5
      vertex 119.1 1.5 1.5
      vertex 84.6 5.5 1.5
    endloop
  endfacet
  facet normal 0 0 1
    outer loop
      vertex 79.6 5.5 1.5
      vertex 82.6 5.5 1.5
      vertex 79.6 29.5 1.5
    endloop
  endfacet
  facet normal -0 0 1
    outer loop
      vertex 79.6 5.5 1.5
      vertex 119.1 1.5 1.5
      vertex 82.6 5.5 1.5
    endloop
  endfacet
  facet normal -0 0 1
    outer loop
      vertex 77.6 5.5 1.5
      vertex 119.1 1.5 1.5
      vertex 79.6 5.5 1.5
    endloop
  endfacet
  facet normal 0 0 1
    outer loop
      vertex 77.6 5.5 1.5
      vertex 1.5 1.5 1.5
      vertex 119.1 1.5 1.5
    endloop
  endfacet
  facet normal 0 0 1
    outer loop
      vertex 1.5 1.5 1.5
      vertex 77.6 5.5 1.5
      vertex 1.5 33.5 1.5
    endloop
  endfacet
  facet normal 0 1 -0
    outer loop
      vertex 119.1 1.5 1.5
      vertex 1.5 1.5 4.5
      vertex 119.1 1.5 4.5
    endloop
  endfacet
  facet normal 0 1 0
    outer loop
      vertex 1.5 1.5 4.5
      vertex 119.1 1.5 1.5
      vertex 1.5 1.5 1.5
    endloop
  endfacet
  facet normal -1 0 0
    outer loop
      vertex 13.51 0 0
      vertex 13.51 -0.9 4.5
      vertex 13.51 0 4.5
    endloop
  endfacet
  facet normal -1 0 0
    outer loop
      vertex 13.51 -3 10.5
      vertex 13.51 -0.9 8.5
      vertex 13.51 -0.9 4.5
    endloop
  endfacet
  facet normal -1 0 0
    outer loop
      vertex 13.51 -0.9 8.5
      vertex 13.51 -3 10.5
      vertex 13.51 -0.9 10.42
    endloop
  endfacet
  facet normal -1 0 0
    outer loop
      vertex 13.51 -3 0
      vertex 13.51 -0.9 4.5
      vertex 13.51 0 0
    endloop
  endfacet
  facet normal -1 0 0
    outer loop
      vertex 13.51 -3 10.5
      vertex 13.51 -0.9 4.5
      vertex 13.51 -3 0
    endloop
  endfacet
  facet normal -1 0 0
    outer loop
      vertex 13.51 -0.9 10.42
      vertex 13.51 -3 10.5
      vertex 13.51 -0.9 10.5
    endloop
  endfacet
  facet normal -1 0 0
    outer loop
      vertex 13.51 1.5 8.5
      vertex 13.51 -0.9 8.5
      vertex 13.51 -0.9 10.42
    endloop
  endfacet
  facet normal 1 -0 0
    outer loop
      vertex 25.01 -3 10.5
      vertex 25.01 -0.9 10.42
      vertex 25.01 -0.9 10.5
    endloop
  endfacet
  facet normal 1 0 0
    outer loop
      vertex 25.01 -0.9 10.42
      vertex 25.01 -3 10.5
      vertex 25.01 -0.9 8.5
    endloop
  endfacet
  facet normal 1 0 0
    outer loop
      vertex 25.01 -0.9 8.5
      vertex 25.01 -3 10.5
      vertex 25.01 -0.9 4.5
    endloop
  endfacet
  facet normal 1 0 0
    outer loop
      vertex 25.01 1.5 8.5
      vertex 25.01 -0.9 10.42
      vertex 25.01 -0.9 8.5
    endloop
  endfacet
  facet normal 1 -0 0
    outer loop
      vertex 25.01 -0.9 4.5
      vertex 25.01 0 0
      vertex 25.01 0 4.5
    endloop
  endfacet
  facet normal 1 0 0
    outer loop
      vertex 25.01 -3 0
      vertex 25.01 -0.9 4.5
      vertex 25.01 -3 10.5
    endloop
  endfacet
  facet normal 1 0 0
    outer loop
      vertex 25.01 -0.9 4.5
      vertex 25.01 -3 0
      vertex 25.01 0 0
    endloop
  endfacet
  facet normal -0 0 1
    outer loop
      vertex 13.51 -0.9 10.5
      vertex 25.01 -3 10.5
      vertex 25.01 -0.9 10.5
    endloop
  endfacet
  facet normal 0 0 1
    outer loop
      vertex 25.01 -3 10.5
      vertex 13.51 -0.9 10.5
      vertex 13.51 -3 10.5
    endloop
  endfacet
  facet normal 0 1 -0
    outer loop
      vertex 25.01 -0.9 10.42
      vertex 13.51 -0.9 10.5
      vertex 25.01 -0.9 10.5
    endloop
  endfacet
  facet normal 0 1 0
    outer loop
      vertex 13.51 -0.9 10.5
      vertex 25.01 -0.9 10.42
      vertex 13.51 -0.9 10.42
    endloop
  endfacet
  facet normal 0 1 -0
    outer loop
      vertex 25.01 -0.9 4.5
      vertex 13.51 -0.9 8.5
      vertex 25.01 -0.9 8.5
    endloop
  endfacet
  facet normal 0 1 0
    outer loop
      vertex 13.51 -0.9 8.5
      vertex 25.01 -0.9 4.5
      vertex 13.51 -0.9 4.5
    endloop
  endfacet
  facet normal 0 -1 0
    outer loop
      vertex 13.51 -3 0
      vertex 25.01 -3 10.5
      vertex 13.51 -3 10.5
    endloop
  endfacet
  facet normal 0 -1 -0
    outer loop
      vertex 25.01 -3 10.5
      vertex 13.51 -3 0
      vertex 25.01 -3 0
    endloop
  endfacet
  facet normal 0 0 -1
    outer loop
      vertex 13.51 -0.9 8.5
      vertex 25.01 1.5 8.5
      vertex 25.01 -0.9 8.5
    endloop
  endfacet
  facet normal -0 0 -1
    outer loop
      vertex 25.01 1.5 8.5
      vertex 13.51 -0.9 8.5
      vertex 13.51 1.5 8.5
    endloop
  endfacet
  facet normal -0 0.624695 0.780869
    outer loop
      vertex 13.51 1.5 8.5
      vertex 25.01 -0.9 10.42
      vertex 25.01 1.5 8.5
    endloop
  endfacet
  facet normal 0 0.624695 0.780869
    outer loop
      vertex 25.01 -0.9 10.42
      vertex 13.51 1.5 8.5
      vertex 13.51 -0.9 10.42
    endloop
  endfacet
  facet normal -1 0 0
    outer loop
      vertex 54.67 0 0
      vertex 54.67 -0.9 4.5
      vertex 54.67 0 4.5
    endloop
  endfacet
  facet normal -1 0 0
    outer loop
      vertex 54.67 -3 10.5
      vertex 54.67 -0.9 8.5
      vertex 54.67 -0.9 4.5
    endloop
  endfacet
  facet normal -1 0 0
    outer loop
      vertex 54.67 -0.9 8.5
      vertex 54.67 -3 10.5
      vertex 54.67 -0.9 10.42
    endloop
  endfacet
  facet normal -1 0 0
    outer loop
      vertex 54.67 -3 0
      vertex 54.67 -0.9 4.5
      vertex 54.67 0 0
    endloop
  endfacet
  facet normal -1 0 0
    outer loop
      vertex 54.67 -3 10.5
      vertex 54.67 -0.9 4.5
      vertex 54.67 -3 0
    endloop
  endfacet
  facet normal -1 0 0
    outer loop
      vertex 54.67 -0.9 10.42
      vertex 54.67 -3 10.5
      vertex 54.67 -0.9 10.5
    endloop
  endfacet
  facet normal -1 0 0
    outer loop
      vertex 54.67 1.5 8.5
      vertex 54.67 -0.9 8.5
      vertex 54.67 -0.9 10.42
    endloop
  endfacet
  facet normal 1 -0 0
    outer loop
      vertex 66.17 -3 10.5
      vertex 66.17 -0.9 10.42
      vertex 66.17 -0.9 10.5
    endloop
  endfacet
  facet normal 1 0 0
    outer loop
      vertex 66.17 -0.9 10.42
      vertex 66.17 -3 10.5
      vertex 66.17 -0.9 8.5
    endloop
  endfacet
  facet normal 1 0 0
    outer loop
      vertex 66.17 -0.9 8.5
      vertex 66.17 -3 10.5
      vertex 66.17 -0.9 4.5
    endloop
  endfacet
  facet normal 1 0 0
    outer loop
      vertex 66.17 1.5 8.5
      vertex 66.17 -0.9 10.42
      vertex 66.17 -0.9 8.5
    endloop
  endfacet
  facet normal 1 -0 0
    outer loop
      vertex 66.17 -0.9 4.5
      vertex 66.17 0 0
      vertex 66.17 0 4.5
    endloop
  endfacet
  facet normal 1 0 0
    outer loop
      vertex 66.17 -3 0
      vertex 66.17 -0.9 4.5
      vertex 66.17 -3 10.5
    endloop
  endfacet
  facet normal 1 0 0
    outer loop
      vertex 66.17 -0.9 4.5
      vertex 66.17 -3 0
      vertex 66.17 0 0
    endloop
  endfacet
  facet normal -0 0 1
    outer loop
      vertex 54.67 -0.9 10.5
      vertex 66.17 -3 10.5
      vertex 66.17 -0.9 10.5
    endloop
  endfacet
  facet normal 0 0 1
    outer loop
      vertex 66.17 -3 10.5
      vertex 54.67 -0.9 10.5
      vertex 54.67 -3 10.5
    endloop
  endfacet
  facet normal 0 1 -0
    outer loop
      vertex 66.17 -0.9 10.42
      vertex 54.67 -0.9 10.5
      vertex 66.17 -0.9 10.5
    endloop
  endfacet
  facet normal 0 1 0
    outer loop
      vertex 54.67 -0.9 10.5
      vertex 66.17 -0.9 10.42
      vertex 54.67 -0.9 10.42
    endloop
  endfacet
  facet normal 0 1 -0
    outer loop
      vertex 66.17 -0.9 4.5
      vertex 54.67 -0.9 8.5
      vertex 66.17 -0.9 8.5
    endloop
  endfacet
  facet normal 0 1 0
    outer loop
      vertex 54.67 -0.9 8.5
      vertex 66.17 -0.9 4.5
      vertex 54.67 -0.9 4.5
    endloop
  endfacet
  facet normal 0 -1 0
    outer loop
      vertex 54.67 -3 0
      vertex 66.17 -3 10.5
      vertex 54.67 -3 10.5
    endloop
  endfacet
  facet normal 0 -1 -0
    outer loop
      vertex 66.17 -3 10.5
      vertex 54.67 -3 0
      vertex 66.17 -3 0
    endloop
  endfacet
  facet normal 0 0 -1
    outer loop
      vertex 54.67 -0.9 8.5
      vertex 66.17 1.5 8.5
      vertex 66.17 -0.9 8.5
    endloop
  endfacet
  facet normal -0 0 -1
    outer loop
      vertex 66.17 1.5 8.5
      vertex 54.67 -0.9 8.5
      vertex 54.67 1.5 8.5
    endloop
  endfacet
  facet normal -0 0.624695 0.780869
    outer loop
      vertex 54.67 1.5 8.5
      vertex 66.17 -0.9 10.42
      vertex 66.17 1.5 8.5
    endloop
  endfacet
  facet normal 0 0.624695 0.780869
    outer loop
      vertex 66.17 -0.9 10.42
      vertex 54.67 1.5 8.5
      vertex 54.67 -0.9 10.42
    endloop
  endfacet
  facet normal -1 0 0
    outer loop
      vertex 95.83 0 0
      vertex 95.83 -0.9 4.5
      vertex 95.83 0 4.5
    endloop
  endfacet
  facet normal -1 0 0
    outer loop
      vertex 95.83 -3 10.5
      vertex 95.83 -0.9 8.5
      vertex 95.83 -0.9 4.5
    endloop
  endfacet
  facet normal -1 0 0
    outer loop
      vertex 95.83 -0.9 8.5
      vertex 95.83 -3 10.5
      vertex 95.83 -0.9 10.42
    endloop
  endfacet
  facet normal -1 0 0
    outer loop
      vertex 95.83 -3 0
      vertex 95.83 -0.9 4.5
      vertex 95.83 0 0
    endloop
  endfacet
  facet normal -1 0 0
    outer loop
      vertex 95.83 -3 10.5
      vertex 95.83 -0.9 4.5
      vertex 95.83 -3 0
    endloop
  endfacet
  facet normal -1 0 0
    outer loop
      vertex 95.83 -0.9 10.42
      vertex 95.83 -3 10.5
      vertex 95.83 -0.9 10.5
    endloop
  endfacet
  facet normal -1 0 0
    outer loop
      vertex 95.83 1.5 8.5
      vertex 95.83 -0.9 8.5
      vertex 95.83 -0.9 10.42
    endloop
  endfacet
  facet normal 1 -0 0
    outer loop
      vertex 107.33 -3 10.5
      vertex 107.33 -0.9 10.42
      vertex 107.33 -0.9 10.5
    endloop
  endfacet
  facet normal 1 0 0
    outer loop
      vertex 107.33 -0.9 10.42
      vertex 107.33 -3 10.5
      vertex 107.33 -0.9 8.5
    endloop
  endfacet
  facet normal 1 0 0
    outer loop
      vertex 107.33 -0.9 8.5
      vertex 107.33 -3 10.5
      vertex 107.33 -0.9 4.5
    endloop
  endfacet
  facet normal 1 0 0
    outer loop
      vertex 107.33 1.5 8.5
      vertex 107.33 -0.9 10.42
      vertex 107.33 -0.9 8.5
    endloop
  endfacet
  facet normal 1 -0 0
    outer loop
      vertex 107.33 -0.9 4.5
      vertex 107.33 0 0
      vertex 107.33 0 4.5
    endloop
  endfacet
  facet normal 1 0 0
    outer loop
      vertex 107.33 -3 0
      vertex 107.33 -0.9 4.5
      vertex 107.33 -3 10.5
    endloop
  endfacet
  facet normal 1 0 0
    outer loop
      vertex 107.33 -0.9 4.5
      vertex 107.33 -3 0
      vertex 107.33 0 0
    endloop
  endfacet
  facet normal -0 0 1
    outer loop
      vertex 95.83 -0.9 10.5
      vertex 107.33 -3 10.5
      vertex 107.33 -0.9 10.5
    endloop
  endfacet
  facet normal 0 0 1
    outer loop
      vertex 107.33 -3 10.5
      vertex 95.83 -0.9 10.5
      vertex 95.83 -3 10.5
    endloop
  endfacet
  facet normal 0 1 -0
    outer loop
      vertex 107.33 -0.9 10.42
      vertex 95.83 -0.9 10.5
      vertex 107.33 -0.9 10.5
    endloop
  endfacet
  facet normal 0 1 0
    outer loop
      vertex 95.83 -0.9 10.5
      vertex 107.33 -0.9 10.42
      vertex 95.83 -0.9 10.42
    endloop
  endfacet
  facet normal 0 1 -0
    outer loop
      vertex 107.33 -0.9 4.5
      vertex 95.83 -0.9 8.5
      vertex 107.33 -0.9 8.5
    endloop
  endfacet
  facet normal 0 1 0
    outer loop
      vertex 95.83 -0.9 8.5
      vertex 107.33 -0.9 4.5
      vertex 95.83 -0.9 4.5
    endloop
  endfacet
  facet normal 0 -1 0
    outer loop
      vertex 95.83 -3 0
      vertex 107.33 -3 10.5
      vertex 95.83 -3 10.5
    endloop
  endfacet
  facet normal 0 -1 -0
    outer loop
      vertex 107.33 -3 10.5
      vertex 95.83 -3 0
      vertex 107.33 -3 0
    endloop
  endfacet
  facet normal 0 0 -1
    outer loop
      vertex 95.83 -0.9 8.5
      vertex 107.33 1.5 8.5
      vertex 107.33 -0.9 8.5
    endloop
  endfacet
  facet normal -0 0 -1
    outer loop
      vertex 107.33 1.5 8.5
      vertex 95.83 -0.9 8.5
      vertex 95.83 1.5 8.5
    endloop
  endfacet
  facet normal -0 0.624695 0.780869
    outer loop
      vertex 95.83 1.5 8.5
      vertex 107.33 -0.9 10.42
      vertex 107.33 1.5 8.5
    endloop
  endfacet
  facet normal 0 0.624695 0.780869
    outer loop
      vertex 107.33 -0.9 10.42
      vertex 95.83 1.5 8.5
      vertex 95.83 -0.9 10.42
    endloop
  endfacet
  facet normal -1 0 0
    outer loop
      vertex 13.51 35.9 8.5
      vertex 13.51 33.5 8.5
      vertex 13.51 35.9 10.42
    endloop
  endfacet
  facet normal -1 0 0
    outer loop
      vertex 13.51 38 0
      vertex 13.51 35.9 4.5
      vertex 13.51 38 10.5
    endloop
  endfacet
  facet normal -1 0 0
    outer loop
      vertex 13.51 35 0
      vertex 13.51 35.9 4.5
      vertex 13.51 38 0
    endloop
  endfacet
  facet normal -1 -0 0
    outer loop
      vertex 13.51 35.9 4.5
      vertex 13.51 35 0
      vertex 13.51 35 4.5
    endloop
  endfacet
  facet normal -1 0 0
    outer loop
      vertex 13.51 35.9 8.5
      vertex 13.51 38 10.5
      vertex 13.51 35.9 4.5
    endloop
  endfacet
  facet normal -1 0 0
    outer loop
      vertex 13.51 35.9 10.42
      vertex 13.51 38 10.5
      vertex 13.51 35.9 8.5
    endloop
  endfacet
  facet normal -1 -0 0
    outer loop
      vertex 13.51 38 10.5
      vertex 13.51 35.9 10.42
      vertex 13.51 35.9 10.5
    endloop
  endfacet
  facet normal 1 0 0
    outer loop
      vertex 25.01 35.9 10.42
      vertex 25.01 33.5 8.5
      vertex 25.01 35.9 8.5
    endloop
  endfacet
  facet normal 1 0 0
    outer loop
      vertex 25.01 35.9 10.42
      vertex 25.01 38 10.5
      vertex 25.01 35.9 10.5
    endloop
  endfacet
  facet normal 1 0 0
    outer loop
      vertex 25.01 35.9 8.5
      vertex 25.01 38 10.5
      vertex 25.01 35.9 10.42
    endloop
  endfacet
  facet normal 1 0 0
    outer loop
      vertex 25.01 35.9 4.5
      vertex 25.01 38 10.5
      vertex 25.01 35.9 8.5
    endloop
  endfacet
  facet normal 1 0 0
    outer loop
      vertex 25.01 38 10.5
      vertex 25.01 35.9 4.5
      vertex 25.01 38 0
    endloop
  endfacet
  facet normal 1 0 0
    outer loop
      vertex 25.01 35 0
      vertex 25.01 35.9 4.5
      vertex 25.01 35 4.5
    endloop
  endfacet
  facet normal 1 0 0
    outer loop
      vertex 25.01 35.9 4.5
      vertex 25.01 35 0
      vertex 25.01 38 0
    endloop
  endfacet
  facet normal -0 0 1
    outer loop
      vertex 13.51 38 10.5
      vertex 25.01 35.9 10.5
      vertex 25.01 38 10.5
    endloop
  endfacet
  facet normal 0 0 1
    outer loop
      vertex 25.01 35.9 10.5
      vertex 13.51 38 10.5
      vertex 13.51 35.9 10.5
    endloop
  endfacet
  facet normal 0 -1 0
    outer loop
      vertex 13.51 35.9 10.42
      vertex 25.01 35.9 10.5
      vertex 13.51 35.9 10.5
    endloop
  endfacet
  facet normal 0 -1 -0
    outer loop
      vertex 25.01 35.9 10.5
      vertex 13.51 35.9 10.42
      vertex 25.01 35.9 10.42
    endloop
  endfacet
  facet normal 0 -1 0
    outer loop
      vertex 13.51 35.9 4.5
      vertex 25.01 35.9 8.5
      vertex 13.51 35.9 8.5
    endloop
  endfacet
  facet normal 0 -1 -0
    outer loop
      vertex 25.01 35.9 8.5
      vertex 13.51 35.9 4.5
      vertex 25.01 35.9 4.5
    endloop
  endfacet
  facet normal 0 1 -0
    outer loop
      vertex 25.01 38 0
      vertex 13.51 38 10.5
      vertex 25.01 38 10.5
    endloop
  endfacet
  facet normal 0 1 0
    outer loop
      vertex 13.51 38 10.5
      vertex 25.01 38 0
      vertex 13.51 38 0
    endloop
  endfacet
  facet normal 0 0 -1
    outer loop
      vertex 13.51 33.5 8.5
      vertex 25.01 35.9 8.5
      vertex 25.01 33.5 8.5
    endloop
  endfacet
  facet normal -0 0 -1
    outer loop
      vertex 25.01 35.9 8.5
      vertex 13.51 33.5 8.5
      vertex 13.51 35.9 8.5
    endloop
  endfacet
  facet normal 0 -0.624695 0.780869
    outer loop
      vertex 13.51 35.9 10.42
      vertex 25.01 33.5 8.5
      vertex 25.01 35.9 10.42
    endloop
  endfacet
  facet normal 0 -0.624695 0.780869
    outer loop
      vertex 25.01 33.5 8.5
      vertex 13.51 35.9 10.42
      vertex 13.51 33.5 8.5
    endloop
  endfacet
  facet normal -1 0 0
    outer loop
      vertex 54.67 35.9 8.5
      vertex 54.67 33.5 8.5
      vertex 54.67 35.9 10.42
    endloop
  endfacet
  facet normal -1 0 0
    outer loop
      vertex 54.67 38 0
      vertex 54.67 35.9 4.5
      vertex 54.67 38 10.5
    endloop
  endfacet
  facet normal -1 0 0
    outer loop
      vertex 54.67 35 0
      vertex 54.67 35.9 4.5
      vertex 54.67 38 0
    endloop
  endfacet
  facet normal -1 -0 0
    outer loop
      vertex 54.67 35.9 4.5
      vertex 54.67 35 0
      vertex 54.67 35 4.5
    endloop
  endfacet
  facet normal -1 0 0
    outer loop
      vertex 54.67 35.9 8.5
      vertex 54.67 38 10.5
      vertex 54.67 35.9 4.5
    endloop
  endfacet
  facet normal -1 0 0
    outer loop
      vertex 54.67 35.9 10.42
      vertex 54.67 38 10.5
      vertex 54.67 35.9 8.5
    endloop
  endfacet
  facet normal -1 -0 0
    outer loop
      vertex 54.67 38 10.5
      vertex 54.67 35.9 10.42
      vertex 54.67 35.9 10.5
    endloop
  endfacet
  facet normal 1 0 0
    outer loop
      vertex 66.17 35.9 10.42
      vertex 66.17 33.5 8.5
      vertex 66.17 35.9 8.5
    endloop
  endfacet
  facet normal 1 0 0
    outer loop
      vertex 66.17 35.9 10.42
      vertex 66.17 38 10.5
      vertex 66.17 35.9 10.5
    endloop
  endfacet
  facet normal 1 0 0
    outer loop
      vertex 66.17 35.9 8.5
      vertex 66.17 38 10.5
      vertex 66.17 35.9 10.42
    endloop
  endfacet
  facet normal 1 0 0
    outer loop
      vertex 66.17 35.9 4.5
      vertex 66.17 38 10.5
      vertex 66.17 35.9 8.5
    endloop
  endfacet
  facet normal 1 0 0
    outer loop
      vertex 66.17 38 10.5
      vertex 66.17 35.9 4.5
      vertex 66.17 38 0
    endloop
  endfacet
  facet normal 1 0 0
    outer loop
      vertex 66.17 35 0
      vertex 66.17 35.9 4.5
      vertex 66.17 35 4.5
    endloop
  endfacet
  facet normal 1 0 0
    outer loop
      vertex 66.17 35.9 4.5
      vertex 66.17 35 0
      vertex 66.17 38 0
    endloop
  endfacet
  facet normal -0 0 1
    outer loop
      vertex 54.67 38 10.5
      vertex 66.17 35.9 10.5
      vertex 66.17 38 10.5
    endloop
  endfacet
  facet normal 0 0 1
    outer loop
      vertex 66.17 35.9 10.5
      vertex 54.67 38 10.5
      vertex 54.67 35.9 10.5
    endloop
  endfacet
  facet normal 0 -1 0
    outer loop
      vertex 54.67 35.9 10.42
      vertex 66.17 35.9 10.5
      vertex 54.67 35.9 10.5
    endloop
  endfacet
  facet normal 0 -1 -0
    outer loop
      vertex 66.17 35.9 10.5
      vertex 54.67 35.9 10.42
      vertex 66.17 35.9 10.42
    endloop
  endfacet
  facet normal 0 -1 0
    outer loop
      vertex 54.67 35.9 4.5
      vertex 66.17 35.9 8.5
      vertex 54.67 35.9 8.5
    endloop
  endfacet
  facet normal 0 -1 -0
    outer loop
      vertex 66.17 35.9 8.5
      vertex 54.67 35.9 4.5
      vertex 66.17 35.9 4.5
    endloop
  endfacet
  facet normal 0 1 -0
    outer loop
      vertex 66.17 38 0
      vertex 54.67 38 10.5
      vertex 66.17 38 10.5
    endloop
  endfacet
  facet normal 0 1 0
    outer loop
      vertex 54.67 38 10.5
      vertex 66.17 38 0
      vertex 54.67 38 0
    endloop
  endfacet
  facet normal 0 0 -1
    outer loop
      vertex 54.67 33.5 8.5
      vertex 66.17 35.9 8.5
      vertex 66.17 33.5 8.5
    endloop
  endfacet
  facet normal -0 0 -1
    outer loop
      vertex 66.17 35.9 8.5
      vertex 54.67 33.5 8.5
      vertex 54.67 35.9 8.5
    endloop
  endfacet
  facet normal 0 -0.624695 0.780869
    outer loop
      vertex 54.67 35.9 10.42
      vertex 66.17 33.5 8.5
      vertex 66.17 35.9 10.42
    endloop
  endfacet
  facet normal 0 -0.624695 0.780869
    outer loop
      vertex 66.17 33.5 8.5
      vertex 54.67 35.9 10.42
      vertex 54.67 33.5 8.5
    endloop
  endfacet
  facet normal -1 0 0
    outer loop
      vertex 95.83 35.9 8.5
      vertex 95.83 33.5 8.5
      vertex 95.83 35.9 10.42
    endloop
  endfacet
  facet normal -1 0 0
    outer loop
      vertex 95.83 38 0
      vertex 95.83 35.9 4.5
      vertex 95.83 38 10.5
    endloop
  endfacet
  facet normal -1 0 0
    outer loop
      vertex 95.83 35 0
      vertex 95.83 35.9 4.5
      vertex 95.83 38 0
    endloop
  endfacet
  facet normal -1 -0 0
    outer loop
      vertex 95.83 35.9 4.5
      vertex 95.83 35 0
      vertex 95.83 35 4.5
    endloop
  endfacet
  facet normal -1 0 0
    outer loop
      vertex 95.83 35.9 8.5
      vertex 95.83 38 10.5
      vertex 95.83 35.9 4.5
    endloop
  endfacet
  facet normal -1 0 0
    outer loop
      vertex 95.83 35.9 10.42
      vertex 95.83 38 10.5
      vertex 95.83 35.9 8.5
    endloop
  endfacet
  facet normal -1 -0 0
    outer loop
      vertex 95.83 38 10.5
      vertex 95.83 35.9 10.42
      vertex 95.83 35.9 10.5
    endloop
  endfacet
  facet normal 1 0 0
    outer loop
      vertex 107.33 35.9 10.42
      vertex 107.33 33.5 8.5
      vertex 107.33 35.9 8.5
    endloop
  endfacet
  facet normal 1 0 0
    outer loop
      vertex 107.33 35.9 10.42
      vertex 107.33 38 10.5
      vertex 107.33 35.9 10.5
    endloop
  endfacet
  facet normal 1 0 0
    outer loop
      vertex 107.33 35.9 8.5
      vertex 107.33 38 10.5
      vertex 107.33 35.9 10.42
    endloop
  endfacet
  facet normal 1 0 0
    outer loop
      vertex 107.33 35.9 4.5
      vertex 107.33 38 10.5
      vertex 107.33 35.9 8.5
    endloop
  endfacet
  facet normal 1 0 0
    outer loop
      vertex 107.33 38 10.5
      vertex 107.33 35.9 4.5
      vertex 107.33 38 0
    endloop
  endfacet
  facet normal 1 0 0
    outer loop
      vertex 107.33 35 0
      vertex 107.33 35.9 4.5
      vertex 107.33 35 4.5
    endloop
  endfacet
  facet normal 1 0 0
    outer loop
      vertex 107.33 35.9 4.5
      vertex 107.33 35 0
      vertex 107.33 38 0
    endloop
  endfacet
  facet normal -0 0 1
    outer loop
      vertex 95.83 38 10.5
      vertex 107.33 35.9 10.5
      vertex 107.33 38 10.5
    endloop
  endfacet
  facet normal 0 0 1
    outer loop
      vertex 107.33 35.9 10.5
      vertex 95.83 38 10.5
      vertex 95.83 35.9 10.5
    endloop
  endfacet
  facet normal 0 -1 0
    outer loop
      vertex 95.83 35.9 10.42
      vertex 107.33 35.9 10.5
      vertex 95.83 35.9 10.5
    endloop
  endfacet
  facet normal 0 -1 -0
    outer loop
      vertex 107.33 35.9 10.5
      vertex 95.83 35.9 10.42
      vertex 107.33 35.9 10.42
    endloop
  endfacet
  facet normal 0 -1 0
    outer loop
      vertex 95.83 35.9 4.5
      vertex 107.33 35.9 8.5
      vertex 95.83 35.9 8.5
    endloop
  endfacet
  facet normal 0 -1 -0
    outer loop
      vertex 107.33 35.9 8.5
      vertex 95.83 35.9 4.5
      vertex 107.33 35.9 4.5
    endloop
  endfacet
  facet normal 0 1 -0
    outer loop
      vertex 107.33 38 0
      vertex 95.83 38 10.5
      vertex 107.33 38 10.5
    endloop
  endfacet
  facet normal 0 1 0
    outer loop
      vertex 95.83 38 10.5
      vertex 107.33 38 0
      vertex 95.83 38 0
    endloop
  endfacet
  facet normal 0 0 -1
    outer loop
      vertex 95.83 33.5 8.5
      vertex 107.33 35.9 8.5
      vertex 107.33 33.5 8.5
    endloop
  endfacet
  facet normal -0 0 -1
    outer loop
      vertex 107.33 35.9 8.5
      vertex 95.83 33.5 8.5
      vertex 95.83 35.9 8.5
    endloop
  endfacet
  facet normal 0 -0.624695 0.780869
    outer loop
      vertex 95.83 35.9 10.42
      vertex 107.33 33.5 8.5
      vertex 107.33 35.9 10.42
    endloop
  endfacet
  facet normal 0 -0.624695 0.780869
    outer loop
      vertex 107.33 33.5 8.5
      vertex 95.83 35.9 10.42
      vertex 95.83 33.5 8.5
    endloop
  endfacet
endsolid OpenSCAD_Model
