solid OpenSCAD_Model
  facet normal 1 -0 0
    outer loop
      vertex 77.6 5.5 1.5
      vertex 77.6 29.5 0
      vertex 77.6 29.5 1.5
    endloop
  endfacet
  facet normal 1 0 0
    outer loop
      vertex 77.6 29.5 0
      vertex 77.6 5.5 1.5
      vertex 77.6 5.5 0
    endloop
  endfacet
  facet normal 0 -1 0
    outer loop
      vertex 77.6 29.5 0
      vertex 79.6 29.5 1.5
      vertex 77.6 29.5 1.5
    endloop
  endfacet
  facet normal 0 -1 -0
    outer loop
      vertex 79.6 29.5 1.5
      vertex 77.6 29.5 0
      vertex 79.6 29.5 0
    endloop
  endfacet
  facet normal -1 0 0
    outer loop
      vertex 79.6 5.5 0
      vertex 79.6 29.5 1.5
      vertex 79.6 29.5 0
    endloop
  endfacet
  facet normal -1 -0 0
    outer loop
      vertex 79.6 29.5 1.5
      vertex 79.6 5.5 0
      vertex 79.6 5.5 1.5
    endloop
  endfacet
  facet normal 0 1 -0
    outer loop
      vertex 79.6 5.5 0
      vertex 77.6 5.5 1.5
      vertex 79.6 5.5 1.5
    endloop
  endfacet
  facet normal 0 1 0
    outer loop
      vertex 77.6 5.5 1.5
      vertex 79.6 5.5 0
      vertex 77.6 5.5 0
    endloop
  endfacet
  facet normal 1 -0 0
    outer loop
      vertex 82.6 5.5 1.5
      vertex 82.6 29.5 0
      vertex 82.6 29.5 1.5
    endloop
  endfacet
  facet normal 1 0 0
    outer loop
      vertex 82.6 29.5 0
      vertex 82.6 5.5 1.5
      vertex 82.6 5.5 0
    endloop
  endfacet
  facet normal 0 -1 0
    outer loop
      vertex 82.6 29.5 0
      vertex 84.6 29.5 1.5
      vertex 82.6 29.5 1.5
    endloop
  endfacet
  facet normal 0 -1 -0
    outer loop
      vertex 84.6 29.5 1.5
      vertex 82.6 29.5 0
      vertex 84.6 29.5 0
    endloop
  endfacet
  facet normal -1 0 0
    outer loop
      vertex 84.6 5.5 0
      vertex 84.6 29.5 1.5
      vertex 84.6 29.5 0
    endloop
  endfacet
  facet normal -1 -0 0
    outer loop
      vertex 84.6 29.5 1.5
      vertex 84.6 5.5 0
      vertex 84.6 5.5 1.5
    endloop
  endfacet
  facet normal 0 1 -0
    outer loop
      vertex 84.6 5.5 0
      vertex 82.6 5.5 1.5
      vertex 84.6 5.5 1.5
    endloop
  endfacet
  facet normal 0 1 0
    outer loop
      vertex 82.6 5.5 1.5
      vertex 84.6 5.5 0
      vertex 82.6 5.5 0
    endloop
  endfacet
  facet normal 1 -0 0
    outer loop
      vertex 87.6 5.5 1.5
      vertex 87.6 29.5 0
      vertex 87.6 29.5 1.5
    endloop
  endfacet
  facet normal 1 0 0
    outer loop
      vertex 87.6 29.5 0
      vertex 87.6 5.5 1.5
      vertex 87.6 5.5 0
    endloop
  endfacet
  facet normal 0 -1 0
    outer loop
      vertex 87.6 29.5 0
      vertex 89.6 29.5 1.5
      vertex 87.6 29.5 1.5
    endloop
  endfacet
  facet normal 0 -1 -0
    outer loop
      vertex 89.6 29.5 1.5
      vertex 87.6 29.5 0
      vertex 89.6 29.5 0
    endloop
  endfacet
  facet normal -1 0 0
    outer loop
      vertex 89.6 5.5 0
      vertex 89.6 29.5 1.5
      vertex 89.6 29.5 0
    endloop
  endfacet
  facet normal -1 -0 0
    outer loop
      vertex 89.6 29.5 1.5
      vertex 89.6 5.5 0
      vertex 89.6 5.5 1.5
    endloop
  endfacet
  facet normal 0 1 -0
    outer loop
      vertex 89.6 5.5 0
      vertex 87.6 5.5 1.5
      vertex 89.6 5.5 1.5
    endloop
  endfacet
  facet normal 0 1 0
    outer loop
      vertex 87.6 5.5 1.5
      vertex 89.6 5.5 0
      vertex 87.6 5.5 0
    endloop
  endfacet
  facet normal 1 -0 0
    outer loop
      vertex 92.6 5.5 1.5
      vertex 92.6 29.5 0
      vertex 92.6 29.5 1.5
    endloop
  endfacet
  facet normal 1 0 0
    outer loop
      vertex 92.6 29.5 0
      vertex 92.6 5.5 1.5
      vertex 92.6 5.5 0
    endloop
  endfacet
  facet normal 0 -1 0
    outer loop
      vertex 92.6 29.5 0
      vertex 94.6 29.5 1.5
      vertex 92.6 29.5 1.5
    endloop
  endfacet
  facet normal 0 -1 -0
    outer loop
      vertex 94.6 29.5 1.5
      vertex 92.6 29.5 0
      vertex 94.6 29.5 0
    endloop
  endfacet
  facet normal -1 0 0
    outer loop
      vertex 94.6 5.5 0
      vertex 94.6 29.5 1.5
      vertex 94.6 29.5 0
    endloop
  endfacet
  facet normal -1 -0 0
    outer loop
      vertex 94.6 29.5 1.5
      vertex 94.6 5.5 0
      vertex 94.6 5.5 1.5
    endloop
  endfacet
  facet normal 0 1 -0
    outer loop
      vertex 94.6 5.5 0
      vertex 92.6 5.5 1.5
      vertex 94.6 5.5 1.5
    endloop
  endfacet
  facet normal 0 1 0
    outer loop
      vertex 92.6 5.5 1.5
      vertex 94.6 5.5 0
      vertex 92.6 5.5 0
    endloop
  endfacet
  facet normal 1 -0 0
    outer loop
      vertex 97.6 5.5 1.5
      vertex 97.6 29.5 0
      vertex 97.6 29.5 1.5
    endloop
  endfacet
  facet normal 1 0 0
    outer loop
      vertex 97.6 29.5 0
      vertex 97.6 5.5 1.5
      vertex 97.6 5.5 0
    endloop
  endfacet
  facet normal 0 -1 0
    outer loop
      vertex 97.6 29.5 0
      vertex 99.6 29.5 1.5
      vertex 97.6 29.5 1.5
    endloop
  endfacet
  facet normal 0 -1 -0
    outer loop
      vertex 99.6 29.5 1.5
      vertex 97.6 29.5 0
      vertex 99.6 29.5 0
    endloop
  endfacet
  facet normal -1 0 0
    outer loop
      vertex 99.6 5.5 0
      vertex 99.6 29.5 1.5
      vertex 99.6 29.5 0
    endloop
  endfacet
  facet normal -1 -0 0
    outer loop
      vertex 99.6 29.5 1.5
      vertex 99.6 5.5 0
      vertex 99.6 5.5 1.5
    endloop
  endfacet
  facet normal 0 1 -0
    outer loop
      vertex 99.6 5.5 0
      vertex 97.6 5.5 1.5
      vertex 99.6 5.5 1.5
    endloop
  endfacet
  facet normal 0 1 0
    outer loop
      vertex 97.6 5.5 1.5
      vertex 99.6 5.5 0
      vertex 97.6 5.5 0
    endloop
  endfacet
  facet normal 1 -0 0
    outer loop
      vertex 102.6 5.5 1.5
      vertex 102.6 29.5 0
      vertex 102.6 29.5 1.5
    endloop
  endfacet
  facet normal 1 0 0
    outer loop
      vertex 102.6 29.5 0
      vertex 102.6 5.5 1.5
      vertex 102.6 5.5 0
    endloop
  endfacet
  facet normal 0 -1 0
    outer loop
      vertex 102.6 29.5 0
      vertex 104.6 29.5 1.5
      vertex 102.6 29.5 1.5
    endloop
  endfacet
  facet normal 0 -1 -0
    outer loop
      vertex 104.6 29.5 1.5
      vertex 102.6 29.5 0
      vertex 104.6 29.5 0
    endloop
  endfacet
  facet normal -1 0 0
    outer loop
      vertex 104.6 5.5 0
      vertex 104.6 29.5 1.5
      vertex 104.6 29.5 0
    endloop
  endfacet
  facet normal -1 -0 0
    outer loop
      vertex 104.6 29.5 1.5
      vertex 104.6 5.5 0
      vertex 104.6 5.5 1.5
    endloop
  endfacet
  facet normal 0 1 -0
    outer loop
      vertex 104.6 5.5 0
      vertex 102.6 5.5 1.5
      vertex 104.6 5.5 1.5
    endloop
  endfacet
  facet normal 0 1 0
    outer loop
      vertex 102.6 5.5 1.5
      vertex 104.6 5.5 0
      vertex 102.6 5.5 0
    endloop
  endfacet
  facet normal 1 -0 0
    outer loop
      vertex 107.6 5.5 1.5
      vertex 107.6 29.5 0
      vertex 107.6 29.5 1.5
    endloop
  endfacet
  facet normal 1 0 0
    outer loop
      vertex 107.6 29.5 0
      vertex 107.6 5.5 1.5
      vertex 107.6 5.5 0
    endloop
  endfacet
  facet normal 0 -1 0
    outer loop
      vertex 107.6 29.5 0
      vertex 109.6 29.5 1.5
      vertex 107.6 29.5 1.5
    endloop
  endfacet
  facet normal 0 -1 -0
    outer loop
      vertex 109.6 29.5 1.5
      vertex 107.6 29.5 0
      vertex 109.6 29.5 0
    endloop
  endfacet
  facet normal -1 0 0
    outer loop
      vertex 109.6 5.5 0
      vertex 109.6 29.5 1.5
      vertex 109.6 29.5 0
    endloop
  endfacet
  facet normal -1 -0 0
    outer loop
      vertex 109.6 29.5 1.5
      vertex 109.6 5.5 0
      vertex 109.6 5.5 1.5
    endloop
  endfacet
  facet normal 0 1 -0
    outer loop
      vertex 109.6 5.5 0
      vertex 107.6 5.5 1.5
      vertex 109.6 5.5 1.5
    endloop
  endfacet
  facet normal 0 1 0
    outer loop
      vertex 107.6 5.5 1.5
      vertex 109.6 5.5 0
      vertex 107.6 5.5 0
    endloop
  endfacet
  facet normal 1 -0 0
    outer loop
      vertex 112.6 5.5 1.5
      vertex 112.6 29.5 0
      vertex 112.6 29.5 1.5
    endloop
  endfacet
  facet normal 1 0 0
    outer loop
      vertex 112.6 29.5 0
      vertex 112.6 5.5 1.5
      vertex 112.6 5.5 0
    endloop
  endfacet
  facet normal 0 -1 0
    outer loop
      vertex 112.6 29.5 0
      vertex 114.6 29.5 1.5
      vertex 112.6 29.5 1.5
    endloop
  endfacet
  facet normal 0 -1 -0
    outer loop
      vertex 114.6 29.5 1.5
      vertex 112.6 29.5 0
      vertex 114.6 29.5 0
    endloop
  endfacet
  facet normal -1 0 0
    outer loop
      vertex 114.6 5.5 0
      vertex 114.6 29.5 1.5
      vertex 114.6 29.5 0
    endloop
  endfacet
  facet normal -1 -0 0
    outer loop
      vertex 114.6 29.5 1.5
      vertex 114.6 5.5 0
      vertex 114.6 5.5 1.5
    endloop
  endfacet
  facet normal 0 1 -0
    outer loop
      vertex 114.6 5.5 0
      vertex 112.6 5.5 1.5
      vertex 114.6 5.5 1.5
    endloop
  endfacet
  facet normal 0 1 0
    outer loop
      vertex 112.6 5.5 1.5
      vertex 114.6 5.5 0
      vertex 112.6 5.5 0
    endloop
  endfacet
  facet normal -1 0 0
    outer loop
      vertex 0 0 0
      vertex 0 35 4.5
      vertex 0 35 0
    endloop
  endfacet
  facet normal -1 -0 0
    outer loop
      vertex 0 35 4.5
      vertex 0 0 0
      vertex 0 0 4.5
    endloop
  endfacet
  facet normal 0 0 1
    outer loop
      vertex 25.01 35.9 4.5
      vertex 13.51 35.9 4.5
      vertex 25.01 35 4.5
    endloop
  endfacet
  facet normal 0 0 1
    outer loop
      vertex 66.17 35.9 4.5
      vertex 54.67 35.9 4.5
      vertex 66.17 35 4.5
    endloop
  endfacet
  facet normal 0 0 1
    outer loop
      vertex 107.33 35.9 4.5
      vertex 95.83 35.9 4.5
      vertex 107.33 35 4.5
    endloop
  endfacet
  facet normal 0 0 1
    outer loop
      vertex 120.6 35 4.5
      vertex 119.1 33.5 4.5
      vertex 120.6 0 4.5
    endloop
  endfacet
  facet normal -0 0 1
    outer loop
      vertex 107.33 35 4.5
      vertex 119.1 33.5 4.5
      vertex 120.6 35 4.5
    endloop
  endfacet
  facet normal 0 0 1
    outer loop
      vertex 95.83 35 4.5
      vertex 107.33 35 4.5
      vertex 95.83 35.9 4.5
    endloop
  endfacet
  facet normal 0 0 1
    outer loop
      vertex 107.33 35 4.5
      vertex 95.83 35 4.5
      vertex 119.1 33.5 4.5
    endloop
  endfacet
  facet normal -0 0 1
    outer loop
      vertex 66.17 35 4.5
      vertex 119.1 33.5 4.5
      vertex 95.83 35 4.5
    endloop
  endfacet
  facet normal 0 0 1
    outer loop
      vertex 54.67 35 4.5
      vertex 66.17 35 4.5
      vertex 54.67 35.9 4.5
    endloop
  endfacet
  facet normal -0 0 1
    outer loop
      vertex 54.67 35 4.5
      vertex 119.1 33.5 4.5
      vertex 66.17 35 4.5
    endloop
  endfacet
  facet normal 0 0 1
    outer loop
      vertex 1.5 33.5 4.5
      vertex 54.67 35 4.5
      vertex 25.01 35 4.5
    endloop
  endfacet
  facet normal 0 0 1
    outer loop
      vertex 13.51 35 4.5
      vertex 25.01 35 4.5
      vertex 13.51 35.9 4.5
    endloop
  endfacet
  facet normal 0 0 1
    outer loop
      vertex 1.5 33.5 4.5
      vertex 25.01 35 4.5
      vertex 13.51 35 4.5
    endloop
  endfacet
  facet normal 0 0 1
    outer loop
      vertex 54.67 35 4.5
      vertex 1.5 33.5 4.5
      vertex 119.1 33.5 4.5
    endloop
  endfacet
  facet normal 0 0 1
    outer loop
      vertex 1.5 33.5 4.5
      vertex 0 35 4.5
      vertex 1.5 1.5 4.5
    endloop
  endfacet
  facet normal -0 0 1
    outer loop
      vertex 0 35 4.5
      vertex 1.5 33.5 4.5
      vertex 13.51 35 4.5
    endloop
  endfacet
  facet normal -0 0 1
    outer loop
      vertex 119.1 1.5 4.5
      vertex 120.6 0 4.5
      vertex 119.1 33.5 4.5
    endloop
  endfacet
  facet normal 0 0 1
    outer loop
      vertex 119.1 1.5 4.5
      vertex 107.33 0 4.5
      vertex 120.6 0 4.5
    endloop
  endfacet
  facet normal 0 0 1
    outer loop
      vertex 107.33 0 4.5
      vertex 95.83 0 4.5
      vertex 107.33 -0.9 4.5
    endloop
  endfacet
  facet normal 0 0 1
    outer loop
      vertex 119.1 1.5 4.5
      vertex 95.83 0 4.5
      vertex 107.33 0 4.5
    endloop
  endfacet
  facet normal 0 0 1
    outer loop
      vertex 119.1 1.5 4.5
      vertex 66.17 0 4.5
      vertex 95.83 0 4.5
    endloop
  endfacet
  facet normal 0 0 1
    outer loop
      vertex 66.17 0 4.5
      vertex 54.67 0 4.5
      vertex 66.17 -0.9 4.5
    endloop
  endfacet
  facet normal 0 0 1
    outer loop
      vertex 119.1 1.5 4.5
      vertex 54.67 0 4.5
      vertex 66.17 0 4.5
    endloop
  endfacet
  facet normal -0 0 1
    outer loop
      vertex 1.5 1.5 4.5
      vertex 54.67 0 4.5
      vertex 119.1 1.5 4.5
    endloop
  endfacet
  facet normal 0 0 1
    outer loop
      vertex 25.01 0 4.5
      vertex 13.51 0 4.5
      vertex 25.01 -0.9 4.5
    endloop
  endfacet
  facet normal 0 0 1
    outer loop
      vertex 54.67 0 4.5
      vertex 1.5 1.5 4.5
      vertex 25.01 0 4.5
    endloop
  endfacet
  facet normal 0 0 1
    outer loop
      vertex 25.01 0 4.5
      vertex 1.5 1.5 4.5
      vertex 13.51 0 4.5
    endloop
  endfacet
  facet normal 0 0 1
    outer loop
      vertex 1.5 1.5 4.5
      vertex 0 0 4.5
      vertex 13.51 0 4.5
    endloop
  endfacet
  facet normal 0 0 1
    outer loop
      vertex 0 0 4.5
      vertex 1.5 1.5 4.5
      vertex 0 35 4.5
    endloop
  endfacet
  facet normal 0 0 1
    outer loop
      vertex 107.33 -0.9 4.5
      vertex 95.83 0 4.5
      vertex 95.83 -0.9 4.5
    endloop
  endfacet
  facet normal 0 0 1
    outer loop
      vertex 66.17 -0.9 4.5
      vertex 54.67 0 4.5
      vertex 54.67 -0.9 4.5
    endloop
  endfacet
  facet normal 0 0 1
    outer loop
      vertex 25.01 -0.9 4.5
      vertex 13.51 0 4.5
      vertex 13.51 -0.9 4.5
    endloop
  endfacet
  facet normal 1 -0 0
    outer loop
      vertex 120.6 0 4.5
      vertex 120.6 35 0
      vertex 120.6 35 4.5
    endloop
  endfacet
  facet normal 1 0 0
    outer loop
      vertex 120.6 35 0
      vertex 120.6 0 4.5
      vertex 120.6 0 0
    endloop
  endfacet
  facet normal 0 0 -1
    outer loop
      vertex 0 0 0
      vertex 13.51 35 0
      vertex 13.51 0 0
    endloop
  endfacet
  facet normal -0 0 -1
    outer loop
      vertex 13.51 35 0
      vertex 0 0 0
      vertex 0 35 0
    endloop
  endfacet
  facet normal 0 0 -1
    outer loop
      vertex 13.51 0 0
      vertex 25.01 0 0
      vertex 25.01 -3 0
    endloop
  endfacet
  facet normal 0 0 -1
    outer loop
      vertex 25.01 0 0
      vertex 13.51 0 0
      vertex 25.01 35 0
    endloop
  endfacet
  facet normal 0 0 -1
    outer loop
      vertex 13.51 0 0
      vertex 25.01 -3 0
      vertex 13.51 -3 0
    endloop
  endfacet
  facet normal 0 0 -1
    outer loop
      vertex 13.51 35 0
      vertex 25.01 35 0
      vertex 13.51 0 0
    endloop
  endfacet
  facet normal 0 0 -1
    outer loop
      vertex 25.01 35 0
      vertex 13.51 35 0
      vertex 25.01 38 0
    endloop
  endfacet
  facet normal -0 0 -1
    outer loop
      vertex 25.01 38 0
      vertex 13.51 35 0
      vertex 13.51 38 0
    endloop
  endfacet
  facet normal 0 0 -1
    outer loop
      vertex 25.01 0 0
      vertex 54.67 35 0
      vertex 54.67 0 0
    endloop
  endfacet
  facet normal -0 0 -1
    outer loop
      vertex 54.67 35 0
      vertex 25.01 0 0
      vertex 25.01 35 0
    endloop
  endfacet
  facet normal 0 0 -1
    outer loop
      vertex 54.67 0 0
      vertex 66.17 0 0
      vertex 66.17 -3 0
    endloop
  endfacet
  facet normal 0 0 -1
    outer loop
      vertex 66.17 0 0
      vertex 54.67 0 0
      vertex 66.17 35 0
    endloop
  endfacet
  facet normal 0 0 -1
    outer loop
      vertex 54.67 0 0
      vertex 66.17 -3 0
      vertex 54.67 -3 0
    endloop
  endfacet
  facet normal 0 0 -1
    outer loop
      vertex 54.67 35 0
      vertex 66.17 35 0
      vertex 54.67 0 0
    endloop
  endfacet
  facet normal 0 0 -1
    outer loop
      vertex 66.17 35 0
      vertex 54.67 35 0
      vertex 66.17 38 0
    endloop
  endfacet
  facet normal -0 0 -1
    outer loop
      vertex 66.17 38 0
      vertex 54.67 35 0
      vertex 54.67 38 0
    endloop
  endfacet
  facet normal 0 0 -1
    outer loop
      vertex 94.6 29.5 0
      vertex 97.6 29.5 0
      vertex 94.6 5.5 0
    endloop
  endfacet
  facet normal 0 0 -1
    outer loop
      vertex 95.83 0 0
      vertex 92.6 5.5 0
      vertex 94.6 5.5 0
    endloop
  endfacet
  facet normal 0 0 -1
    outer loop
      vertex 92.6 5.5 0
      vertex 89.6 5.5 0
      vertex 92.6 29.5 0
    endloop
  endfacet
  facet normal 0 0 -1
    outer loop
      vertex 95.83 0 0
      vertex 89.6 5.5 0
      vertex 92.6 5.5 0
    endloop
  endfacet
  facet normal 0 0 -1
    outer loop
      vertex 95.83 0 0
      vertex 87.6 5.5 0
      vertex 89.6 5.5 0
    endloop
  endfacet
  facet normal 0 0 -1
    outer loop
      vertex 87.6 5.5 0
      vertex 84.6 5.5 0
      vertex 87.6 29.5 0
    endloop
  endfacet
  facet normal 0 0 -1
    outer loop
      vertex 95.83 0 0
      vertex 84.6 5.5 0
      vertex 87.6 5.5 0
    endloop
  endfacet
  facet normal 0 0 -1
    outer loop
      vertex 95.83 0 0
      vertex 82.6 5.5 0
      vertex 84.6 5.5 0
    endloop
  endfacet
  facet normal 0 0 -1
    outer loop
      vertex 82.6 5.5 0
      vertex 79.6 5.5 0
      vertex 82.6 29.5 0
    endloop
  endfacet
  facet normal 0 0 -1
    outer loop
      vertex 95.83 0 0
      vertex 79.6 5.5 0
      vertex 82.6 5.5 0
    endloop
  endfacet
  facet normal 0 0 -1
    outer loop
      vertex 66.17 0 0
      vertex 79.6 5.5 0
      vertex 95.83 0 0
    endloop
  endfacet
  facet normal -0 0 -1
    outer loop
      vertex 77.6 5.5 0
      vertex 66.17 0 0
      vertex 77.6 29.5 0
    endloop
  endfacet
  facet normal -0 0 -1
    outer loop
      vertex 79.6 5.5 0
      vertex 66.17 0 0
      vertex 77.6 5.5 0
    endloop
  endfacet
  facet normal 0 0 -1
    outer loop
      vertex 97.6 29.5 0
      vertex 94.6 29.5 0
      vertex 95.83 35 0
    endloop
  endfacet
  facet normal 0 0 -1
    outer loop
      vertex 92.6 29.5 0
      vertex 95.83 35 0
      vertex 94.6 29.5 0
    endloop
  endfacet
  facet normal 0 0 -1
    outer loop
      vertex 89.6 29.5 0
      vertex 92.6 29.5 0
      vertex 89.6 5.5 0
    endloop
  endfacet
  facet normal 0 0 -1
    outer loop
      vertex 89.6 29.5 0
      vertex 95.83 35 0
      vertex 92.6 29.5 0
    endloop
  endfacet
  facet normal 0 0 -1
    outer loop
      vertex 87.6 29.5 0
      vertex 95.83 35 0
      vertex 89.6 29.5 0
    endloop
  endfacet
  facet normal 0 0 -1
    outer loop
      vertex 84.6 29.5 0
      vertex 87.6 29.5 0
      vertex 84.6 5.5 0
    endloop
  endfacet
  facet normal 0 0 -1
    outer loop
      vertex 84.6 29.5 0
      vertex 95.83 35 0
      vertex 87.6 29.5 0
    endloop
  endfacet
  facet normal 0 0 -1
    outer loop
      vertex 82.6 29.5 0
      vertex 95.83 35 0
      vertex 84.6 29.5 0
    endloop
  endfacet
  facet normal 0 0 -1
    outer loop
      vertex 79.6 29.5 0
      vertex 82.6 29.5 0
      vertex 79.6 5.5 0
    endloop
  endfacet
  facet normal 0 0 -1
    outer loop
      vertex 79.6 29.5 0
      vertex 95.83 35 0
      vertex 82.6 29.5 0
    endloop
  endfacet
  facet normal 0 0 -1
    outer loop
      vertex 66.17 35 0
      vertex 79.6 29.5 0
      vertex 77.6 29.5 0
    endloop
  endfacet
  facet normal 0 0 -1
    outer loop
      vertex 79.6 29.5 0
      vertex 66.17 35 0
      vertex 95.83 35 0
    endloop
  endfacet
  facet normal 0 0 -1
    outer loop
      vertex 66.17 35 0
      vertex 77.6 29.5 0
      vertex 66.17 0 0
    endloop
  endfacet
  facet normal 0 0 -1
    outer loop
      vertex 95.83 0 0
      vertex 107.33 0 0
      vertex 107.33 -3 0
    endloop
  endfacet
  facet normal 0 0 -1
    outer loop
      vertex 107.33 0 0
      vertex 104.6 5.5 0
      vertex 107.33 35 0
    endloop
  endfacet
  facet normal 0 0 -1
    outer loop
      vertex 104.6 29.5 0
      vertex 107.33 35 0
      vertex 104.6 5.5 0
    endloop
  endfacet
  facet normal 0 0 -1
    outer loop
      vertex 107.33 0 0
      vertex 102.6 5.5 0
      vertex 104.6 5.5 0
    endloop
  endfacet
  facet normal 0 0 -1
    outer loop
      vertex 102.6 5.5 0
      vertex 99.6 5.5 0
      vertex 102.6 29.5 0
    endloop
  endfacet
  facet normal 0 0 -1
    outer loop
      vertex 107.33 0 0
      vertex 95.83 0 0
      vertex 102.6 5.5 0
    endloop
  endfacet
  facet normal -0 0 -1
    outer loop
      vertex 102.6 5.5 0
      vertex 95.83 0 0
      vertex 99.6 5.5 0
    endloop
  endfacet
  facet normal -0 0 -1
    outer loop
      vertex 99.6 5.5 0
      vertex 95.83 0 0
      vertex 97.6 5.5 0
    endloop
  endfacet
  facet normal 0 0 -1
    outer loop
      vertex 95.83 0 0
      vertex 107.33 -3 0
      vertex 95.83 -3 0
    endloop
  endfacet
  facet normal 0 0 -1
    outer loop
      vertex 102.6 29.5 0
      vertex 107.33 35 0
      vertex 104.6 29.5 0
    endloop
  endfacet
  facet normal 0 0 -1
    outer loop
      vertex 95.83 35 0
      vertex 107.33 35 0
      vertex 102.6 29.5 0
    endloop
  endfacet
  facet normal 0 0 -1
    outer loop
      vertex 99.6 29.5 0
      vertex 102.6 29.5 0
      vertex 99.6 5.5 0
    endloop
  endfacet
  facet normal 0 0 -1
    outer loop
      vertex 95.83 35 0
      vertex 102.6 29.5 0
      vertex 99.6 29.5 0
    endloop
  endfacet
  facet normal 0 0 -1
    outer loop
      vertex 95.83 35 0
      vertex 99.6 29.5 0
      vertex 97.6 29.5 0
    endloop
  endfacet
  facet normal 0 0 -1
    outer loop
      vertex 94.6 5.5 0
      vertex 97.6 5.5 0
      vertex 95.83 0 0
    endloop
  endfacet
  facet normal 0 0 -1
    outer loop
      vertex 97.6 5.5 0
      vertex 94.6 5.5 0
      vertex 97.6 29.5 0
    endloop
  endfacet
  facet normal 0 0 -1
    outer loop
      vertex 107.33 35 0
      vertex 95.83 35 0
      vertex 107.33 38 0
    endloop
  endfacet
  facet normal -0 0 -1
    outer loop
      vertex 107.33 38 0
      vertex 95.83 35 0
      vertex 95.83 38 0
    endloop
  endfacet
  facet normal 0 0 -1
    outer loop
      vertex 120.6 0 0
      vertex 114.6 5.5 0
      vertex 120.6 35 0
    endloop
  endfacet
  facet normal 0 0 -1
    outer loop
      vertex 107.33 0 0
      vertex 114.6 5.5 0
      vertex 120.6 0 0
    endloop
  endfacet
  facet normal 0 0 -1
    outer loop
      vertex 112.6 5.5 0
      vertex 109.6 5.5 0
      vertex 112.6 29.5 0
    endloop
  endfacet
  facet normal -0 0 -1
    outer loop
      vertex 114.6 5.5 0
      vertex 107.33 0 0
      vertex 112.6 5.5 0
    endloop
  endfacet
  facet normal -0 0 -1
    outer loop
      vertex 112.6 5.5 0
      vertex 107.33 0 0
      vertex 109.6 5.5 0
    endloop
  endfacet
  facet normal -0 0 -1
    outer loop
      vertex 107.6 5.5 0
      vertex 107.33 0 0
      vertex 107.6 29.5 0
    endloop
  endfacet
  facet normal -0 0 -1
    outer loop
      vertex 109.6 5.5 0
      vertex 107.33 0 0
      vertex 107.6 5.5 0
    endloop
  endfacet
  facet normal 0 0 -1
    outer loop
      vertex 114.6 29.5 0
      vertex 120.6 35 0
      vertex 114.6 5.5 0
    endloop
  endfacet
  facet normal 0 0 -1
    outer loop
      vertex 107.33 35 0
      vertex 114.6 29.5 0
      vertex 112.6 29.5 0
    endloop
  endfacet
  facet normal 0 0 -1
    outer loop
      vertex 109.6 29.5 0
      vertex 112.6 29.5 0
      vertex 109.6 5.5 0
    endloop
  endfacet
  facet normal 0 0 -1
    outer loop
      vertex 107.33 35 0
      vertex 112.6 29.5 0
      vertex 109.6 29.5 0
    endloop
  endfacet
  facet normal 0 0 -1
    outer loop
      vertex 107.33 35 0
      vertex 109.6 29.5 0
      vertex 107.6 29.5 0
    endloop
  endfacet
  facet normal 0 0 -1
    outer loop
      vertex 114.6 29.5 0
      vertex 107.33 35 0
      vertex 120.6 35 0
    endloop
  endfacet
  facet normal 0 0 -1
    outer loop
      vertex 107.33 35 0
      vertex 107.6 29.5 0
      vertex 107.33 0 0
    endloop
  endfacet
  facet normal 0 -1 0
    outer loop
      vertex 107.33 0 0
      vertex 120.6 0 4.5
      vertex 107.33 0 4.5
    endloop
  endfacet
  facet normal 0 -1 -0
    outer loop
      vertex 120.6 0 4.5
      vertex 107.33 0 0
      vertex 120.6 0 0
    endloop
  endfacet
  facet normal 0 -1 0
    outer loop
      vertex 0 0 0
      vertex 13.51 0 4.5
      vertex 0 0 4.5
    endloop
  endfacet
  facet normal 0 -1 -0
    outer loop
      vertex 13.51 0 4.5
      vertex 0 0 0
      vertex 13.51 0 0
    endloop
  endfacet
  facet normal 0 -1 0
    outer loop
      vertex 25.01 0 0
      vertex 54.67 0 4.5
      vertex 25.01 0 4.5
    endloop
  endfacet
  facet normal 0 -1 -0
    outer loop
      vertex 54.67 0 4.5
      vertex 25.01 0 0
      vertex 54.67 0 0
    endloop
  endfacet
  facet normal 0 -1 0
    outer loop
      vertex 66.17 0 0
      vertex 95.83 0 4.5
      vertex 66.17 0 4.5
    endloop
  endfacet
  facet normal 0 -1 -0
    outer loop
      vertex 95.83 0 4.5
      vertex 66.17 0 0
      vertex 95.83 0 0
    endloop
  endfacet
  facet normal 0 1 -0
    outer loop
      vertex 120.6 35 0
      vertex 107.33 35 4.5
      vertex 120.6 35 4.5
    endloop
  endfacet
  facet normal 0 1 0
    outer loop
      vertex 107.33 35 4.5
      vertex 120.6 35 0
      vertex 107.33 35 0
    endloop
  endfacet
  facet normal 0 1 -0
    outer loop
      vertex 13.51 35 0
      vertex 0 35 4.5
      vertex 13.51 35 4.5
    endloop
  endfacet
  facet normal 0 1 0
    outer loop
      vertex 0 35 4.5
      vertex 13.51 35 0
      vertex 0 35 0
    endloop
  endfacet
  facet normal 0 1 -0
    outer loop
      vertex 54.67 35 0
      vertex 25.01 35 4.5
      vertex 54.67 35 4.5
    endloop
  endfacet
  facet normal 0 1 0
    outer loop
      vertex 25.01 35 4.5
      vertex 54.67 35 0
      vertex 25.01 35 0
    endloop
  endfacet
  facet normal 0 1 -0
    outer loop
      vertex 95.83 35 0
      vertex 66.17 35 4.5
      vertex 95.83 35 4.5
    endloop
  endfacet
  facet normal 0 1 0
    outer loop
      vertex 66.17 35 4.5
      vertex 95.83 35 0
      vertex 66.17 35 0
    endloop
  endfacet
  facet normal 1 -0 0
    outer loop
      vertex 1.5 1.5 4.5
      vertex 1.5 33.5 1.5
      vertex 1.5 33.5 4.5
    endloop
  endfacet
  facet normal 1 0 0
    outer loop
      vertex 1.5 33.5 1.5
      vertex 1.5 1.5 4.5
      vertex 1.5 1.5 1.5
    endloop
  endfacet
  facet normal -1 0 0
    outer loop
      vertex 119.1 1.5 1.5
      vertex 119.1 33.5 4.5
      vertex 119.1 33.5 1.5
    endloop
  endfacet
  facet normal -1 -0 0
    outer loop
      vertex 119.1 33.5 4.5
      vertex 119.1 1.5 1.5
      vertex 119.1 1.5 4.5
    endloop
  endfacet
  facet normal 0 -1 0
    outer loop
      vertex 1.5 33.5 1.5
      vertex 119.1 33.5 4.5
      vertex 1.5 33.5 4.5
    endloop
  endfacet
  facet normal 0 -1 -0
    outer loop
      vertex 119.1 33.5 4.5
      vertex 1.5 33.5 1.5
      vertex 119.1 33.5 1.5
    endloop
  endfacet
  facet normal -0 0 1
    outer loop
      vertex 4.8 26.1 1.5
      vertex 7.8 8.9 1.5
      vertex 7.8 26.1 1.5
    endloop
  endfacet
  facet normal 0 0 1
    outer loop
      vertex 7.8 8.9 1.5
      vertex 4.8 26.1 1.5
      vertex 4.8 8.9 1.5
    endloop
  endfacet
  facet normal -0 0 1
    outer loop
      vertex 54.4 26.1 1.5
      vertex 57.4 8.9 1.5
      vertex 57.4 26.1 1.5
    endloop
  endfacet
  facet normal 0 0 1
    outer loop
      vertex 57.4 8.9 1.5
      vertex 54.4 26.1 1.5
      vertex 54.4 8.9 1.5
    endloop
  endfacet
  facet normal 0 0 1
    outer loop
      vertex 119.1 33.5 1.5
      vertex 114.6 29.5 1.5
      vertex 119.1 1.5 1.5
    endloop
  endfacet
  facet normal 0 0 1
    outer loop
      vertex 119.1 33.5 1.5
      vertex 112.6 29.5 1.5
      vertex 114.6 29.5 1.5
    endloop
  endfacet
  facet normal 0 0 1
    outer loop
      vertex 112.6 29.5 1.5
      vertex 109.6 29.5 1.5
      vertex 112.6 5.5 1.5
    endloop
  endfacet
  facet normal 0 0 1
    outer loop
      vertex 119.1 33.5 1.5
      vertex 109.6 29.5 1.5
      vertex 112.6 29.5 1.5
    endloop
  endfacet
  facet normal 0 0 1
    outer loop
      vertex 119.1 33.5 1.5
      vertex 107.6 29.5 1.5
      vertex 109.6 29.5 1.5
    endloop
  endfacet
  facet normal 0 0 1
    outer loop
      vertex 107.6 29.5 1.5
      vertex 104.6 29.5 1.5
      vertex 107.6 5.5 1.5
    endloop
  endfacet
  facet normal 0 0 1
    outer loop
      vertex 119.1 33.5 1.5
      vertex 104.6 29.5 1.5
      vertex 107.6 29.5 1.5
    endloop
  endfacet
  facet normal 0 0 1
    outer loop
      vertex 119.1 33.5 1.5
      vertex 102.6 29.5 1.5
      vertex 104.6 29.5 1.5
    endloop
  endfacet
  facet normal 0 0 1
    outer loop
      vertex 102.6 29.5 1.5
      vertex 99.6 29.5 1.5
      vertex 102.6 5.5 1.5
    endloop
  endfacet
  facet normal 0 0 1
    outer loop
      vertex 119.1 33.5 1.5
      vertex 99.6 29.5 1.5
      vertex 102.6 29.5 1.5
    endloop
  endfacet
  facet normal 0 0 1
    outer loop
      vertex 119.1 33.5 1.5
      vertex 97.6 29.5 1.5
      vertex 99.6 29.5 1.5
    endloop
  endfacet
  facet normal 0 0 1
    outer loop
      vertex 97.6 29.5 1.5
      vertex 94.6 29.5 1.5
      vertex 97.6 5.5 1.5
    endloop
  endfacet
  facet normal 0 0 1
    outer loop
      vertex 119.1 33.5 1.5
      vertex 94.6 29.5 1.5
      vertex 97.6 29.5 1.5
    endloop
  endfacet
  facet normal 0 0 1
    outer loop
      vertex 119.1 33.5 1.5
      vertex 92.6 29.5 1.5
      vertex 94.6 29.5 1.5
    endloop
  endfacet
  facet normal 0 0 1
    outer loop
      vertex 92.6 29.5 1.5
      vertex 89.6 29.5 1.5
      vertex 92.6 5.5 1.5
    endloop
  endfacet
  facet normal 0 0 1
    outer loop
      vertex 119.1 33.5 1.5
      vertex 89.6 29.5 1.5
      vertex 92.6 29.5 1.5
    endloop
  endfacet
  facet normal 0 0 1
    outer loop
      vertex 119.1 33.5 1.5
      vertex 87.6 29.5 1.5
      vertex 89.6 29.5 1.5
    endloop
  endfacet
  facet normal 0 0 1
    outer loop
      vertex 87.6 29.5 1.5
      vertex 84.6 29.5 1.5
      vertex 87.6 5.5 1.5
    endloop
  endfacet
  facet normal 0 0 1
    outer loop
      vertex 119.1 33.5 1.5
      vertex 84.6 29.5 1.5
      vertex 87.6 29.5 1.5
    endloop
  endfacet
  facet normal 0 0 1
    outer loop
      vertex 119.1 33.5 1.5
      vertex 82.6 29.5 1.5
      vertex 84.6 29.5 1.5
    endloop
  endfacet
  facet normal 0 0 1
    outer loop
      vertex 82.6 29.5 1.5
      vertex 79.6 29.5 1.5
      vertex 82.6 5.5 1.5
    endloop
  endfacet
  facet normal 0 0 1
    outer loop
      vertex 119.1 33.5 1.5
      vertex 79.6 29.5 1.5
      vertex 82.6 29.5 1.5
    endloop
  endfacet
  facet normal 0 0 1
    outer loop
      vertex 119.1 33.5 1.5
      vertex 77.6 29.5 1.5
      vertex 79.6 29.5 1.5
    endloop
  endfacet
  facet normal 0 0 1
    outer loop
      vertex 57.4 26.1 1.5
      vertex 77.6 29.5 1.5
      vertex 57.4 29.1 1.5
    endloop
  endfacet
  facet normal 0 0 1
    outer loop
      vertex 119.1 33.5 1.5
      vertex 57.4 29.1 1.5
      vertex 77.6 29.5 1.5
    endloop
  endfacet
  facet normal -0 0 1
    outer loop
      vertex 1.5 33.5 1.5
      vertex 57.4 29.1 1.5
      vertex 119.1 33.5 1.5
    endloop
  endfacet
  facet normal 0 0 1
    outer loop
      vertex 7.8 26.1 1.5
      vertex 54.4 26.1 1.5
      vertex 54.4 29.1 1.5
    endloop
  endfacet
  facet normal 0 0 1
    outer loop
      vertex 54.4 26.1 1.5
      vertex 7.8 26.1 1.5
      vertex 54.4 8.9 1.5
    endloop
  endfacet
  facet normal 0 0 1
    outer loop
      vertex 7.8 26.1 1.5
      vertex 54.4 29.1 1.5
      vertex 7.8 29.1 1.5
    endloop
  endfacet
  facet normal 0 0 1
    outer loop
      vertex 57.4 29.1 1.5
      vertex 1.5 33.5 1.5
      vertex 54.4 29.1 1.5
    endloop
  endfacet
  facet normal 0 0 1
    outer loop
      vertex 54.4 29.1 1.5
      vertex 1.5 33.5 1.5
      vertex 7.8 29.1 1.5
    endloop
  endfacet
  facet normal 0 0 1
    outer loop
      vertex 1.5 33.5 1.5
      vertex 4.8 26.1 1.5
      vertex 4.8 29.1 1.5
    endloop
  endfacet
  facet normal 0 0 1
    outer loop
      vertex 4.8 26.1 1.5
      vertex 1.5 33.5 1.5
      vertex 4.8 8.9 1.5
    endloop
  endfacet
  facet normal 0 0 1
    outer loop
      vertex 1.5 1.5 1.5
      vertex 4.8 8.9 1.5
      vertex 1.5 33.5 1.5
    endloop
  endfacet
  facet normal 0 0 1
    outer loop
      vertex 7.8 29.1 1.5
      vertex 1.5 33.5 1.5
      vertex 4.8 29.1 1.5
    endloop
  endfacet
  facet normal -0 0 1
    outer loop
      vertex 114.6 5.5 1.5
      vertex 119.1 1.5 1.5
      vertex 114.6 29.5 1.5
    endloop
  endfacet
  facet normal -0 0 1
    outer loop
      vertex 112.6 5.5 1.5
      vertex 119.1 1.5 1.5
      vertex 114.6 5.5 1.5
    endloop
  endfacet
  facet normal 0 0 1
    outer loop
      vertex 109.6 5.5 1.5
      vertex 112.6 5.5 1.5
      vertex 109.6 29.5 1.5
    endloop
  endfacet
  facet normal -0 0 1
    outer loop
      vertex 109.6 5.5 1.5
      vertex 119.1 1.5 1.5
      vertex 112.6 5.5 1.5
    endloop
  endfacet
  facet normal -0 0 1
    outer loop
      vertex 107.6 5.5 1.5
      vertex 119.1 1.5 1.5
      vertex 109.6 5.5 1.5
    endloop
  endfacet
  facet normal 0 0 1
    outer loop
      vertex 104.6 5.5 1.5
      vertex 107.6 5.5 1.5
      vertex 104.6 29.5 1.5
    endloop
  endfacet
  facet normal -0 0 1
    outer loop
      vertex 104.6 5.5 1.5
      vertex 119.1 1.5 1.5
      vertex 107.6 5.5 1.5
    endloop
  endfacet
  facet normal -0 0 1
    outer loop
      vertex 102.6 5.5 1.5
      vertex 119.1 1.5 1.5
      vertex 104.6 5.5 1.5
    endloop
  endfacet
  facet normal 0 0 1
    outer loop
      vertex 99.6 5.5 1.5
      vertex 102.6 5.5 1.5
      vertex 99.6 29.5 1.5
    endloop
  endfacet
  facet normal -0 0 1
    outer loop
      vertex 99.6 5.5 1.5
      vertex 119.1 1.5 1.5
      vertex 102.6 5.5 1.5
    endloop
  endfacet
  facet normal -0 0 1
    outer loop
      vertex 97.6 5.5 1.5
      vertex 119.1 1.5 1.5
      vertex 99.6 5.5 1.5
    endloop
  endfacet
  facet normal 0 0 1
    outer loop
      vertex 94.6 5.5 1.5
      vertex 97.6 5.5 1.5
      vertex 94.6 29.5 1.5
    endloop
  endfacet
  facet normal -0 0 1
    outer loop
      vertex 94.6 5.5 1.5
      vertex 119.1 1.5 1.5
      vertex 97.6 5.5 1.5
    endloop
  endfacet
  facet normal -0 0 1
    outer loop
      vertex 92.6 5.5 1.5
      vertex 119.1 1.5 1.5
      vertex 94.6 5.5 1.5
    endloop
  endfacet
  facet normal 0 0 1
    outer loop
      vertex 89.6 5.5 1.5
      vertex 92.6 5.5 1.5
      vertex 89.6 29.5 1.5
    endloop
  endfacet
  facet normal -0 0 1
    outer loop
      vertex 89.6 5.5 1.5
      vertex 119.1 1.5 1.5
      vertex 92.6 5.5 1.5
    endloop
  endfacet
  facet normal -0 0 1
    outer loop
      vertex 87.6 5.5 1.5
      vertex 119.1 1.5 1.5
      vertex 89.6 5.5 1.5
    endloop
  endfacet
  facet normal 0 0 1
    outer loop
      vertex 84.6 5.5 1.5
      vertex 87.6 5.5 1.5
      vertex 84.6 29.5 1.5
    endloop
  endfacet
  facet normal -0 0 1
    outer loop
      vertex 84.6 5.5 1.5
      vertex 119.1 1.5 1.5
      vertex 87.6 5.5 1.5
    endloop
  endfacet
  facet normal -0 0 1
    outer loop
      vertex 82.6 5.5 1.5
      vertex 119.1 1.5 1.5
      vertex 84.6 5.5 1.5
    endloop
  endfacet
  facet normal 0 0 1
    outer loop
      vertex 79.6 5.5 1.5
      vertex 82.6 5.5 1.5
      vertex 79.6 29.5 1.5
    endloop
  endfacet
  facet normal -0 0 1
    outer loop
      vertex 79.6 5.5 1.5
      vertex 119.1 1.5 1.5
      vertex 82.6 5.5 1.5
    endloop
  endfacet
  facet normal -0 0 1
    outer loop
      vertex 77.6 5.5 1.5
      vertex 119.1 1.5 1.5
      vertex 79.6 5.5 1.5
    endloop
  endfacet
  facet normal 0 0 1
    outer loop
      vertex 77.6 29.5 1.5
      vertex 57.4 26.1 1.5
      vertex 77.6 5.5 1.5
    endloop
  endfacet
  facet normal -0 0 1
    outer loop
      vertex 57.4 8.9 1.5
      vertex 77.6 5.5 1.5
      vertex 57.4 26.1 1.5
    endloop
  endfacet
  facet normal -0 0 1
    outer loop
      vertex 57.4 5.9 1.5
      vertex 77.6 5.5 1.5
      vertex 57.4 8.9 1.5
    endloop
  endfacet
  facet normal 0 0 1
    outer loop
      vertex 57.4 5.9 1.5
      vertex 119.1 1.5 1.5
      vertex 77.6 5.5 1.5
    endloop
  endfacet
  facet normal 0 0 1
    outer loop
      vertex 1.5 1.5 1.5
      vertex 57.4 5.9 1.5
      vertex 54.4 5.9 1.5
    endloop
  endfacet
  facet normal 0 0 1
    outer loop
      vertex 7.8 8.9 1.5
      vertex 54.4 8.9 1.5
      vertex 7.8 26.1 1.5
    endloop
  endfacet
  facet normal 0 0 1
    outer loop
      vertex 54.4 8.9 1.5
      vertex 7.8 8.9 1.5
      vertex 54.4 5.9 1.5
    endloop
  endfacet
  facet normal 0 0 1
    outer loop
      vertex 7.8 5.9 1.5
      vertex 54.4 5.9 1.5
      vertex 7.8 8.9 1.5
    endloop
  endfacet
  facet normal 0 0 1
    outer loop
      vertex 1.5 1.5 1.5
      vertex 54.4 5.9 1.5
      vertex 7.8 5.9 1.5
    endloop
  endfacet
  facet normal 0 0 1
    outer loop
      vertex 1.5 1.5 1.5
      vertex 7.8 5.9 1.5
      vertex 4.8 5.9 1.5
    endloop
  endfacet
  facet normal 0 0 1
    outer loop
      vertex 57.4 5.9 1.5
      vertex 1.5 1.5 1.5
      vertex 119.1 1.5 1.5
    endloop
  endfacet
  facet normal 0 0 1
    outer loop
      vertex 4.8 8.9 1.5
      vertex 1.5 1.5 1.5
      vertex 4.8 5.9 1.5
    endloop
  endfacet
  facet normal 0 1 -0
    outer loop
      vertex 119.1 1.5 1.5
      vertex 1.5 1.5 4.5
      vertex 119.1 1.5 4.5
    endloop
  endfacet
  facet normal 0 1 0
    outer loop
      vertex 1.5 1.5 4.5
      vertex 119.1 1.5 1.5
      vertex 1.5 1.5 1.5
    endloop
  endfacet
  facet normal -1 0 0
    outer loop
      vertex 13.51 0 0
      vertex 13.51 -0.9 4.5
      vertex 13.51 0 4.5
    endloop
  endfacet
  facet normal -1 0 0
    outer loop
      vertex 13.51 -3 10.5
      vertex 13.51 -0.9 8.5
      vertex 13.51 -0.9 4.5
    endloop
  endfacet
  facet normal -1 0 0
    outer loop
      vertex 13.51 -0.9 8.5
      vertex 13.51 -3 10.5
      vertex 13.51 -0.9 10.4375
    endloop
  endfacet
  facet normal -1 0 0
    outer loop
      vertex 13.51 -3 0
      vertex 13.51 -0.9 4.5
      vertex 13.51 0 0
    endloop
  endfacet
  facet normal -1 0 0
    outer loop
      vertex 13.51 -3 10.5
      vertex 13.51 -0.9 4.5
      vertex 13.51 -3 0
    endloop
  endfacet
  facet normal -1 0 0
    outer loop
      vertex 13.51 -0.9 10.4375
      vertex 13.51 -3 10.5
      vertex 13.51 -0.9 10.5
    endloop
  endfacet
  facet normal -1 0 0
    outer loop
      vertex 13.51 2.2 8.5
      vertex 13.51 -0.9 8.5
      vertex 13.51 -0.9 10.4375
    endloop
  endfacet
  facet normal 1 -0 0
    outer loop
      vertex 25.01 -3 10.5
      vertex 25.01 -0.9 10.4375
      vertex 25.01 -0.9 10.5
    endloop
  endfacet
  facet normal 1 0 0
    outer loop
      vertex 25.01 -0.9 10.4375
      vertex 25.01 -3 10.5
      vertex 25.01 -0.9 8.5
    endloop
  endfacet
  facet normal 1 0 0
    outer loop
      vertex 25.01 -0.9 8.5
      vertex 25.01 -3 10.5
      vertex 25.01 -0.9 4.5
    endloop
  endfacet
  facet normal 1 0 0
    outer loop
      vertex 25.01 2.2 8.5
      vertex 25.01 -0.9 10.4375
      vertex 25.01 -0.9 8.5
    endloop
  endfacet
  facet normal 1 -0 0
    outer loop
      vertex 25.01 -0.9 4.5
      vertex 25.01 0 0
      vertex 25.01 0 4.5
    endloop
  endfacet
  facet normal 1 0 0
    outer loop
      vertex 25.01 -3 0
      vertex 25.01 -0.9 4.5
      vertex 25.01 -3 10.5
    endloop
  endfacet
  facet normal 1 0 0
    outer loop
      vertex 25.01 -0.9 4.5
      vertex 25.01 -3 0
      vertex 25.01 0 0
    endloop
  endfacet
  facet normal -0 0 1
    outer loop
      vertex 13.51 -0.9 10.5
      vertex 25.01 -3 10.5
      vertex 25.01 -0.9 10.5
    endloop
  endfacet
  facet normal 0 0 1
    outer loop
      vertex 25.01 -3 10.5
      vertex 13.51 -0.9 10.5
      vertex 13.51 -3 10.5
    endloop
  endfacet
  facet normal 0 1 -0
    outer loop
      vertex 25.01 -0.9 10.4375
      vertex 13.51 -0.9 10.5
      vertex 25.01 -0.9 10.5
    endloop
  endfacet
  facet normal 0 1 0
    outer loop
      vertex 13.51 -0.9 10.5
      vertex 25.01 -0.9 10.4375
      vertex 13.51 -0.9 10.4375
    endloop
  endfacet
  facet normal 0 1 -0
    outer loop
      vertex 25.01 -0.9 4.5
      vertex 13.51 -0.9 8.5
      vertex 25.01 -0.9 8.5
    endloop
  endfacet
  facet normal 0 1 0
    outer loop
      vertex 13.51 -0.9 8.5
      vertex 25.01 -0.9 4.5
      vertex 13.51 -0.9 4.5
    endloop
  endfacet
  facet normal 0 -1 0
    outer loop
      vertex 13.51 -3 0
      vertex 25.01 -3 10.5
      vertex 13.51 -3 10.5
    endloop
  endfacet
  facet normal 0 -1 -0
    outer loop
      vertex 25.01 -3 10.5
      vertex 13.51 -3 0
      vertex 25.01 -3 0
    endloop
  endfacet
  facet normal 0 0 -1
    outer loop
      vertex 13.51 -0.9 8.5
      vertex 25.01 2.2 8.5
      vertex 25.01 -0.9 8.5
    endloop
  endfacet
  facet normal -0 0 -1
    outer loop
      vertex 25.01 2.2 8.5
      vertex 13.51 -0.9 8.5
      vertex 13.51 2.2 8.5
    endloop
  endfacet
  facet normal -0 0.529999 0.847998
    outer loop
      vertex 13.51 2.2 8.5
      vertex 25.01 -0.9 10.4375
      vertex 25.01 2.2 8.5
    endloop
  endfacet
  facet normal 0 0.529999 0.847998
    outer loop
      vertex 25.01 -0.9 10.4375
      vertex 13.51 2.2 8.5
      vertex 13.51 -0.9 10.4375
    endloop
  endfacet
  facet normal -1 0 0
    outer loop
      vertex 54.67 0 0
      vertex 54.67 -0.9 4.5
      vertex 54.67 0 4.5
    endloop
  endfacet
  facet normal -1 0 0
    outer loop
      vertex 54.67 -3 10.5
      vertex 54.67 -0.9 8.5
      vertex 54.67 -0.9 4.5
    endloop
  endfacet
  facet normal -1 0 0
    outer loop
      vertex 54.67 -0.9 8.5
      vertex 54.67 -3 10.5
      vertex 54.67 -0.9 10.4375
    endloop
  endfacet
  facet normal -1 0 0
    outer loop
      vertex 54.67 -3 0
      vertex 54.67 -0.9 4.5
      vertex 54.67 0 0
    endloop
  endfacet
  facet normal -1 0 0
    outer loop
      vertex 54.67 -3 10.5
      vertex 54.67 -0.9 4.5
      vertex 54.67 -3 0
    endloop
  endfacet
  facet normal -1 0 0
    outer loop
      vertex 54.67 -0.9 10.4375
      vertex 54.67 -3 10.5
      vertex 54.67 -0.9 10.5
    endloop
  endfacet
  facet normal -1 0 0
    outer loop
      vertex 54.67 2.2 8.5
      vertex 54.67 -0.9 8.5
      vertex 54.67 -0.9 10.4375
    endloop
  endfacet
  facet normal 1 -0 0
    outer loop
      vertex 66.17 -3 10.5
      vertex 66.17 -0.9 10.4375
      vertex 66.17 -0.9 10.5
    endloop
  endfacet
  facet normal 1 0 0
    outer loop
      vertex 66.17 -0.9 10.4375
      vertex 66.17 -3 10.5
      vertex 66.17 -0.9 8.5
    endloop
  endfacet
  facet normal 1 0 0
    outer loop
      vertex 66.17 -0.9 8.5
      vertex 66.17 -3 10.5
      vertex 66.17 -0.9 4.5
    endloop
  endfacet
  facet normal 1 0 0
    outer loop
      vertex 66.17 2.2 8.5
      vertex 66.17 -0.9 10.4375
      vertex 66.17 -0.9 8.5
    endloop
  endfacet
  facet normal 1 -0 0
    outer loop
      vertex 66.17 -0.9 4.5
      vertex 66.17 0 0
      vertex 66.17 0 4.5
    endloop
  endfacet
  facet normal 1 0 0
    outer loop
      vertex 66.17 -3 0
      vertex 66.17 -0.9 4.5
      vertex 66.17 -3 10.5
    endloop
  endfacet
  facet normal 1 0 0
    outer loop
      vertex 66.17 -0.9 4.5
      vertex 66.17 -3 0
      vertex 66.17 0 0
    endloop
  endfacet
  facet normal -0 0 1
    outer loop
      vertex 54.67 -0.9 10.5
      vertex 66.17 -3 10.5
      vertex 66.17 -0.9 10.5
    endloop
  endfacet
  facet normal 0 0 1
    outer loop
      vertex 66.17 -3 10.5
      vertex 54.67 -0.9 10.5
      vertex 54.67 -3 10.5
    endloop
  endfacet
  facet normal 0 1 -0
    outer loop
      vertex 66.17 -0.9 10.4375
      vertex 54.67 -0.9 10.5
      vertex 66.17 -0.9 10.5
    endloop
  endfacet
  facet normal 0 1 0
    outer loop
      vertex 54.67 -0.9 10.5
      vertex 66.17 -0.9 10.4375
      vertex 54.67 -0.9 10.4375
    endloop
  endfacet
  facet normal 0 1 -0
    outer loop
      vertex 66.17 -0.9 4.5
      vertex 54.67 -0.9 8.5
      vertex 66.17 -0.9 8.5
    endloop
  endfacet
  facet normal 0 1 0
    outer loop
      vertex 54.67 -0.9 8.5
      vertex 66.17 -0.9 4.5
      vertex 54.67 -0.9 4.5
    endloop
  endfacet
  facet normal 0 -1 0
    outer loop
      vertex 54.67 -3 0
      vertex 66.17 -3 10.5
      vertex 54.67 -3 10.5
    endloop
  endfacet
  facet normal 0 -1 -0
    outer loop
      vertex 66.17 -3 10.5
      vertex 54.67 -3 0
      vertex 66.17 -3 0
    endloop
  endfacet
  facet normal 0 0 -1
    outer loop
      vertex 54.67 -0.9 8.5
      vertex 66.17 2.2 8.5
      vertex 66.17 -0.9 8.5
    endloop
  endfacet
  facet normal -0 0 -1
    outer loop
      vertex 66.17 2.2 8.5
      vertex 54.67 -0.9 8.5
      vertex 54.67 2.2 8.5
    endloop
  endfacet
  facet normal -0 0.529999 0.847998
    outer loop
      vertex 54.67 2.2 8.5
      vertex 66.17 -0.9 10.4375
      vertex 66.17 2.2 8.5
    endloop
  endfacet
  facet normal 0 0.529999 0.847998
    outer loop
      vertex 66.17 -0.9 10.4375
      vertex 54.67 2.2 8.5
      vertex 54.67 -0.9 10.4375
    endloop
  endfacet
  facet normal -1 0 0
    outer loop
      vertex 95.83 0 0
      vertex 95.83 -0.9 4.5
      vertex 95.83 0 4.5
    endloop
  endfacet
  facet normal -1 0 0
    outer loop
      vertex 95.83 -3 10.5
      vertex 95.83 -0.9 8.5
      vertex 95.83 -0.9 4.5
    endloop
  endfacet
  facet normal -1 0 0
    outer loop
      vertex 95.83 -0.9 8.5
      vertex 95.83 -3 10.5
      vertex 95.83 -0.9 10.4375
    endloop
  endfacet
  facet normal -1 0 0
    outer loop
      vertex 95.83 -3 0
      vertex 95.83 -0.9 4.5
      vertex 95.83 0 0
    endloop
  endfacet
  facet normal -1 0 0
    outer loop
      vertex 95.83 -3 10.5
      vertex 95.83 -0.9 4.5
      vertex 95.83 -3 0
    endloop
  endfacet
  facet normal -1 0 0
    outer loop
      vertex 95.83 -0.9 10.4375
      vertex 95.83 -3 10.5
      vertex 95.83 -0.9 10.5
    endloop
  endfacet
  facet normal -1 0 0
    outer loop
      vertex 95.83 2.2 8.5
      vertex 95.83 -0.9 8.5
      vertex 95.83 -0.9 10.4375
    endloop
  endfacet
  facet normal 1 -0 0
    outer loop
      vertex 107.33 -3 10.5
      vertex 107.33 -0.9 10.4375
      vertex 107.33 -0.9 10.5
    endloop
  endfacet
  facet normal 1 0 0
    outer loop
      vertex 107.33 -0.9 10.4375
      vertex 107.33 -3 10.5
      vertex 107.33 -0.9 8.5
    endloop
  endfacet
  facet normal 1 0 0
    outer loop
      vertex 107.33 -0.9 8.5
      vertex 107.33 -3 10.5
      vertex 107.33 -0.9 4.5
    endloop
  endfacet
  facet normal 1 0 0
    outer loop
      vertex 107.33 2.2 8.5
      vertex 107.33 -0.9 10.4375
      vertex 107.33 -0.9 8.5
    endloop
  endfacet
  facet normal 1 -0 0
    outer loop
      vertex 107.33 -0.9 4.5
      vertex 107.33 0 0
      vertex 107.33 0 4.5
    endloop
  endfacet
  facet normal 1 0 0
    outer loop
      vertex 107.33 -3 0
      vertex 107.33 -0.9 4.5
      vertex 107.33 -3 10.5
    endloop
  endfacet
  facet normal 1 0 0
    outer loop
      vertex 107.33 -0.9 4.5
      vertex 107.33 -3 0
      vertex 107.33 0 0
    endloop
  endfacet
  facet normal -0 0 1
    outer loop
      vertex 95.83 -0.9 10.5
      vertex 107.33 -3 10.5
      vertex 107.33 -0.9 10.5
    endloop
  endfacet
  facet normal 0 0 1
    outer loop
      vertex 107.33 -3 10.5
      vertex 95.83 -0.9 10.5
      vertex 95.83 -3 10.5
    endloop
  endfacet
  facet normal 0 1 -0
    outer loop
      vertex 107.33 -0.9 10.4375
      vertex 95.83 -0.9 10.5
      vertex 107.33 -0.9 10.5
    endloop
  endfacet
  facet normal 0 1 0
    outer loop
      vertex 95.83 -0.9 10.5
      vertex 107.33 -0.9 10.4375
      vertex 95.83 -0.9 10.4375
    endloop
  endfacet
  facet normal 0 1 -0
    outer loop
      vertex 107.33 -0.9 4.5
      vertex 95.83 -0.9 8.5
      vertex 107.33 -0.9 8.5
    endloop
  endfacet
  facet normal 0 1 0
    outer loop
      vertex 95.83 -0.9 8.5
      vertex 107.33 -0.9 4.5
      vertex 95.83 -0.9 4.5
    endloop
  endfacet
  facet normal 0 -1 0
    outer loop
      vertex 95.83 -3 0
      vertex 107.33 -3 10.5
      vertex 95.83 -3 10.5
    endloop
  endfacet
  facet normal 0 -1 -0
    outer loop
      vertex 107.33 -3 10.5
      vertex 95.83 -3 0
      vertex 107.33 -3 0
    endloop
  endfacet
  facet normal 0 0 -1
    outer loop
      vertex 95.83 -0.9 8.5
      vertex 107.33 2.2 8.5
      vertex 107.33 -0.9 8.5
    endloop
  endfacet
  facet normal -0 0 -1
    outer loop
      vertex 107.33 2.2 8.5
      vertex 95.83 -0.9 8.5
      vertex 95.83 2.2 8.5
    endloop
  endfacet
  facet normal -0 0.529999 0.847998
    outer loop
      vertex 95.83 2.2 8.5
      vertex 107.33 -0.9 10.4375
      vertex 107.33 2.2 8.5
    endloop
  endfacet
  facet normal 0 0.529999 0.847998
    outer loop
      vertex 107.33 -0.9 10.4375
      vertex 95.83 2.2 8.5
      vertex 95.83 -0.9 10.4375
    endloop
  endfacet
  facet normal -1 0 0
    outer loop
      vertex 13.51 35.9 8.5
      vertex 13.51 32.8 8.5
      vertex 13.51 35.9 10.4375
    endloop
  endfacet
  facet normal -1 0 0
    outer loop
      vertex 13.51 38 0
      vertex 13.51 35.9 4.5
      vertex 13.51 38 10.5
    endloop
  endfacet
  facet normal -1 0 0
    outer loop
      vertex 13.51 35 0
      vertex 13.51 35.9 4.5
      vertex 13.51 38 0
    endloop
  endfacet
  facet normal -1 -0 0
    outer loop
      vertex 13.51 35.9 4.5
      vertex 13.51 35 0
      vertex 13.51 35 4.5
    endloop
  endfacet
  facet normal -1 0 0
    outer loop
      vertex 13.51 35.9 8.5
      vertex 13.51 38 10.5
      vertex 13.51 35.9 4.5
    endloop
  endfacet
  facet normal -1 0 0
    outer loop
      vertex 13.51 35.9 10.4375
      vertex 13.51 38 10.5
      vertex 13.51 35.9 8.5
    endloop
  endfacet
  facet normal -1 -0 0
    outer loop
      vertex 13.51 38 10.5
      vertex 13.51 35.9 10.4375
      vertex 13.51 35.9 10.5
    endloop
  endfacet
  facet normal 1 0 0
    outer loop
      vertex 25.01 35.9 10.4375
      vertex 25.01 32.8 8.5
      vertex 25.01 35.9 8.5
    endloop
  endfacet
  facet normal 1 0 0
    outer loop
      vertex 25.01 35.9 10.4375
      vertex 25.01 38 10.5
      vertex 25.01 35.9 10.5
    endloop
  endfacet
  facet normal 1 0 0
    outer loop
      vertex 25.01 35.9 8.5
      vertex 25.01 38 10.5
      vertex 25.01 35.9 10.4375
    endloop
  endfacet
  facet normal 1 0 0
    outer loop
      vertex 25.01 35.9 4.5
      vertex 25.01 38 10.5
      vertex 25.01 35.9 8.5
    endloop
  endfacet
  facet normal 1 0 0
    outer loop
      vertex 25.01 38 10.5
      vertex 25.01 35.9 4.5
      vertex 25.01 38 0
    endloop
  endfacet
  facet normal 1 0 0
    outer loop
      vertex 25.01 35 0
      vertex 25.01 35.9 4.5
      vertex 25.01 35 4.5
    endloop
  endfacet
  facet normal 1 0 0
    outer loop
      vertex 25.01 35.9 4.5
      vertex 25.01 35 0
      vertex 25.01 38 0
    endloop
  endfacet
  facet normal -0 0 1
    outer loop
      vertex 13.51 38 10.5
      vertex 25.01 35.9 10.5
      vertex 25.01 38 10.5
    endloop
  endfacet
  facet normal 0 0 1
    outer loop
      vertex 25.01 35.9 10.5
      vertex 13.51 38 10.5
      vertex 13.51 35.9 10.5
    endloop
  endfacet
  facet normal 0 -1 0
    outer loop
      vertex 13.51 35.9 10.4375
      vertex 25.01 35.9 10.5
      vertex 13.51 35.9 10.5
    endloop
  endfacet
  facet normal 0 -1 -0
    outer loop
      vertex 25.01 35.9 10.5
      vertex 13.51 35.9 10.4375
      vertex 25.01 35.9 10.4375
    endloop
  endfacet
  facet normal 0 -1 0
    outer loop
      vertex 13.51 35.9 4.5
      vertex 25.01 35.9 8.5
      vertex 13.51 35.9 8.5
    endloop
  endfacet
  facet normal 0 -1 -0
    outer loop
      vertex 25.01 35.9 8.5
      vertex 13.51 35.9 4.5
      vertex 25.01 35.9 4.5
    endloop
  endfacet
  facet normal 0 1 -0
    outer loop
      vertex 25.01 38 0
      vertex 13.51 38 10.5
      vertex 25.01 38 10.5
    endloop
  endfacet
  facet normal 0 1 0
    outer loop
      vertex 13.51 38 10.5
      vertex 25.01 38 0
      vertex 13.51 38 0
    endloop
  endfacet
  facet normal 0 0 -1
    outer loop
      vertex 13.51 32.8 8.5
      vertex 25.01 35.9 8.5
      vertex 25.01 32.8 8.5
    endloop
  endfacet
  facet normal -0 0 -1
    outer loop
      vertex 25.01 35.9 8.5
      vertex 13.51 32.8 8.5
      vertex 13.51 35.9 8.5
    endloop
  endfacet
  facet normal 0 -0.529999 0.847998
    outer loop
      vertex 13.51 35.9 10.4375
      vertex 25.01 32.8 8.5
      vertex 25.01 35.9 10.4375
    endloop
  endfacet
  facet normal 0 -0.529999 0.847998
    outer loop
      vertex 25.01 32.8 8.5
      vertex 13.51 35.9 10.4375
      vertex 13.51 32.8 8.5
    endloop
  endfacet
  facet normal -1 0 0
    outer loop
      vertex 54.67 35.9 8.5
      vertex 54.67 32.8 8.5
      vertex 54.67 35.9 10.4375
    endloop
  endfacet
  facet normal -1 0 0
    outer loop
      vertex 54.67 38 0
      vertex 54.67 35.9 4.5
      vertex 54.67 38 10.5
    endloop
  endfacet
  facet normal -1 0 0
    outer loop
      vertex 54.67 35 0
      vertex 54.67 35.9 4.5
      vertex 54.67 38 0
    endloop
  endfacet
  facet normal -1 -0 0
    outer loop
      vertex 54.67 35.9 4.5
      vertex 54.67 35 0
      vertex 54.67 35 4.5
    endloop
  endfacet
  facet normal -1 0 0
    outer loop
      vertex 54.67 35.9 8.5
      vertex 54.67 38 10.5
      vertex 54.67 35.9 4.5
    endloop
  endfacet
  facet normal -1 0 0
    outer loop
      vertex 54.67 35.9 10.4375
      vertex 54.67 38 10.5
      vertex 54.67 35.9 8.5
    endloop
  endfacet
  facet normal -1 -0 0
    outer loop
      vertex 54.67 38 10.5
      vertex 54.67 35.9 10.4375
      vertex 54.67 35.9 10.5
    endloop
  endfacet
  facet normal 1 0 0
    outer loop
      vertex 66.17 35.9 10.4375
      vertex 66.17 32.8 8.5
      vertex 66.17 35.9 8.5
    endloop
  endfacet
  facet normal 1 0 0
    outer loop
      vertex 66.17 35.9 10.4375
      vertex 66.17 38 10.5
      vertex 66.17 35.9 10.5
    endloop
  endfacet
  facet normal 1 0 0
    outer loop
      vertex 66.17 35.9 8.5
      vertex 66.17 38 10.5
      vertex 66.17 35.9 10.4375
    endloop
  endfacet
  facet normal 1 0 0
    outer loop
      vertex 66.17 35.9 4.5
      vertex 66.17 38 10.5
      vertex 66.17 35.9 8.5
    endloop
  endfacet
  facet normal 1 0 0
    outer loop
      vertex 66.17 38 10.5
      vertex 66.17 35.9 4.5
      vertex 66.17 38 0
    endloop
  endfacet
  facet normal 1 0 0
    outer loop
      vertex 66.17 35 0
      vertex 66.17 35.9 4.5
      vertex 66.17 35 4.5
    endloop
  endfacet
  facet normal 1 0 0
    outer loop
      vertex 66.17 35.9 4.5
      vertex 66.17 35 0
      vertex 66.17 38 0
    endloop
  endfacet
  facet normal -0 0 1
    outer loop
      vertex 54.67 38 10.5
      vertex 66.17 35.9 10.5
      vertex 66.17 38 10.5
    endloop
  endfacet
  facet normal 0 0 1
    outer loop
      vertex 66.17 35.9 10.5
      vertex 54.67 38 10.5
      vertex 54.67 35.9 10.5
    endloop
  endfacet
  facet normal 0 -1 0
    outer loop
      vertex 54.67 35.9 10.4375
      vertex 66.17 35.9 10.5
      vertex 54.67 35.9 10.5
    endloop
  endfacet
  facet normal 0 -1 -0
    outer loop
      vertex 66.17 35.9 10.5
      vertex 54.67 35.9 10.4375
      vertex 66.17 35.9 10.4375
    endloop
  endfacet
  facet normal 0 -1 0
    outer loop
      vertex 54.67 35.9 4.5
      vertex 66.17 35.9 8.5
      vertex 54.67 35.9 8.5
    endloop
  endfacet
  facet normal 0 -1 -0
    outer loop
      vertex 66.17 35.9 8.5
      vertex 54.67 35.9 4.5
      vertex 66.17 35.9 4.5
    endloop
  endfacet
  facet normal 0 1 -0
    outer loop
      vertex 66.17 38 0
      vertex 54.67 38 10.5
      vertex 66.17 38 10.5
    endloop
  endfacet
  facet normal 0 1 0
    outer loop
      vertex 54.67 38 10.5
      vertex 66.17 38 0
      vertex 54.67 38 0
    endloop
  endfacet
  facet normal 0 0 -1
    outer loop
      vertex 54.67 32.8 8.5
      vertex 66.17 35.9 8.5
      vertex 66.17 32.8 8.5
    endloop
  endfacet
  facet normal -0 0 -1
    outer loop
      vertex 66.17 35.9 8.5
      vertex 54.67 32.8 8.5
      vertex 54.67 35.9 8.5
    endloop
  endfacet
  facet normal 0 -0.529999 0.847998
    outer loop
      vertex 54.67 35.9 10.4375
      vertex 66.17 32.8 8.5
      vertex 66.17 35.9 10.4375
    endloop
  endfacet
  facet normal 0 -0.529999 0.847998
    outer loop
      vertex 66.17 32.8 8.5
      vertex 54.67 35.9 10.4375
      vertex 54.67 32.8 8.5
    endloop
  endfacet
  facet normal -1 0 0
    outer loop
      vertex 95.83 35.9 8.5
      vertex 95.83 32.8 8.5
      vertex 95.83 35.9 10.4375
    endloop
  endfacet
  facet normal -1 0 0
    outer loop
      vertex 95.83 38 0
      vertex 95.83 35.9 4.5
      vertex 95.83 38 10.5
    endloop
  endfacet
  facet normal -1 0 0
    outer loop
      vertex 95.83 35 0
      vertex 95.83 35.9 4.5
      vertex 95.83 38 0
    endloop
  endfacet
  facet normal -1 -0 0
    outer loop
      vertex 95.83 35.9 4.5
      vertex 95.83 35 0
      vertex 95.83 35 4.5
    endloop
  endfacet
  facet normal -1 0 0
    outer loop
      vertex 95.83 35.9 8.5
      vertex 95.83 38 10.5
      vertex 95.83 35.9 4.5
    endloop
  endfacet
  facet normal -1 0 0
    outer loop
      vertex 95.83 35.9 10.4375
      vertex 95.83 38 10.5
      vertex 95.83 35.9 8.5
    endloop
  endfacet
  facet normal -1 -0 0
    outer loop
      vertex 95.83 38 10.5
      vertex 95.83 35.9 10.4375
      vertex 95.83 35.9 10.5
    endloop
  endfacet
  facet normal 1 0 0
    outer loop
      vertex 107.33 35.9 10.4375
      vertex 107.33 32.8 8.5
      vertex 107.33 35.9 8.5
    endloop
  endfacet
  facet normal 1 0 0
    outer loop
      vertex 107.33 35.9 10.4375
      vertex 107.33 38 10.5
      vertex 107.33 35.9 10.5
    endloop
  endfacet
  facet normal 1 0 0
    outer loop
      vertex 107.33 35.9 8.5
      vertex 107.33 38 10.5
      vertex 107.33 35.9 10.4375
    endloop
  endfacet
  facet normal 1 0 0
    outer loop
      vertex 107.33 35.9 4.5
      vertex 107.33 38 10.5
      vertex 107.33 35.9 8.5
    endloop
  endfacet
  facet normal 1 0 0
    outer loop
      vertex 107.33 38 10.5
      vertex 107.33 35.9 4.5
      vertex 107.33 38 0
    endloop
  endfacet
  facet normal 1 0 0
    outer loop
      vertex 107.33 35 0
      vertex 107.33 35.9 4.5
      vertex 107.33 35 4.5
    endloop
  endfacet
  facet normal 1 0 0
    outer loop
      vertex 107.33 35.9 4.5
      vertex 107.33 35 0
      vertex 107.33 38 0
    endloop
  endfacet
  facet normal -0 0 1
    outer loop
      vertex 95.83 38 10.5
      vertex 107.33 35.9 10.5
      vertex 107.33 38 10.5
    endloop
  endfacet
  facet normal 0 0 1
    outer loop
      vertex 107.33 35.9 10.5
      vertex 95.83 38 10.5
      vertex 95.83 35.9 10.5
    endloop
  endfacet
  facet normal 0 -1 0
    outer loop
      vertex 95.83 35.9 10.4375
      vertex 107.33 35.9 10.5
      vertex 95.83 35.9 10.5
    endloop
  endfacet
  facet normal 0 -1 -0
    outer loop
      vertex 107.33 35.9 10.5
      vertex 95.83 35.9 10.4375
      vertex 107.33 35.9 10.4375
    endloop
  endfacet
  facet normal 0 -1 0
    outer loop
      vertex 95.83 35.9 4.5
      vertex 107.33 35.9 8.5
      vertex 95.83 35.9 8.5
    endloop
  endfacet
  facet normal 0 -1 -0
    outer loop
      vertex 107.33 35.9 8.5
      vertex 95.83 35.9 4.5
      vertex 107.33 35.9 4.5
    endloop
  endfacet
  facet normal 0 1 -0
    outer loop
      vertex 107.33 38 0
      vertex 95.83 38 10.5
      vertex 107.33 38 10.5
    endloop
  endfacet
  facet normal 0 1 0
    outer loop
      vertex 95.83 38 10.5
      vertex 107.33 38 0
      vertex 95.83 38 0
    endloop
  endfacet
  facet normal 0 0 -1
    outer loop
      vertex 95.83 32.8 8.5
      vertex 107.33 35.9 8.5
      vertex 107.33 32.8 8.5
    endloop
  endfacet
  facet normal -0 0 -1
    outer loop
      vertex 107.33 35.9 8.5
      vertex 95.83 32.8 8.5
      vertex 95.83 35.9 8.5
    endloop
  endfacet
  facet normal 0 -0.529999 0.847998
    outer loop
      vertex 95.83 35.9 10.4375
      vertex 107.33 32.8 8.5
      vertex 107.33 35.9 10.4375
    endloop
  endfacet
  facet normal 0 -0.529999 0.847998
    outer loop
      vertex 107.33 32.8 8.5
      vertex 95.83 35.9 10.4375
      vertex 95.83 32.8 8.5
    endloop
  endfacet
  facet normal -1 0 0
    outer loop
      vertex 4.8 5.9 1.5
      vertex 4.8 8.9 28.9
      vertex 4.8 8.9 1.5
    endloop
  endfacet
  facet normal -1 -0 0
    outer loop
      vertex 4.8 8.9 28.9
      vertex 4.8 5.9 1.5
      vertex 4.8 5.9 28.9
    endloop
  endfacet
  facet normal -0 0 1
    outer loop
      vertex 4.8 8.9 28.9
      vertex 7.8 5.9 28.9
      vertex 7.8 8.9 28.9
    endloop
  endfacet
  facet normal 0 0 1
    outer loop
      vertex 7.8 5.9 28.9
      vertex 4.8 8.9 28.9
      vertex 4.8 5.9 28.9
    endloop
  endfacet
  facet normal 1 -0 0
    outer loop
      vertex 7.8 5.9 28.9
      vertex 7.8 8.9 1.5
      vertex 7.8 8.9 28.9
    endloop
  endfacet
  facet normal 1 0 0
    outer loop
      vertex 7.8 8.9 1.5
      vertex 7.8 5.9 28.9
      vertex 7.8 5.9 1.5
    endloop
  endfacet
  facet normal 0 1 -0
    outer loop
      vertex 7.8 8.9 1.5
      vertex 4.8 8.9 28.9
      vertex 7.8 8.9 28.9
    endloop
  endfacet
  facet normal 0 1 0
    outer loop
      vertex 4.8 8.9 28.9
      vertex 7.8 8.9 1.5
      vertex 4.8 8.9 1.5
    endloop
  endfacet
  facet normal 0 -1 0
    outer loop
      vertex 4.8 5.9 1.5
      vertex 7.8 5.9 28.9
      vertex 4.8 5.9 28.9
    endloop
  endfacet
  facet normal 0 -1 -0
    outer loop
      vertex 7.8 5.9 28.9
      vertex 4.8 5.9 1.5
      vertex 7.8 5.9 1.5
    endloop
  endfacet
  facet normal -1 0 0
    outer loop
      vertex 4.8 26.1 1.5
      vertex 4.8 29.1 28.9
      vertex 4.8 29.1 1.5
    endloop
  endfacet
  facet normal -1 -0 0
    outer loop
      vertex 4.8 29.1 28.9
      vertex 4.8 26.1 1.5
      vertex 4.8 26.1 28.9
    endloop
  endfacet
  facet normal -0 0 1
    outer loop
      vertex 4.8 29.1 28.9
      vertex 7.8 26.1 28.9
      vertex 7.8 29.1 28.9
    endloop
  endfacet
  facet normal 0 0 1
    outer loop
      vertex 7.8 26.1 28.9
      vertex 4.8 29.1 28.9
      vertex 4.8 26.1 28.9
    endloop
  endfacet
  facet normal 1 -0 0
    outer loop
      vertex 7.8 26.1 28.9
      vertex 7.8 29.1 1.5
      vertex 7.8 29.1 28.9
    endloop
  endfacet
  facet normal 1 0 0
    outer loop
      vertex 7.8 29.1 1.5
      vertex 7.8 26.1 28.9
      vertex 7.8 26.1 1.5
    endloop
  endfacet
  facet normal 0 1 -0
    outer loop
      vertex 7.8 29.1 1.5
      vertex 4.8 29.1 28.9
      vertex 7.8 29.1 28.9
    endloop
  endfacet
  facet normal 0 1 0
    outer loop
      vertex 4.8 29.1 28.9
      vertex 7.8 29.1 1.5
      vertex 4.8 29.1 1.5
    endloop
  endfacet
  facet normal 0 -1 0
    outer loop
      vertex 4.8 26.1 1.5
      vertex 7.8 26.1 28.9
      vertex 4.8 26.1 28.9
    endloop
  endfacet
  facet normal 0 -1 -0
    outer loop
      vertex 7.8 26.1 28.9
      vertex 4.8 26.1 1.5
      vertex 7.8 26.1 1.5
    endloop
  endfacet
  facet normal -1 0 0
    outer loop
      vertex 54.4 5.9 1.5
      vertex 54.4 8.9 28.9
      vertex 54.4 8.9 1.5
    endloop
  endfacet
  facet normal -1 -0 0
    outer loop
      vertex 54.4 8.9 28.9
      vertex 54.4 5.9 1.5
      vertex 54.4 5.9 28.9
    endloop
  endfacet
  facet normal -0 0 1
    outer loop
      vertex 54.4 8.9 28.9
      vertex 57.4 5.9 28.9
      vertex 57.4 8.9 28.9
    endloop
  endfacet
  facet normal 0 0 1
    outer loop
      vertex 57.4 5.9 28.9
      vertex 54.4 8.9 28.9
      vertex 54.4 5.9 28.9
    endloop
  endfacet
  facet normal 1 -0 0
    outer loop
      vertex 57.4 5.9 28.9
      vertex 57.4 8.9 1.5
      vertex 57.4 8.9 28.9
    endloop
  endfacet
  facet normal 1 0 0
    outer loop
      vertex 57.4 8.9 1.5
      vertex 57.4 5.9 28.9
      vertex 57.4 5.9 1.5
    endloop
  endfacet
  facet normal 0 1 -0
    outer loop
      vertex 57.4 8.9 1.5
      vertex 54.4 8.9 28.9
      vertex 57.4 8.9 28.9
    endloop
  endfacet
  facet normal 0 1 0
    outer loop
      vertex 54.4 8.9 28.9
      vertex 57.4 8.9 1.5
      vertex 54.4 8.9 1.5
    endloop
  endfacet
  facet normal 0 -1 0
    outer loop
      vertex 54.4 5.9 1.5
      vertex 57.4 5.9 28.9
      vertex 54.4 5.9 28.9
    endloop
  endfacet
  facet normal 0 -1 -0
    outer loop
      vertex 57.4 5.9 28.9
      vertex 54.4 5.9 1.5
      vertex 57.4 5.9 1.5
    endloop
  endfacet
  facet normal -1 0 0
    outer loop
      vertex 54.4 26.1 1.5
      vertex 54.4 29.1 28.9
      vertex 54.4 29.1 1.5
    endloop
  endfacet
  facet normal -1 -0 0
    outer loop
      vertex 54.4 29.1 28.9
      vertex 54.4 26.1 1.5
      vertex 54.4 26.1 28.9
    endloop
  endfacet
  facet normal -0 0 1
    outer loop
      vertex 54.4 29.1 28.9
      vertex 57.4 26.1 28.9
      vertex 57.4 29.1 28.9
    endloop
  endfacet
  facet normal 0 0 1
    outer loop
      vertex 57.4 26.1 28.9
      vertex 54.4 29.1 28.9
      vertex 54.4 26.1 28.9
    endloop
  endfacet
  facet normal 1 -0 0
    outer loop
      vertex 57.4 26.1 28.9
      vertex 57.4 29.1 1.5
      vertex 57.4 29.1 28.9
    endloop
  endfacet
  facet normal 1 0 0
    outer loop
      vertex 57.4 29.1 1.5
      vertex 57.4 26.1 28.9
      vertex 57.4 26.1 1.5
    endloop
  endfacet
  facet normal 0 -1 0
    outer loop
      vertex 54.4 26.1 1.5
      vertex 57.4 26.1 28.9
      vertex 54.4 26.1 28.9
    endloop
  endfacet
  facet normal 0 -1 -0
    outer loop
      vertex 57.4 26.1 28.9
      vertex 54.4 26.1 1.5
      vertex 57.4 26.1 1.5
    endloop
  endfacet
  facet normal 0 1 -0
    outer loop
      vertex 57.4 29.1 1.5
      vertex 54.4 29.1 28.9
      vertex 57.4 29.1 28.9
    endloop
  endfacet
  facet normal 0 1 0
    outer loop
      vertex 54.4 29.1 28.9
      vertex 57.4 29.1 1.5
      vertex 54.4 29.1 1.5
    endloop
  endfacet
endsolid OpenSCAD_Model
